<svg xmlns="http://www.w3.org/2000/svg" xmlns:xlink="http://www.w3.org/1999/xlink" id="Capa_1" x="0px" y="0px" viewBox="0 0 64 64" style="enable-background:new 0 0 64 64;" xml:space="preserve"><g id="Anchor_1_">	<path id="Anchor" d="M51.039,42.409c-0.395-0.382-1.029-0.375-1.414,0.023l-3.411,3.522c-0.384,0.396-0.374,1.029,0.023,1.414  c0.193,0.188,0.444,0.281,0.695,0.281c0.261,0,0.522-0.101,0.719-0.305l1.545-1.596c-1.013,8.044-7.715,14.323-15.942,14.684  V22.666h6.948c0.553,0,1-0.447,1-1c0-0.553-0.447-1-1-1h-6.948v-9.221c2.705-0.476,4.768-2.837,4.768-5.676  c0-3.182-2.588-5.77-5.768-5.77c-3.182,0-5.77,2.588-5.77,5.77c0,2.839,2.064,5.2,4.769,5.676v9.221h-6.949c-0.553,0-1,0.447-1,1  c0,0.553,0.447,1,1,1h6.949v37.793c-8.46-0.118-15.418-6.501-16.451-14.712l1.55,1.598c0.196,0.202,0.457,0.304,0.718,0.304  c0.251,0,0.502-0.094,0.696-0.282c0.396-0.384,0.406-1.018,0.021-1.414l-3.414-3.521c-0.386-0.397-1.019-0.405-1.414-0.022  c-0.272,0.263-0.348,0.641-0.254,0.982c-0.021,0.081-0.05,0.16-0.05,0.248c0,10.304,8.322,18.691,18.598,18.819V63  c0,0.553,0.447,1,1,1c0.553,0,1-0.447,1-1v-0.567c10.038-0.394,18.089-8.66,18.089-18.793c0-0.088-0.029-0.166-0.05-0.247  C51.387,43.051,51.311,42.673,51.039,42.409z M28.485,5.77c0-2.078,1.691-3.77,3.77-3.77s3.768,1.691,3.768,3.77  c0,2.078-1.69,3.769-3.768,3.769S28.485,7.848,28.485,5.77z"></path></g><g></g><g></g><g></g><g></g><g></g><g></g><g></g><g></g><g></g><g></g><g></g><g></g><g></g><g></g><g></g></svg>