<svg xmlns="http://www.w3.org/2000/svg" xmlns:xlink="http://www.w3.org/1999/xlink" id="Capa_1" x="0px" y="0px" viewBox="0 0 476.674 476.674" style="enable-background:new 0 0 476.674 476.674;" xml:space="preserve"><g>	<path d="M449.085,461.674H398.11v-15.368c0-35.193-9.385-62.355-27.894-80.732c-23.199-23.033-52.226-23.474-54.323-23.474  c-0.036,0-0.064,0-0.084,0h-37.571v-22.734c0-0.396-0.04-0.783-0.1-1.163c24.057-9.941,39.262-26.522,48.52-40.897  c14.433-22.41,17.688-43.977,17.819-44.884c0.052-0.356,0.078-0.716,0.078-1.076v-1.606c5.268-1.299,9.851-4.017,13.49-8.046  c10.618-11.757,10.002-30.306,9.243-37.734c-0.576-5.655-3.134-10.4-7.397-13.722c-0.242-0.189-0.489-0.369-0.738-0.545  c8.553-27.965,5.394-52.288,3.627-61.487c12.563-10.262,14.549-21.09,14.668-21.816c0.066-0.402,0.1-0.809,0.1-1.216  c0-21.272-15.1-42.932-41.426-59.426C309.619,9.144,275.703,0,240.62,0c-0.521,0-1.03,0.054-1.521,0.155  c-0.491-0.101-1-0.155-1.521-0.155c-35.083,0-69,9.144-95.502,25.748c-26.327,16.494-41.427,38.154-41.427,59.426  c0,0.408,0.033,0.814,0.1,1.217c0.114,0.697,1.946,10.708,13.214,20.588c-1.677,8.069-5.59,33.383,3.381,62.714  c-0.248,0.176-0.495,0.355-0.737,0.544c-4.264,3.323-6.822,8.067-7.398,13.723c-0.758,7.429-1.374,25.978,9.244,37.734  c3.68,4.074,8.326,6.804,13.668,8.085v1.567c0,0.36,0.026,0.72,0.078,1.076c0.131,0.907,3.387,22.474,17.819,44.884  c9.258,14.375,24.463,30.956,48.52,40.897c-0.06,0.38-0.1,0.767-0.1,1.163v22.734h-37.518c-1.249,0.012-30.869,0.051-54.461,23.474  c-18.509,18.377-27.894,45.54-27.894,80.732v15.368H27.589c-4.143,0-7.5,3.358-7.5,7.5c0,4.142,3.357,7.5,7.5,7.5h421.496  c4.143,0,7.5-3.358,7.5-7.5C456.585,465.032,453.228,461.674,449.085,461.674z M331.648,359.798  c7.889,2.346,17.608,6.733,26.443,14.936l-16.414,12.431c-3.102-2.674-6.442-5.082-10.029-7.206V359.798z M367.847,386.161  c4.741,7.008,8.383,15.155,10.918,24.4h-19.278c-2.181-4.462-4.698-8.581-7.532-12.364L367.847,386.161z M315.863,357.101  c0.023-0.001,0.302,0,0.785,0.019v27.27c0,2.821,1.583,5.403,4.096,6.683c12.225,6.227,21.305,16.28,26.988,29.881  c1.166,2.791,3.895,4.608,6.92,4.608h27.122c0.879,6.497,1.336,13.405,1.336,20.745v15.368H264.218  c-0.021-0.536-0.097-1.077-0.239-1.617l-14.398-54.612l10.318,3.365c0.764,0.249,1.548,0.37,2.324,0.37  c2.139,0,4.221-0.917,5.67-2.59l7.82-9.03l13.591-8.307c2.628-1.607,4.007-4.655,3.478-7.689l-4.271-24.463H315.863z   M202.53,367.107c5.456,11.067,15.892,19.249,28.364,21.611l-13.148,4.288l-5.323-6.146c-0.505-0.584-1.099-1.086-1.758-1.489  l-10.231-6.254L202.53,367.107z M274.786,365.708l2.341,13.408l-10.231,6.254c-0.659,0.403-1.253,0.905-1.758,1.489l-5.323,6.146  l-13.467-4.391C259.083,386.006,269.618,377.306,274.786,365.708z M248.893,461.674h-20.16l10.08-38.231L248.893,461.674z   M346.913,211.64c-0.721,0.798-1.509,1.456-2.358,2.009v-33.6c2.309,0.269,4.632,0.864,6.115,2.02  c0.724,0.564,1.492,1.412,1.696,3.414C353.258,194.221,352.294,205.682,346.913,211.64z M344.901,165.007  c-0.116-0.01-0.232-0.019-0.346-0.027v-14.362c0-0.453-0.047-0.894-0.124-1.325c-0.129-2.201-1.217-4.325-3.157-5.695  l-17.247-12.177v-7.19c0.318-0.018,0.639-0.049,0.962-0.109c9.62-1.796,17.489-4.381,23.925-7.366  C350.177,126.91,350.943,144.986,344.901,165.007z M238.337,113.969c41.435,0,62.523,4.753,70.689,7.225v6.658  c-72.687,24.309-131.121,4.122-141.379,0.143V121.2C175.866,118.711,196.954,113.969,238.337,113.969z M237.577,15  c0.521,0,1.03-0.054,1.521-0.155c0.491,0.101,1,0.155,1.521,0.155c68.104,0,121.055,37.108,121.916,69.377  c-0.829,2.796-7.007,18.783-40.302,25c-0.496,0.093-0.97,0.233-1.421,0.415c-0.294-0.205-0.604-0.391-0.93-0.555  c-2.099-1.051-22.22-10.268-81.547-10.268s-79.448,9.217-81.547,10.268c-0.143,0.071-0.271,0.162-0.407,0.241  c-0.141-0.035-0.278-0.074-0.422-0.101c-33.113-6.184-39.368-21.891-40.301-25.041C116.567,52.077,169.501,15,237.577,15z   M127.68,115.989c6.598,3.248,14.795,6.078,24.968,8.024v7.409l-17.247,12.177c-1.94,1.37-3.028,3.494-3.157,5.695  c-0.077,0.431-0.124,0.872-0.124,1.325v14.348c-0.173,0.012-0.349,0.026-0.524,0.041  C125.399,144.473,126.363,125.981,127.68,115.989z M129.583,211.641c-5.381-5.958-6.345-17.419-5.454-26.159  c0.204-1.993,0.964-2.837,1.681-3.4c1.517-1.193,3.926-1.794,6.309-2.051v33.729C131.2,213.188,130.354,212.494,129.583,211.641z   M162.927,269.647c-11.735-18.011-15.267-35.842-15.808-38.914v-77.046l16.04-11.324c9.01,3.469,35.965,12.451,73.525,12.451  c22.319,0,48.39-3.195,76.635-12.589l16.235,11.462v77.056c-0.529,3.061-3.936,20.472-15.509,38.442  c-16.804,26.092-42.038,40.434-75.012,42.63h-1.395C204.873,309.631,179.736,295.444,162.927,269.647z M236.908,326.8  c0.162,0.01,0.323,0.016,0.485,0.016h1.887c0.162,0,0.323-0.005,0.485-0.016c8.499-0.551,16.298-1.832,23.472-3.668v26.203  c-0.002,0.065-0.01,0.128-0.01,0.193c0,13.727-11.168,24.896-24.895,24.896c-13.728,0-24.896-11.169-24.896-24.896v-26.397  C220.611,324.968,228.409,326.249,236.908,326.8z M108.942,386.071l16.012,12.126c-2.833,3.784-5.352,7.902-7.532,12.364H97.943  C100.67,400.686,104.5,392.635,108.942,386.071z M135.231,387.164l-16.543-12.528c8.909-8.3,18.674-12.674,26.572-14.976v20.298  C141.673,382.083,138.332,384.49,135.231,387.164z M93.565,446.307c0-7.539,0.481-14.426,1.346-20.745h27.346  c3.025,0,5.754-1.817,6.92-4.608c5.684-13.601,14.764-23.654,26.988-29.881c2.513-1.28,4.096-3.862,4.096-6.683v-27.278  c0.286-0.008,0.498-0.011,0.605-0.011h28.184l-4.27,24.463c-0.529,3.034,0.85,6.082,3.477,7.689l13.591,8.307l7.82,9.03  c1.449,1.673,3.53,2.59,5.67,2.59c0.776,0,1.561-0.121,2.324-0.37l10.391-3.388l-14.405,54.636  c-0.143,0.54-0.218,1.081-0.239,1.616H93.565V446.307z"></path>	<circle cx="185.1" cy="179.004" r="8.952"></circle>	<circle cx="291.573" cy="179.004" r="8.951"></circle>	<path d="M236.403,231.732h3.869c9.925,0,18-8.075,18-18v-26.216c0-4.142-3.357-7.5-7.5-7.5c-4.143,0-7.5,3.358-7.5,7.5v26.216  c0,1.654-1.346,3-3,3h-3.869c-1.654,0-3-1.346-3-3c0-4.142-3.357-7.5-7.5-7.5c-4.143,0-7.5,3.358-7.5,7.5  C218.403,223.657,226.478,231.732,236.403,231.732z"></path>	<path d="M239.098,82.768c14.706,0,26.671-11.965,26.671-26.672c0-4.142-3.357-7.5-7.5-7.5c-4.143,0-7.5,3.358-7.5,7.5  c0,3.581-1.624,6.788-4.171,8.931V48.149c4.121-0.024,7.456-3.372,7.456-7.499c0-4.142-3.358-7.5-7.5-7.5h-2.897  c0.554-0.852,0.879-1.866,0.879-2.958c0-3.001-2.436-5.435-5.438-5.435c-3.001,0-5.438,2.434-5.438,5.435  c0,1.092,0.325,2.106,0.879,2.958h-2.897c-4.143,0-7.5,3.358-7.5,7.5c0,4.127,3.334,7.474,7.456,7.498v16.877  c-2.547-2.143-4.171-5.35-4.171-8.931c0-4.142-3.357-7.5-7.5-7.5c-4.143,0-7.5,3.358-7.5,7.5  C212.427,70.802,224.392,82.768,239.098,82.768z"></path>	<path d="M284.831,261.738c2.601-3.225,2.095-7.946-1.13-10.546c-3.225-2.601-7.947-2.095-10.546,1.129  c-0.08,0.1-9.089,9.939-32.971,9.939c-24.809,0-36.903-10.295-37.494-10.812c-3.062-2.75-7.774-2.52-10.552,0.528  c-2.791,3.061-2.572,7.805,0.489,10.595c0.657,0.6,16.467,14.689,47.557,14.689C271.41,277.26,283.55,263.327,284.831,261.738z"></path></g><g></g><g></g><g></g><g></g><g></g><g></g><g></g><g></g><g></g><g></g><g></g><g></g><g></g><g></g><g></g></svg>