<svg xmlns="http://www.w3.org/2000/svg" xmlns:xlink="http://www.w3.org/1999/xlink" id="Capa_1" x="0px" y="0px" viewBox="0 0 383.73 383.73" style="enable-background:new 0 0 383.73 383.73;" xml:space="preserve"><g>	<path d="M366.62,174.755h-55.709c-2.918-20.397-10.966-39.162-22.802-54.933l39.429-39.429c3.231-3.232,5.011-7.529,5.011-12.098  c0-4.569-1.779-8.866-5.012-12.099c-6.671-6.672-17.527-6.67-24.196,0l-39.428,39.428c-15.774-11.839-34.542-19.888-54.944-22.805  V17.105c0-4.591-1.784-8.889-5-12.077c-3.212-3.239-7.51-5.023-12.1-5.023c-9.435,0-17.11,7.671-17.11,17.1V72.82  c-20.401,2.918-39.169,10.968-54.942,22.807l-39.429-39.43c-3.231-3.232-7.526-5.012-12.094-5.012  c-4.566,0-8.861,1.78-12.093,5.012c-6.672,6.671-6.672,17.526,0,24.197l39.425,39.425c-11.837,15.772-19.886,34.538-22.805,54.937  H17.11c-9.435,0-17.11,7.675-17.11,17.11c0,9.435,7.676,17.11,17.11,17.11h55.712c2.918,20.399,10.967,39.165,22.805,54.937  l-39.425,39.425c-3.232,3.231-5.012,7.528-5.012,12.098c0,4.57,1.779,8.867,5.012,12.099c3.231,3.232,7.526,5.012,12.093,5.012  c4.567,0,8.862-1.78,12.093-5.012l39.431-39.43c15.773,11.838,34.541,19.889,54.941,22.807v55.715c0,9.429,7.676,17.1,17.11,17.1  c9.429,0,17.1-7.671,17.1-17.1v-55.715c20.402-2.918,39.169-10.967,54.943-22.805l39.429,39.428  c3.233,3.232,7.529,5.012,12.099,5.012c4.57,0,8.866-1.78,12.098-5.012c3.232-3.231,5.012-7.528,5.012-12.098  c0-4.57-1.779-8.867-5.012-12.099l-39.429-39.429c11.836-15.771,19.884-34.536,22.802-54.933h55.709  c4.569,0,8.866-1.78,12.098-5.011c3.232-3.232,5.013-7.529,5.013-12.099C383.73,182.431,376.055,174.755,366.62,174.755z   M308.998,61.854c3.552-3.552,9.331-3.552,12.883,0c1.722,1.721,2.669,4.009,2.669,6.442c0,2.433-0.947,4.721-2.668,6.441  l-38.815,38.815c-3.965-4.611-8.272-8.919-12.883-12.884L308.998,61.854z M182.76,17.105c0-5.018,4.087-9.1,9.11-9.1  c2.44,0,4.721,0.943,6.443,2.68c1.713,1.699,2.656,3.978,2.656,6.42v54.835c-3.005-0.226-6.041-0.343-9.103-0.343  c-3.064,0-6.101,0.117-9.107,0.343V17.105z M61.858,74.737c-1.721-1.721-2.668-4.008-2.668-6.441c0-2.433,0.947-4.721,2.668-6.441  c1.721-1.721,4.007-2.669,6.437-2.669c2.43,0,4.716,0.948,6.437,2.669l38.817,38.817c-4.609,3.964-8.914,8.269-12.878,12.878  L61.858,74.737z M17.11,200.975c-5.023,0-9.11-4.086-9.11-9.11c0-5.023,4.087-9.11,9.11-9.11h54.833  c-0.227,3.008-0.343,6.045-0.343,9.11c0,3.064,0.117,6.102,0.343,9.11H17.11z M74.73,321.877c-1.72,1.721-4.006,2.668-6.436,2.668  c-2.43,0-4.716-0.948-6.437-2.669c-1.721-1.721-2.668-4.008-2.668-6.441c0-2.433,0.947-4.72,2.668-6.441l38.812-38.812  c3.964,4.609,8.269,8.914,12.878,12.878L74.73,321.877z M200.97,366.625c0,5.018-4.082,9.1-9.1,9.1c-5.023,0-9.11-4.082-9.11-9.1  V311.79c3.007,0.226,6.044,0.343,9.107,0.343c3.062,0,6.097-0.117,9.103-0.343V366.625z M321.882,308.994  c1.721,1.721,2.668,4.008,2.668,6.441c0,2.433-0.947,4.72-2.669,6.441c-1.72,1.721-4.008,2.668-6.44,2.668  c-2.433,0-4.721-0.948-6.442-2.669l-38.815-38.814c4.611-3.965,8.918-8.272,12.883-12.884L321.882,308.994z M191.867,304.132  c-61.904,0-112.268-50.363-112.268-112.267S129.963,79.598,191.867,79.598s112.267,50.363,112.267,112.267  S253.771,304.132,191.867,304.132z M373.062,198.307c-1.721,1.721-4.009,2.668-6.441,2.668h-54.83  c0.227-3.007,0.343-6.045,0.343-9.11c0-3.064-0.117-6.102-0.343-9.11h54.83c5.023,0,9.11,4.086,9.11,9.11  C375.73,194.298,374.782,196.585,373.062,198.307z"></path>	<path d="M191.867,104.943c-47.93,0-86.923,38.993-86.923,86.922s38.993,86.922,86.923,86.922c47.929,0,86.922-38.993,86.922-86.922  S239.796,104.943,191.867,104.943z M253.705,142.914l-28.59,28.59c-3.221-5.24-7.644-9.663-12.883-12.884l28.59-28.59  C245.595,133.817,249.919,138.141,253.705,142.914z M270.789,191.865c0,3.083-0.197,6.118-0.542,9.11h-40.465  c0.703-2.925,1.085-5.973,1.085-9.11c0-3.137-0.382-6.185-1.085-9.11h40.465C270.592,185.747,270.789,188.783,270.789,191.865z   M191.867,222.865c-17.094,0-31-13.907-31-31c0-17.093,13.906-31,31-31c17.094,0,31,13.907,31,31  C222.867,208.958,208.961,222.865,191.867,222.865z M112.944,191.865c0-3.083,0.197-6.118,0.542-9.11h40.466  c-0.703,2.925-1.085,5.973-1.085,9.11c0,3.137,0.382,6.185,1.085,9.11h-40.466C113.141,197.984,112.944,194.948,112.944,191.865z   M114.834,174.755c2.021-9.103,5.616-17.614,10.488-25.241l25.242,25.241H114.834z M150.564,208.975l-25.242,25.242  c-4.872-7.628-8.468-16.139-10.488-25.242H150.564z M268.9,208.975c-2.02,9.101-5.615,17.611-10.485,25.237l-25.237-25.237H268.9z   M233.177,174.755l25.238-25.237c4.87,7.626,8.465,16.136,10.485,25.237H233.177z M208.97,150.569v-35.738  c9.105,2.02,17.619,5.617,25.249,10.49L208.97,150.569z M200.97,113.484v40.464c-2.922-0.702-5.968-1.084-9.103-1.084  c-3.136,0-6.184,0.382-9.107,1.085v-40.465c2.991-0.346,6.026-0.542,9.107-0.542C194.947,112.943,197.981,113.139,200.97,113.484z   M174.76,150.568l-25.246-25.246c7.629-4.873,16.141-8.469,25.246-10.49V150.568z M142.91,130.031l28.59,28.59  c-5.237,3.221-9.658,7.642-12.878,12.879l-28.591-28.59C133.817,138.139,138.138,133.817,142.91,130.031z M130.031,240.821  l28.591-28.59c3.22,5.237,7.641,9.659,12.878,12.879l-28.59,28.59C138.139,249.914,133.817,245.592,130.031,240.821z   M174.76,233.163v35.736c-9.105-2.021-17.618-5.617-25.246-10.49L174.76,233.163z M182.76,270.246v-40.465  c2.924,0.702,5.971,1.085,9.107,1.085c3.134,0,6.18-0.382,9.103-1.083v40.464c-2.989,0.345-6.023,0.542-9.103,0.542  C188.786,270.788,185.751,270.591,182.76,270.246z M208.97,233.162l25.249,25.248c-7.629,4.873-16.143,8.47-25.249,10.49V233.162z   M240.822,253.7l-28.59-28.59c5.239-3.221,9.662-7.645,12.883-12.884l28.591,28.591C249.919,245.59,245.595,249.914,240.822,253.7z  "></path></g><g></g><g></g><g></g><g></g><g></g><g></g><g></g><g></g><g></g><g></g><g></g><g></g><g></g><g></g><g></g></svg>