<svg xmlns="http://www.w3.org/2000/svg" xmlns:xlink="http://www.w3.org/1999/xlink" width="500" zoomAndPan="magnify" viewBox="0 0 375 374.999991" height="500" preserveAspectRatio="xMidYMid meet"><defs><clipPath id="62ed26d54b"><path d="M 83.019531 72.457031 L 327.519531 72.457031 L 327.519531 302.707031 L 83.019531 302.707031 Z M 83.019531 72.457031 " clip-rule="nonzero"></path></clipPath><clipPath id="dd43b38807"><path d="M 37.5 182 L 198 182 L 198 286 L 37.5 286 Z M 37.5 182 " clip-rule="nonzero"></path></clipPath></defs><g clip-path="url(#62ed26d54b)"><path fill="#bfa888" d="M 563.09375 338.753906 C 560.941406 338.753906 558.609375 338.683594 556.335938 338.550781 C 547.453125 338.03125 537.792969 336.640625 525.941406 334.175781 C 525.566406 334.097656 525.191406 334.023438 524.816406 333.945312 C 522.652344 333.5 520.414062 333.039062 518.238281 332.433594 C 514.019531 331.265625 510.976562 330.304688 508.933594 329.496094 C 506.171875 328.402344 504.957031 327.753906 505.074219 326.800781 C 505.175781 325.984375 506.167969 325.554688 508.734375 325.210938 C 510.03125 325.039062 511.355469 324.820312 512.632812 324.613281 C 513.640625 324.445312 514.683594 324.273438 515.707031 324.125 L 516.277344 324.042969 C 518.691406 323.695312 521.1875 323.335938 523.605469 322.839844 C 525.15625 322.519531 526.761719 322.191406 528.402344 322.179688 C 530.128906 322.171875 531.820312 322.507812 533.460938 322.839844 C 533.710938 322.886719 533.960938 322.9375 534.210938 322.988281 C 536.921875 323.515625 539.691406 323.90625 542.441406 324.140625 C 543.65625 324.246094 544.984375 324.320312 546.222656 324.09375 C 542.359375 323.238281 538.539062 322.105469 534.84375 320.710938 C 530.664062 319.132812 527.449219 318.3125 523.386719 318.800781 C 508.8125 320.546875 493.867188 318.695312 480.160156 313.4375 C 479.085938 313.027344 478 312.585938 476.945312 312.160156 C 475.964844 311.765625 474.972656 311.363281 473.976562 310.980469 C 470.238281 311.554688 466.511719 312.203125 462.820312 312.925781 C 461.625 313.160156 460.402344 313.40625 459.222656 313.644531 C 449.761719 315.550781 439.980469 317.523438 430.394531 315.796875 C 430.128906 315.75 429.929688 315.519531 429.917969 315.246094 C 429.910156 314.976562 430.089844 314.734375 430.355469 314.664062 C 433.8125 313.785156 437.199219 312.800781 440.472656 311.847656 C 443.757812 310.894531 447.152344 309.90625 450.628906 309.023438 C 454.65625 307.996094 458.824219 306.9375 463.109375 307.121094 C 466.921875 307.285156 470.566406 308.433594 474.105469 309.789062 C 479.136719 309.019531 484.195312 308.386719 489.230469 307.898438 C 492.140625 307.613281 495.265625 307.355469 498.386719 307.371094 C 503.546875 307.402344 508.773438 308.191406 513.824219 308.953125 C 520.476562 309.957031 527.316406 310.988281 533.984375 310.253906 C 532.636719 310.054688 531.292969 309.882812 530.007812 309.796875 C 524.402344 309.429688 518.9375 308.421875 513.765625 306.796875 C 512.472656 306.398438 511.152344 305.871094 509.875 305.359375 C 507.207031 304.292969 504.445312 303.191406 501.6875 303.144531 C 499.472656 303.101562 497.359375 303.816406 495.128906 304.570312 C 494.460938 304.796875 493.773438 305.027344 493.089844 305.234375 C 489.105469 306.441406 484.984375 306.894531 480.835938 306.578125 C 479.550781 306.480469 477.972656 306.207031 477.179688 304.929688 C 477.078125 304.761719 477.066406 304.550781 477.152344 304.375 C 477.238281 304.195312 477.40625 304.074219 477.605469 304.050781 C 484.484375 303.226562 491.328125 301.019531 497.394531 297.667969 L 497.671875 297.511719 C 500.65625 295.859375 503.742188 294.152344 507.222656 294.144531 C 509.648438 294.140625 511.714844 294.15625 513.539062 294.167969 C 519.496094 294.214844 522.777344 294.238281 527.339844 293.476562 C 522.703125 292.632812 516.9375 291.476562 511.011719 289.800781 C 505.570312 288.261719 501.339844 289.042969 496.859375 289.871094 C 493.238281 290.542969 489.496094 291.234375 484.6875 290.921875 C 482.875 290.804688 481.199219 290.269531 479.703125 289.347656 C 473.890625 290.515625 469.382812 290.523438 464.277344 289.484375 C 451.445312 286.875 444.898438 288.5 437.964844 290.222656 C 434.929688 290.976562 431.789062 291.757812 428.039062 292.195312 C 424.382812 292.621094 419.238281 291.691406 417.195312 291.269531 C 415.679688 290.957031 410.675781 289.855469 410.039062 288.828125 C 409.886719 288.578125 409.886719 288.292969 410.042969 288.0625 C 410.28125 287.695312 410.769531 287.519531 412.664062 287.621094 C 414.125 287.699219 416.253906 287.945312 418.992188 288.347656 C 422.246094 288.828125 425.304688 288.492188 426.835938 288.246094 C 428.679688 287.953125 429.847656 287.574219 430.433594 287.296875 C 430.285156 287.273438 430.09375 287.246094 429.851562 287.226562 C 425.054688 286.816406 422.277344 285.824219 418.761719 284.566406 C 417.765625 284.210938 416.746094 283.847656 415.617188 283.472656 C 411.28125 284.214844 406.910156 285.273438 402.566406 286.632812 C 402.070312 286.789062 401.5625 286.949219 401.058594 287.117188 C 393.632812 289.5625 385.375 288.210938 379.757812 286.640625 C 378.378906 286.257812 377.605469 286.007812 377.679688 285.332031 C 377.75 284.699219 378.535156 284.625 379.226562 284.558594 C 379.886719 284.496094 380.796875 284.453125 381.953125 284.394531 C 385.1875 284.238281 390.078125 284.003906 394.867188 283.058594 C 396.574219 282.71875 398.113281 282.371094 399.472656 282.0625 C 404.820312 280.855469 408.347656 280.054688 413.765625 281.671875 C 414.449219 281.875 415.09375 282.082031 415.707031 282.28125 C 417.730469 281.941406 419.75 281.667969 421.753906 281.464844 C 424.769531 281.160156 428.03125 280.941406 431.445312 281.402344 C 432.675781 281.570312 433.914062 281.789062 435.109375 282.003906 C 437.082031 282.359375 439.121094 282.722656 441.140625 282.839844 C 444.714844 283.050781 446.835938 283.007812 447.96875 282.898438 C 447.308594 282.710938 446.21875 282.460938 444.445312 282.179688 C 443.925781 282.09375 443.40625 282.015625 442.886719 281.933594 C 441.6875 281.746094 440.441406 281.554688 439.222656 281.335938 C 434.898438 280.570312 434.496094 279.925781 434.320312 279.652344 C 434.1875 279.4375 434.152344 279.195312 434.21875 278.964844 C 434.410156 278.28125 435.382812 278.070312 439.171875 277.890625 L 439.25 277.886719 C 441.28125 277.792969 443.316406 277.699219 445.351562 277.609375 C 453.003906 277.265625 460.917969 276.914062 468.675781 276.265625 C 469.574219 276.191406 470.542969 276.109375 471.496094 275.921875 L 395.734375 275.921875 C 388.164062 275.921875 381.941406 275.738281 377.160156 275.367188 C 376.71875 277.480469 374.34375 280.71875 370.738281 281.667969 C 366.691406 282.734375 362.15625 282.214844 357.761719 281.703125 C 353.304688 283.542969 347.238281 284.613281 342.296875 284.246094 C 340.976562 284.148438 339.832031 283.804688 338.851562 283.324219 C 337.210938 283.707031 335.269531 284.125 332.851562 284.566406 C 332.167969 284.691406 331.722656 284.804688 331.433594 284.894531 C 332.320312 285.21875 334.132812 285.605469 335.316406 285.859375 C 335.796875 285.960938 336.277344 286.0625 336.734375 286.167969 C 339.09375 286.695312 342.335938 287.324219 346.046875 287.976562 C 347.171875 287.804688 348.863281 287.6875 351.351562 287.53125 C 354.039062 287.359375 357.082031 287.164062 359.824219 286.78125 C 364.0625 286.1875 367.015625 287.171875 370.753906 288.414062 C 372.082031 288.855469 373.589844 289.355469 375.292969 289.832031 C 377.4375 290.429688 379.050781 290.933594 380.082031 291.332031 C 381.085938 291.722656 381.976562 292.132812 381.796875 292.851562 C 381.644531 293.449219 380.941406 293.566406 379.6875 293.570312 C 378.753906 293.578125 377.410156 293.503906 375.691406 293.355469 C 372.5625 293.082031 368.199219 292.558594 363.070312 291.835938 C 357.3125 291.027344 351.238281 290.066406 346.039062 289.152344 C 345.890625 289.175781 345.753906 289.199219 345.632812 289.226562 C 346.03125 289.417969 346.761719 289.707031 348.105469 290.113281 C 355.605469 292.390625 367.113281 295.105469 384.320312 298.664062 C 388.492188 299.527344 391.433594 300.164062 393.3125 300.617188 C 394.195312 300.828125 394.832031 300.996094 395.253906 301.128906 C 395.691406 301.265625 396.296875 301.453125 396.210938 302.023438 C 396.109375 302.671875 395.417969 302.621094 394.160156 302.53125 C 393.292969 302.464844 392.152344 302.355469 390.941406 302.234375 C 388.960938 302.039062 386.914062 301.835938 385.910156 301.835938 C 382.699219 301.835938 376.984375 301.015625 368.433594 299.328125 C 362.71875 298.203125 360.683594 299.039062 355.773438 301.054688 C 354.847656 301.433594 353.800781 301.863281 352.625 302.324219 C 350 303.347656 346.375 303.960938 343.726562 304.40625 C 343.011719 304.527344 342.246094 304.65625 341.617188 304.777344 C 341.996094 304.847656 342.480469 304.933594 343.101562 305.023438 C 345.636719 305.40625 348.238281 305.664062 350.75 305.910156 C 352.015625 306.035156 353.320312 306.167969 354.601562 306.308594 C 355.550781 306.414062 356.53125 306.523438 357.472656 306.902344 C 357.695312 306.992188 357.949219 307.113281 358.136719 307.351562 C 358.476562 307.789062 358.585938 308.371094 358.417969 308.832031 C 358.277344 309.222656 357.957031 309.5 357.539062 309.585938 C 349.738281 311.242188 341.789062 311.445312 333.914062 310.1875 C 333.683594 310.148438 333.453125 310.109375 333.222656 310.074219 C 331.34375 309.761719 329.394531 309.441406 327.570312 309.8125 C 326.246094 310.078125 324.976562 310.714844 323.746094 311.332031 L 323.382812 311.511719 C 322.546875 311.929688 321.75 312.367188 320.976562 312.789062 C 319.917969 313.371094 318.898438 313.933594 317.792969 314.4375 C 320.007812 315.207031 322.25 315.972656 324.519531 316.675781 C 327.804688 316.289062 331.058594 315.675781 334.273438 314.835938 C 334.386719 314.804688 334.507812 314.8125 334.617188 314.851562 C 340.898438 317.140625 347.492188 317.726562 353.683594 318.015625 C 353.957031 318.027344 354.1875 318.234375 354.226562 318.507812 C 354.269531 318.78125 354.109375 319.042969 353.851562 319.136719 C 348.289062 321.140625 341.796875 321.542969 334.558594 320.339844 C 331.117188 319.765625 327.734375 318.878906 324.410156 317.855469 C 320.683594 318.277344 316.925781 318.414062 313.164062 318.257812 C 311.511719 318.191406 309.828125 318.0625 308.199219 317.941406 C 303.539062 317.589844 298.71875 317.230469 294.140625 318.207031 C 292.957031 318.457031 291.765625 318.804688 290.613281 319.140625 C 289.300781 319.523438 287.945312 319.917969 286.566406 320.1875 C 283.078125 320.863281 279.511719 320.714844 276.0625 320.570312 C 272.324219 320.414062 267.667969 320.222656 264 317.933594 C 263.796875 317.808594 263.691406 317.574219 263.734375 317.339844 C 263.777344 317.109375 263.953125 316.925781 264.1875 316.875 C 271.875 315.265625 279.695312 313.660156 287.257812 312.105469 C 289.546875 311.636719 291.910156 311.152344 294.324219 311.25 C 295.550781 311.304688 296.765625 311.507812 297.9375 311.703125 C 298.667969 311.828125 299.421875 311.953125 300.160156 312.039062 C 303.785156 312.464844 307.195312 311.683594 309.882812 310.675781 C 304.882812 310.367188 299.96875 309.480469 295.191406 308.035156 C 290.046875 309.171875 284.835938 310.003906 279.597656 310.515625 C 269.523438 311.507812 261.660156 310.695312 254.855469 307.960938 C 254.605469 307.863281 254.460938 307.605469 254.496094 307.339844 C 254.535156 307.074219 254.753906 306.871094 255.019531 306.847656 L 285.039062 304.109375 C 285.742188 304.046875 286.46875 303.980469 287.210938 304.074219 C 288.105469 304.1875 288.921875 304.523438 289.710938 304.847656 L 289.867188 304.914062 C 291.632812 305.636719 293.425781 306.277344 295.238281 306.835938 C 298.953125 306.007812 302.632812 305.015625 306.257812 303.863281 L 306.640625 303.742188 C 308.554688 303.132812 310.535156 302.503906 312.601562 302.484375 C 313.742188 302.476562 314.871094 302.652344 315.957031 302.828125 C 316.296875 302.878906 316.648438 302.9375 316.988281 302.984375 C 320.402344 303.46875 323.917969 303.351562 327.433594 302.632812 C 332.582031 301.582031 336.042969 300.835938 338.347656 300.304688 C 331.136719 300.847656 323.75 299.984375 316.878906 298.738281 C 311.679688 300.496094 304.078125 299.304688 296.15625 298.066406 C 287.371094 296.6875 281.578125 297.714844 273.558594 299.136719 C 271.191406 299.554688 268.511719 300.03125 265.523438 300.484375 C 252.460938 302.464844 243.097656 303.53125 232.371094 300.46875 C 231.710938 300.28125 231.070312 300.09375 230.445312 299.914062 C 221.144531 297.234375 215.53125 295.613281 202.910156 297.796875 C 198.246094 298.601562 193.992188 299.105469 189.703125 299.105469 C 181.507812 299.105469 173.179688 297.273438 161.609375 292.214844 C 152.507812 288.238281 143.121094 287.117188 136.140625 286.964844 C 134.324219 287.535156 132.539062 288.132812 130.796875 288.714844 C 125.246094 290.574219 120.445312 292.179688 116.449219 292.179688 C 116.410156 292.179688 116.375 292.179688 116.335938 292.179688 C 113.183594 292.15625 112.546875 291.574219 112.347656 291.074219 C 112.253906 290.839844 112.175781 290.367188 112.722656 289.839844 C 114.320312 288.292969 121.582031 286.339844 130.53125 285.886719 C 132.199219 285.800781 134.042969 285.757812 136.019531 285.792969 C 144.015625 283.324219 153.164062 281.3125 162.238281 283.652344 C 171.929688 286.152344 177.722656 283.972656 183.324219 281.863281 C 188.234375 280.019531 193.308594 278.109375 200.742188 279.613281 C 214.003906 282.300781 227.4375 279.65625 230.332031 277.320312 C 230.6875 277.03125 230.707031 276.878906 230.707031 276.875 C 230.703125 276.871094 230.253906 275.921875 224.554688 275.921875 L 83.65625 275.921875 C 83.335938 275.921875 83.078125 275.660156 83.078125 275.339844 C 83.078125 275.019531 83.335938 274.761719 83.65625 274.761719 L 224.554688 274.761719 C 230.960938 274.761719 231.554688 275.96875 231.746094 276.363281 C 231.871094 276.617188 232.011719 277.132812 231.539062 277.746094 C 230.421875 279.195312 226.160156 280.617188 220.691406 281.371094 C 214.113281 282.273438 206.949219 282.054688 200.511719 280.75 C 193.410156 279.308594 188.710938 281.078125 183.734375 282.949219 C 177.964844 285.121094 172 287.363281 161.949219 284.773438 C 154.28125 282.796875 146.714844 283.96875 139.613281 285.9375 C 146.386719 286.363281 154.300781 287.753906 162.074219 291.152344 C 179.433594 298.738281 189.378906 298.957031 202.714844 296.652344 C 215.597656 294.425781 221.308594 296.074219 230.769531 298.800781 C 231.390625 298.980469 232.03125 299.164062 232.691406 299.355469 C 243.191406 302.355469 252.441406 301.296875 265.351562 299.335938 C 268.324219 298.886719 270.996094 298.414062 273.355469 297.996094 C 281.484375 296.554688 287.359375 295.511719 296.335938 296.917969 C 303.78125 298.085938 309.761719 298.875 314.132812 298.21875 C 311.15625 297.628906 308.292969 296.988281 305.609375 296.390625 C 293.625 293.714844 287.375 293.128906 276.175781 295.164062 C 263.621094 297.445312 250.414062 299.625 239.121094 299.039062 C 227.035156 298.410156 217.695312 292.660156 214.742188 284.035156 C 214.6875 283.871094 214.707031 283.691406 214.800781 283.542969 C 214.890625 283.394531 215.046875 283.296875 215.21875 283.273438 C 221.304688 282.480469 227.695312 281.476562 234.460938 280.414062 C 244.613281 278.820312 256.117188 277.015625 268.492188 275.660156 C 271.316406 275.347656 274.179688 275.175781 277.019531 275.105469 L 276.9375 274.878906 C 275.933594 272.070312 274.503906 267.351562 274.027344 265.769531 C 272.070312 266.261719 264.957031 267.957031 254.269531 269.4375 C 242.652344 271.050781 224.300781 272.734375 202.859375 271.613281 C 202.558594 271.597656 202.320312 271.355469 202.308594 271.050781 C 202.300781 270.808594 201.570312 246.359375 205.980469 209.878906 C 208.566406 188.457031 212.394531 167.132812 217.355469 146.496094 C 223.554688 120.703125 231.550781 95.921875 241.121094 72.839844 C 241.222656 72.597656 241.476562 72.453125 241.734375 72.488281 C 241.996094 72.523438 242.199219 72.730469 242.234375 72.988281 C 242.273438 73.308594 246.019531 103.308594 251.367188 139.652344 C 251.664062 135.640625 252.023438 131.558594 252.4375 127.414062 C 252.464844 127.136719 252.6875 126.921875 252.960938 126.894531 C 253.238281 126.871094 253.496094 127.046875 253.570312 127.3125 C 253.640625 127.554688 260.636719 151.90625 271.253906 182.578125 C 281.054688 210.875 296.027344 250.492188 311.726562 278.527344 C 311.839844 278.726562 311.824219 278.972656 311.6875 279.15625 C 311.550781 279.339844 311.320312 279.425781 311.097656 279.378906 C 310.914062 279.335938 295.457031 276.042969 278.675781 276.234375 C 279.539062 278.300781 280.488281 278.753906 285.347656 278.996094 C 309.757812 280.195312 326.027344 285.921875 326.191406 285.980469 C 326.480469 286.082031 326.636719 286.394531 326.550781 286.6875 C 326.511719 286.832031 325.46875 290.332031 321.417969 295.617188 C 320.691406 296.566406 319.804688 297.316406 318.78125 297.894531 C 325.433594 299.019531 332.488281 299.707031 339.316406 299.058594 C 340.539062 298.941406 341.46875 298.875 342.078125 298.863281 C 342.726562 298.847656 343.453125 298.828125 343.546875 299.457031 C 343.644531 300.097656 342.914062 300.3125 341.992188 300.582031 C 341.253906 300.796875 340.152344 301.074219 338.71875 301.410156 C 336.210938 301.992188 332.597656 302.761719 327.667969 303.769531 C 324.019531 304.511719 320.375 304.636719 316.828125 304.132812 C 316.476562 304.082031 316.121094 304.027344 315.777344 303.972656 C 314.6875 303.796875 313.652344 303.632812 312.613281 303.644531 C 310.71875 303.660156 308.824219 304.261719 306.996094 304.847656 L 306.609375 304.96875 C 303.617188 305.917969 300.585938 306.761719 297.527344 307.496094 C 302.390625 308.792969 307.386719 309.507812 312.460938 309.625 C 312.730469 309.628906 312.957031 309.820312 313.015625 310.082031 C 313.070312 310.34375 312.941406 310.609375 312.703125 310.726562 C 308.40625 312.804688 304.023438 313.65625 300.027344 313.191406 C 299.257812 313.101562 298.488281 312.972656 297.746094 312.847656 C 296.605469 312.65625 295.429688 312.457031 294.277344 312.40625 C 292.007812 312.3125 289.710938 312.785156 287.492188 313.238281 C 280.441406 314.6875 273.164062 316.183594 265.980469 317.683594 C 269.128906 319.121094 272.8125 319.273438 276.113281 319.410156 C 279.496094 319.550781 282.992188 319.699219 286.347656 319.046875 C 287.671875 318.789062 289.003906 318.402344 290.292969 318.027344 C 291.460938 317.683594 292.675781 317.332031 293.898438 317.070312 C 298.640625 316.058594 303.542969 316.429688 308.285156 316.785156 C 309.90625 316.90625 311.578125 317.03125 313.214844 317.097656 C 316.015625 317.214844 318.816406 317.167969 321.605469 316.953125 C 319.710938 316.332031 317.835938 315.679688 315.980469 315.03125 C 315.753906 314.953125 315.597656 314.738281 315.59375 314.492188 C 315.589844 314.25 315.738281 314.03125 315.96875 313.945312 C 317.582031 313.332031 318.960938 312.574219 320.421875 311.773438 C 321.199219 311.34375 322.007812 310.902344 322.867188 310.472656 L 323.226562 310.292969 C 324.523438 309.644531 325.867188 308.972656 327.339844 308.671875 C 329.375 308.261719 331.425781 308.601562 333.414062 308.929688 C 333.640625 308.964844 333.867188 309.003906 334.09375 309.039062 C 341.832031 310.277344 349.636719 310.078125 357.296875 308.453125 C 357.316406 308.449219 357.324219 308.441406 357.328125 308.441406 C 357.347656 308.414062 357.359375 308.238281 357.222656 308.066406 C 357.214844 308.054688 357.175781 308.027344 357.042969 307.976562 C 356.25 307.65625 355.347656 307.554688 354.476562 307.457031 C 353.199219 307.316406 351.898438 307.1875 350.636719 307.0625 C 348.109375 306.8125 345.492188 306.554688 342.929688 306.167969 C 339.980469 305.726562 339.300781 305.464844 339.292969 304.78125 C 339.289062 304.105469 340.132812 303.914062 340.808594 303.761719 C 341.492188 303.605469 342.441406 303.445312 343.535156 303.261719 C 346.132812 302.824219 349.6875 302.222656 352.203125 301.242188 C 353.371094 300.789062 354.414062 300.359375 355.332031 299.980469 C 360.324219 297.933594 362.601562 296.996094 368.660156 298.191406 C 377.132812 299.863281 382.777344 300.675781 385.910156 300.675781 C 386.675781 300.675781 387.96875 300.78125 389.386719 300.917969 C 387.964844 300.609375 386.222656 300.238281 384.085938 299.796875 C 366.84375 296.234375 355.300781 293.507812 347.769531 291.222656 C 344.886719 290.347656 343.992188 289.820312 344.078125 289.050781 C 344.089844 288.964844 344.109375 288.886719 344.144531 288.8125 C 341.117188 288.261719 338.476562 287.742188 336.480469 287.296875 C 336.027344 287.195312 335.550781 287.09375 335.074219 286.992188 C 331.125 286.144531 329.851562 285.792969 329.867188 284.855469 C 329.875 284.171875 330.605469 283.796875 332.644531 283.425781 C 334.488281 283.089844 336.054688 282.765625 337.417969 282.460938 C 335.039062 280.738281 333.980469 278.386719 333.914062 278.234375 C 333.847656 278.078125 333.851562 277.898438 333.929688 277.742188 C 334.007812 277.589844 334.148438 277.476562 334.316406 277.4375 C 339.476562 276.253906 346.328125 272.894531 346.398438 272.863281 C 346.492188 272.816406 346.597656 272.796875 346.703125 272.804688 C 353.253906 273.339844 359.378906 273.695312 364.355469 273.933594 C 364.980469 271.78125 364.667969 269.613281 364.121094 267.859375 C 364.0625 267.667969 363.976562 267.394531 363.863281 267.039062 C 361.113281 258.304688 356.210938 241.953125 351.433594 222.144531 C 352.65625 230.042969 354.144531 237.445312 355.496094 243.527344 C 358.644531 257.671875 361.78125 267.90625 361.8125 268.007812 C 361.867188 268.1875 361.832031 268.386719 361.710938 268.535156 C 361.59375 268.683594 361.410156 268.765625 361.222656 268.757812 C 344.503906 267.765625 330.195312 271.472656 330.054688 271.511719 C 329.878906 271.554688 329.695312 271.519531 329.554688 271.410156 C 329.414062 271.304688 329.328125 271.136719 329.324219 270.957031 C 328.984375 243.464844 332.175781 216.660156 334.914062 199.019531 C 337.882812 179.902344 340.972656 167.109375 341.003906 166.984375 C 341.070312 166.710938 341.320312 166.527344 341.597656 166.542969 C 341.878906 166.558594 342.105469 166.769531 342.140625 167.046875 C 343.644531 178.625 345.683594 190.21875 347.953125 201.269531 C 347.8125 198.925781 347.722656 196.597656 347.691406 194.308594 C 347.6875 194.023438 347.890625 193.777344 348.171875 193.730469 C 348.449219 193.679688 348.726562 193.839844 348.820312 194.109375 C 348.984375 194.574219 365.351562 241.023438 381.855469 268.035156 C 381.957031 268.203125 381.964844 268.414062 381.878906 268.59375 C 381.789062 268.769531 381.617188 268.890625 381.417969 268.914062 C 377.25 269.351562 373.667969 269.933594 371.058594 270.601562 C 367.699219 271.457031 367.242188 272.125 367.1875 272.230469 C 367.316406 272.46875 369.265625 274.761719 395.734375 274.761719 L 472.074219 274.761719 C 472.625 274.761719 472.953125 274.945312 473.21875 275.09375 C 473.394531 275.191406 473.535156 275.269531 473.757812 275.3125 C 474.011719 275.359375 474.203125 275.5625 474.230469 275.816406 C 474.257812 276.070312 474.117188 276.3125 473.882812 276.414062 C 472.195312 277.132812 470.296875 277.289062 468.773438 277.417969 C 460.992188 278.066406 453.066406 278.421875 445.402344 278.765625 C 443.371094 278.855469 441.335938 278.949219 439.304688 279.042969 L 439.226562 279.046875 C 437.644531 279.121094 436.515625 279.210938 435.847656 279.316406 C 436.386719 279.53125 437.429688 279.839844 439.425781 280.195312 C 440.632812 280.410156 441.871094 280.601562 443.066406 280.785156 C 443.585938 280.867188 444.105469 280.949219 444.625 281.03125 C 446.261719 281.292969 447.539062 281.558594 448.421875 281.820312 C 449.238281 282.0625 450.101562 282.382812 450.023438 283.09375 C 449.957031 283.734375 449.253906 283.996094 447.347656 284.105469 C 445.847656 284.1875 443.675781 284.148438 441.074219 283.996094 C 438.984375 283.871094 436.910156 283.5 434.90625 283.144531 C 433.722656 282.929688 432.496094 282.710938 431.289062 282.546875 C 427.992188 282.101562 424.816406 282.316406 421.871094 282.617188 C 420.605469 282.746094 419.335938 282.902344 418.0625 283.085938 C 418.4375 283.21875 418.800781 283.347656 419.152344 283.472656 C 422.585938 284.703125 425.300781 285.671875 429.953125 286.070312 C 431.132812 286.167969 431.722656 286.410156 431.925781 286.871094 C 432.050781 287.144531 432.003906 287.457031 431.804688 287.71875 C 430.855469 288.96875 424.394531 290.3125 418.824219 289.492188 C 415.320312 288.972656 413.351562 288.796875 412.246094 288.753906 C 413.40625 289.167969 415.296875 289.703125 417.664062 290.179688 C 421.769531 291.007812 425.503906 291.324219 427.902344 291.042969 C 431.578125 290.613281 434.683594 289.839844 437.683594 289.09375 C 444.746094 287.339844 451.417969 285.683594 464.507812 288.34375 C 469.132812 289.285156 473.261719 289.339844 478.40625 288.414062 C 477.601562 287.742188 476.863281 286.945312 476.199219 286.023438 C 474.597656 283.796875 474.003906 281.65625 473.980469 281.566406 C 473.9375 281.417969 473.960938 281.257812 474.039062 281.121094 C 474.117188 280.988281 474.246094 280.890625 474.398438 280.855469 C 484.65625 278.265625 498.984375 273.511719 499.128906 273.460938 C 499.230469 273.429688 499.335938 273.425781 499.4375 273.445312 C 499.644531 273.492188 520.121094 278.0625 540.886719 278.082031 C 543.722656 278.085938 545.894531 278.058594 547.5625 278.019531 C 547.535156 277.761719 547.503906 277.496094 547.46875 277.21875 C 543.761719 276.664062 538.164062 275.957031 530.714844 275.105469 C 526.109375 274.578125 523.132812 272.589844 519.882812 263.34375 C 519.371094 264.738281 518.65625 265.878906 517.730469 266.820312 C 515.269531 269.332031 511.164062 270.523438 504.414062 270.6875 C 498.085938 270.84375 489.457031 270.117188 478.53125 269.199219 C 475.957031 268.984375 473.292969 268.761719 470.460938 268.53125 C 470.183594 268.507812 469.960938 268.292969 469.929688 268.015625 C 469.914062 267.859375 468.199219 252.101562 468.863281 226.726562 C 469.253906 211.832031 470.375 196.578125 472.199219 181.394531 C 474.476562 162.417969 477.859375 143.492188 482.257812 125.144531 C 482.320312 124.886719 482.550781 124.703125 482.820312 124.703125 C 483.089844 124.703125 483.320312 124.886719 483.382812 125.148438 C 483.589844 126.023438 503.855469 211.339844 519.617188 258.933594 C 519.804688 256.804688 519.726562 254.242188 519.40625 251.15625 C 517.089844 228.820312 496.367188 172.167969 496.15625 171.597656 C 496.058594 171.328125 496.171875 171.023438 496.425781 170.886719 C 496.679688 170.75 496.996094 170.824219 497.167969 171.054688 C 512.796875 192.292969 527.667969 218.570312 537.964844 243.148438 C 542.425781 253.792969 545.710938 263.378906 547.460938 270.875 C 547.921875 272.832031 548.265625 274.613281 548.5 276.207031 C 549.988281 276.441406 551.121094 276.648438 551.9375 276.835938 C 553.085938 277.101562 553.898438 277.34375 553.859375 278.023438 C 553.820312 278.714844 553.113281 278.921875 550.269531 279.078125 C 549.832031 279.101562 549.347656 279.121094 548.820312 279.140625 C 549.015625 282.257812 548.613281 284.390625 547.617188 285.511719 C 545.527344 287.855469 542.164062 288.9375 536.367188 289.125 C 529.898438 289.335938 519.890625 288.410156 504.871094 286.207031 C 496.53125 284.980469 492.664062 286.019531 484.960938 288.085938 L 484.4375 288.226562 C 483.398438 288.503906 482.40625 288.75 481.449219 288.96875 C 482.472656 289.421875 483.578125 289.683594 484.761719 289.761719 C 489.429688 290.066406 493.097656 289.386719 496.648438 288.730469 C 501.265625 287.875 505.625 287.070312 511.328125 288.683594 C 518.546875 290.722656 525.542969 291.996094 530.527344 292.859375 C 531.464844 292.660156 532.472656 292.429688 533.566406 292.164062 C 535.535156 291.6875 537.230469 291.265625 538.722656 290.890625 C 547.605469 288.675781 549.203125 288.277344 556 289.632812 C 562.210938 290.875 567.546875 291.644531 572.460938 292 C 570.773438 291.617188 568.90625 291.140625 567.074219 290.554688 C 563.925781 289.554688 563.394531 289.140625 563.480469 288.476562 C 563.585938 287.648438 564.691406 287.585938 567.65625 287.417969 C 569.242188 287.328125 571.21875 287.21875 572.953125 286.945312 C 574.78125 286.65625 575.992188 286.367188 576.960938 286.132812 C 579.125 285.613281 580.113281 285.375 583.757812 286.136719 C 589.253906 287.285156 597.027344 287.988281 602.351562 286.507812 C 602.519531 286.460938 602.816406 286.378906 603.128906 286.285156 C 602.960938 286.246094 602.78125 286.207031 602.605469 286.167969 C 601.304688 285.878906 599.40625 285.457031 597.117188 284.714844 C 590.394531 284.359375 585.152344 283.226562 582.425781 281.964844 C 578.589844 280.191406 575.507812 276.195312 575.378906 276.027344 C 575.246094 275.851562 575.222656 275.617188 575.320312 275.417969 C 575.417969 275.222656 575.621094 275.097656 575.839844 275.097656 C 575.84375 275.097656 575.851562 275.097656 575.867188 275.097656 C 576.0625 275.097656 577.367188 275.09375 579.496094 275.039062 C 578.472656 274.015625 578.0625 273.164062 578.21875 272.410156 C 578.519531 270.9375 580.777344 270.785156 581.523438 270.734375 C 587.683594 270.3125 590.234375 269.84375 591.28125 269.550781 C 589 269.035156 581.664062 268.546875 568.957031 269.175781 C 568.652344 269.191406 568.394531 268.972656 568.355469 268.675781 C 568.328125 268.492188 565.839844 250.152344 564.710938 227.882812 C 564.046875 214.792969 563.972656 202.929688 564.496094 192.609375 C 565.148438 179.6875 566.742188 169.164062 569.234375 161.332031 C 569.320312 161.0625 569.589844 160.894531 569.867188 160.933594 C 570.144531 160.972656 570.355469 161.207031 570.363281 161.492188 C 570.371094 161.644531 570.835938 177.058594 574.433594 198.511719 C 576.515625 210.90625 579.933594 226.953125 585.453125 243.699219 C 581.207031 228.640625 576.019531 205.863281 571.796875 174 C 571.757812 173.710938 571.941406 173.441406 572.222656 173.363281 C 572.503906 173.292969 572.796875 173.4375 572.90625 173.710938 C 572.96875 173.859375 579.027344 188.878906 586.953125 206.007812 C 597.429688 228.648438 606.398438 244.675781 612.886719 252.355469 C 614.839844 254.667969 615.535156 256.828125 614.949219 258.777344 C 613.742188 262.792969 607.34375 265.167969 601.242188 266.960938 C 598.066406 267.894531 597.050781 268.96875 597.160156 269.667969 C 597.335938 270.808594 600.066406 272.203125 605.578125 272.9375 C 608.472656 272.527344 611.414062 272.042969 614.316406 271.46875 C 632.675781 267.832031 637.953125 267.808594 644.886719 268.605469 C 645.082031 268.628906 645.25 268.746094 645.339844 268.921875 C 645.425781 269.097656 645.421875 269.300781 645.324219 269.472656 C 645.253906 269.59375 643.765625 272.148438 640.96875 274.605469 C 643.859375 274.542969 650.292969 274.464844 659.355469 274.648438 C 663.582031 274.734375 666.507812 273.746094 669.3125 272.519531 C 666.621094 271.292969 665.144531 270.078125 665.050781 270 C 664.890625 269.867188 664.816406 269.660156 664.851562 269.453125 C 664.890625 269.25 665.035156 269.078125 665.230469 269.011719 C 665.289062 268.988281 671.28125 266.875 675.34375 265.117188 C 679.378906 263.371094 682.277344 263.441406 686.535156 264.207031 C 688.335938 264.53125 689.699219 264.695312 690.910156 264.789062 C 690.28125 263.917969 689.566406 262.828125 688.730469 261.460938 C 686.664062 261.332031 684.3125 261.078125 681.628906 260.65625 C 669.519531 258.753906 664.855469 260.996094 664.808594 261.015625 C 664.667969 261.085938 664.503906 261.097656 664.351562 261.042969 C 664.203125 260.992188 664.082031 260.878906 664.019531 260.734375 C 659.53125 250.605469 656.09375 237.214844 654.332031 223.03125 C 652.453125 207.898438 652.636719 193.4375 654.855469 181.207031 C 654.90625 180.941406 655.132812 180.742188 655.40625 180.734375 C 655.675781 180.726562 655.921875 180.90625 655.988281 181.171875 C 657.011719 185.273438 658.917969 191.109375 661.300781 197.71875 C 661.273438 196.546875 661.246094 195.351562 661.214844 194.128906 C 661.210938 193.855469 661.394531 193.613281 661.660156 193.550781 C 661.925781 193.488281 662.199219 193.617188 662.316406 193.863281 C 672.476562 215.070312 682.933594 231.4375 689.914062 241.429688 C 697.480469 252.261719 702.707031 258.152344 702.761719 258.210938 C 702.949219 258.421875 702.957031 258.738281 702.78125 258.957031 C 702.710938 259.042969 701.859375 260.042969 699.136719 260.78125 C 703.382812 262.523438 705.753906 263.65625 706.320312 265.359375 C 706.601562 266.21875 706.421875 267.136719 705.746094 268.25 C 705.273438 269.03125 705.183594 269.667969 705.472656 270.199219 C 706.886719 272.816406 716.574219 273.144531 720.707031 273.285156 C 722.269531 273.335938 723.386719 273.398438 724.125 273.46875 C 724.890625 273.542969 725.617188 273.613281 725.640625 274.238281 C 725.671875 274.894531 724.929688 275.007812 723.90625 275.164062 C 723.140625 275.285156 722.125 275.40625 721.050781 275.539062 C 720.390625 275.617188 719.601562 275.710938 718.855469 275.8125 C 724.382812 276.113281 733.207031 274.984375 739.824219 274.140625 C 741.738281 273.894531 743.394531 273.683594 744.757812 273.53125 C 750.855469 272.859375 757.585938 273.007812 765.945312 274 C 771.894531 274.703125 819.417969 274.761719 834.433594 274.761719 C 834.546875 274.761719 834.65625 274.761719 834.769531 274.761719 L 835.175781 274.761719 C 835.496094 274.761719 835.753906 275.019531 835.753906 275.339844 C 835.753906 275.660156 835.496094 275.917969 835.175781 275.917969 L 834.769531 275.917969 C 834.644531 275.917969 834.515625 275.917969 834.386719 275.917969 C 815.40625 275.917969 771.660156 275.84375 765.8125 275.148438 C 757.539062 274.171875 750.890625 274.023438 744.886719 274.683594 C 743.53125 274.832031 741.878906 275.042969 739.96875 275.289062 C 732.570312 276.234375 722.441406 277.53125 717.027344 276.808594 C 716.1875 276.695312 715.316406 276.582031 715.320312 275.886719 C 715.324219 275.257812 716 275.078125 717.429688 274.847656 C 718.296875 274.707031 719.398438 274.570312 720.5 274.4375 C 713.539062 274.199219 706.039062 273.679688 704.453125 270.75 C 703.957031 269.839844 704.058594 268.796875 704.753906 267.652344 C 705.394531 266.597656 705.324219 266.046875 705.21875 265.726562 C 704.753906 264.324219 701.878906 263.140625 697.113281 261.207031 C 695.347656 261.488281 693.066406 261.644531 690.140625 261.53125 C 691.050781 262.988281 691.796875 264.074219 692.429688 264.878906 C 692.84375 264.898438 693.257812 264.914062 693.683594 264.925781 C 694.632812 264.960938 695.609375 264.996094 696.800781 265.078125 C 698.074219 265.167969 698.746094 265.4375 698.980469 265.949219 C 699.117188 266.253906 699.066406 266.601562 698.839844 266.902344 C 698.230469 267.707031 696.253906 268.28125 694.851562 268.066406 C 693.90625 267.921875 693.03125 267.417969 691.851562 266.011719 C 690.335938 265.929688 688.710938 265.777344 686.328125 265.347656 C 682.214844 264.605469 679.589844 264.542969 675.804688 266.179688 C 672.726562 267.511719 668.566406 269.039062 666.65625 269.730469 C 667.476562 270.273438 668.863281 271.097656 670.75 271.871094 C 670.878906 271.8125 671.011719 271.75 671.140625 271.691406 C 674.785156 270.011719 678.554688 268.273438 684.683594 268.714844 C 688.710938 269.007812 691.574219 270.058594 694.609375 271.167969 C 697.429688 272.203125 700.347656 273.269531 704.410156 273.757812 C 705.207031 273.851562 705.636719 273.972656 705.785156 274.363281 C 705.867188 274.582031 705.816406 274.828125 705.65625 275.003906 C 705.320312 275.378906 704.007812 275.515625 701.761719 275.417969 C 700.363281 275.355469 697.546875 275.125 694.371094 274.277344 C 688.839844 272.800781 685.792969 273.449219 682.84375 274.078125 C 680.3125 274.617188 677.921875 275.125 674.300781 274.238281 C 672.996094 273.917969 671.816406 273.535156 670.773438 273.132812 C 667.644531 274.558594 664.289062 275.910156 659.332031 275.804688 C 646.851562 275.550781 639.375 275.804688 639.300781 275.804688 C 639.042969 275.816406 638.816406 275.65625 638.734375 275.417969 C 638.648438 275.179688 638.730469 274.914062 638.933594 274.761719 C 641.382812 272.941406 643.050781 270.777344 643.824219 269.65625 C 637.4375 268.984375 631.902344 269.164062 614.542969 272.605469 C 613.179688 272.875 611.808594 273.125 610.441406 273.355469 C 612.222656 273.441406 614.1875 273.464844 616.347656 273.417969 C 630.890625 273.085938 637.957031 271.109375 638.027344 271.089844 C 638.269531 271.019531 638.523438 271.113281 638.664062 271.316406 C 638.804688 271.523438 638.800781 271.792969 638.652344 271.992188 C 638.566406 272.105469 636.546875 274.761719 631.832031 277.648438 C 627.515625 280.292969 620.011719 283.632812 608.792969 284.535156 C 606.417969 284.726562 604.121094 284.820312 601.9375 284.828125 C 602.269531 284.90625 602.578125 284.972656 602.855469 285.035156 C 604.628906 285.429688 605.226562 285.5625 605.242188 286.210938 C 605.261719 286.867188 604.59375 287.085938 602.664062 287.625 C 595.707031 289.554688 586.25 287.839844 583.519531 287.269531 C 580.128906 286.5625 579.28125 286.765625 577.230469 287.257812 C 576.242188 287.496094 575.007812 287.792969 573.128906 288.089844 C 571.339844 288.371094 569.335938 288.484375 567.722656 288.574219 C 566.910156 288.621094 566.035156 288.671875 565.386719 288.738281 C 565.816406 288.910156 566.457031 289.144531 567.425781 289.453125 C 571.183594 290.648438 575.121094 291.390625 577.238281 291.789062 C 577.800781 291.894531 578.25 291.976562 578.5625 292.046875 C 578.980469 292.136719 579.546875 292.257812 579.488281 292.820312 C 579.429688 293.378906 578.871094 293.382812 578.375 293.390625 C 578.019531 293.390625 577.484375 293.382812 576.636719 293.363281 C 570.492188 293.207031 563.863281 292.382812 555.773438 290.769531 C 549.230469 289.460938 547.871094 289.800781 539.003906 292.011719 C 537.507812 292.386719 535.8125 292.808594 533.839844 293.289062 C 533.722656 293.316406 533.605469 293.34375 533.488281 293.371094 C 534.628906 293.574219 535.578125 293.746094 536.3125 293.90625 C 537.644531 294.195312 538.449219 294.417969 538.417969 295.109375 C 538.386719 295.78125 537.648438 295.992188 535.449219 296.273438 C 533.855469 296.480469 531.378906 296.714844 527.417969 297.035156 C 526.890625 297.078125 526.375 297.121094 525.875 297.160156 C 522.476562 297.433594 518.976562 297.710938 517.726562 298.0625 C 518.09375 298.242188 518.796875 298.523438 520.148438 298.925781 C 530.75 302.058594 545.105469 303.816406 558.539062 303.628906 C 561.820312 303.585938 562.546875 304 562.660156 304.6875 C 562.792969 305.492188 561.710938 306.015625 560.78125 306.3125 C 557 307.519531 553.230469 308.414062 549.585938 309.28125 C 547.261719 309.835938 544.859375 310.410156 542.488281 311.050781 C 542.402344 311.074219 542.308594 311.101562 542.210938 311.128906 C 541.152344 311.410156 538.953125 311.996094 538.503906 312.902344 C 538.503906 312.96875 538.617188 313.523438 541.535156 314.601562 C 541.632812 314.640625 541.714844 314.667969 541.769531 314.691406 C 549.957031 317.886719 558.738281 318.988281 567.226562 320.054688 C 570.429688 320.457031 573.738281 320.871094 576.980469 321.394531 C 577.277344 321.441406 578.277344 321.652344 578.730469 322.34375 C 578.925781 322.648438 578.984375 322.992188 578.890625 323.34375 C 578.796875 323.695312 578.574219 323.941406 578.34375 324.160156 C 576.3125 326.066406 573.5625 326.945312 570.921875 327.6875 C 565.761719 329.128906 560.433594 330.34375 555.089844 331.289062 C 553.425781 331.585938 551.613281 331.996094 550.660156 333.128906 C 555.375 335.0625 559.40625 336.492188 563.292969 337.613281 C 563.570312 337.691406 563.75 337.964844 563.707031 338.25 C 563.667969 338.535156 563.421875 338.746094 563.132812 338.746094 L 563.09375 338.746094 Z M 506.316406 326.953125 C 506.648438 327.257812 507.671875 327.75 509.363281 328.417969 C 511.367188 329.210938 514.371094 330.160156 518.546875 331.316406 C 520.683594 331.910156 522.90625 332.367188 525.050781 332.808594 C 525.425781 332.886719 525.804688 332.964844 526.179688 333.042969 C 537.972656 335.496094 547.578125 336.875 556.40625 337.394531 C 557.289062 337.445312 558.183594 337.488281 559.070312 337.519531 C 556.132812 336.542969 553.035156 335.375 549.570312 333.9375 C 549.417969 333.875 549.304688 333.753906 549.246094 333.601562 C 549.191406 333.449219 549.203125 333.28125 549.273438 333.136719 C 550.300781 331.121094 552.710938 330.542969 554.886719 330.15625 C 560.195312 329.214844 565.484375 328.007812 570.609375 326.574219 C 573.214844 325.84375 575.710938 325.046875 577.546875 323.320312 C 577.601562 323.265625 577.75 323.128906 577.769531 323.050781 C 577.777344 323.023438 577.777344 323.011719 577.757812 322.980469 C 577.65625 322.824219 577.269531 322.621094 576.796875 322.542969 C 573.570312 322.023438 570.273438 321.609375 567.082031 321.210938 C 558.523438 320.136719 549.671875 319.023438 541.347656 315.777344 C 541.296875 315.757812 541.222656 315.730469 541.132812 315.695312 C 539.523438 315.101562 537.828125 314.359375 537.433594 313.371094 C 537.300781 313.042969 537.3125 312.707031 537.464844 312.398438 C 538.144531 311.015625 540.503906 310.386719 541.910156 310.011719 C 542.007812 309.988281 542.101562 309.960938 542.1875 309.941406 C 544.570312 309.289062 546.984375 308.714844 549.316406 308.160156 C 552.941406 307.296875 556.6875 306.40625 560.429688 305.214844 C 560.730469 305.117188 560.96875 305.015625 561.148438 304.925781 C 560.734375 304.847656 559.960938 304.773438 558.550781 304.792969 C 557.894531 304.804688 557.234375 304.808594 556.574219 304.808594 C 543.609375 304.808594 530.007812 303.054688 519.816406 300.042969 C 517.027344 299.214844 516.15625 298.703125 516.238281 297.925781 C 516.347656 296.859375 517.902344 296.640625 525.78125 296.011719 C 526.28125 295.96875 526.796875 295.929688 527.324219 295.886719 C 529.625 295.699219 533.800781 295.359375 536.015625 295.035156 C 534.902344 294.796875 533.269531 294.515625 531.578125 294.222656 C 531.246094 294.167969 530.902344 294.105469 530.546875 294.046875 C 524.125 295.410156 520.789062 295.382812 513.53125 295.332031 C 511.710938 295.316406 509.648438 295.300781 507.222656 295.304688 C 504.042969 295.3125 501.089844 296.949219 498.230469 298.527344 L 497.953125 298.683594 C 492.140625 301.898438 485.621094 304.082031 479.03125 305.03125 C 479.601562 305.289062 480.304688 305.378906 480.925781 305.425781 C 484.929688 305.730469 488.910156 305.292969 492.753906 304.128906 C 493.417969 303.925781 494.097656 303.695312 494.757812 303.472656 C 496.984375 302.722656 499.292969 301.945312 501.707031 301.984375 C 504.675781 302.035156 507.539062 303.179688 510.304688 304.285156 C 511.617188 304.8125 512.859375 305.308594 514.109375 305.691406 C 519.199219 307.289062 524.570312 308.28125 530.082031 308.644531 C 531.996094 308.769531 534.019531 309.082031 535.972656 309.386719 C 536.589844 309.480469 537.199219 309.574219 537.792969 309.660156 C 538.070312 309.703125 538.277344 309.933594 538.289062 310.214844 C 538.296875 310.496094 538.105469 310.742188 537.832031 310.800781 C 529.839844 312.546875 521.613281 311.304688 513.652344 310.101562 C 508.640625 309.34375 503.457031 308.5625 498.378906 308.535156 C 495.304688 308.511719 492.222656 308.773438 489.339844 309.050781 C 484.988281 309.476562 480.621094 310.007812 476.265625 310.640625 C 476.640625 310.789062 477.011719 310.9375 477.382812 311.089844 C 478.429688 311.511719 479.511719 311.949219 480.574219 312.359375 C 494.105469 317.546875 508.863281 319.375 523.25 317.652344 C 527.527344 317.136719 531.015625 318.027344 535.253906 319.625 C 539.535156 321.242188 543.980469 322.503906 548.46875 323.375 C 548.707031 323.421875 548.890625 323.609375 548.929688 323.847656 C 548.96875 324.085938 548.855469 324.324219 548.648438 324.445312 C 546.703125 325.5625 544.371094 325.472656 542.339844 325.296875 C 539.550781 325.058594 536.742188 324.664062 533.988281 324.125 C 533.738281 324.078125 533.484375 324.027344 533.234375 323.976562 C 531.679688 323.664062 530.070312 323.339844 528.492188 323.339844 C 528.464844 323.339844 528.4375 323.339844 528.410156 323.339844 C 526.882812 323.351562 525.335938 323.667969 523.839844 323.976562 C 521.386719 324.476562 518.875 324.839844 516.445312 325.191406 L 515.875 325.273438 C 514.863281 325.421875 513.824219 325.589844 512.820312 325.757812 C 511.535156 325.96875 510.203125 326.1875 508.886719 326.363281 C 507.191406 326.585938 506.550781 326.828125 506.316406 326.953125 Z M 327.226562 317.480469 C 329.707031 318.179688 332.214844 318.777344 334.75 319.199219 C 340.453125 320.148438 345.664062 320.074219 350.296875 318.984375 C 345.066406 318.621094 339.640625 317.890625 334.390625 316.003906 C 332.023438 316.617188 329.632812 317.109375 327.226562 317.480469 Z M 433.417969 315.058594 C 441.898438 315.957031 450.574219 314.207031 458.992188 312.507812 C 460.175781 312.269531 461.398438 312.023438 462.597656 311.789062 C 465.628906 311.195312 468.683594 310.652344 471.75 310.15625 C 468.917969 309.167969 466.023438 308.40625 463.058594 308.28125 C 458.945312 308.101562 454.863281 309.144531 450.914062 310.148438 C 447.457031 311.027344 444.070312 312.011719 440.796875 312.964844 C 438.394531 313.664062 435.929688 314.378906 433.417969 315.058594 Z M 257.722656 307.765625 C 263.792969 309.714844 270.789062 310.222656 279.488281 309.367188 C 284.011719 308.921875 288.519531 308.238281 292.980469 307.324219 C 291.789062 306.914062 290.605469 306.46875 289.429688 305.988281 L 289.273438 305.925781 C 288.519531 305.613281 287.808594 305.320312 287.066406 305.226562 C 286.449219 305.148438 285.785156 305.207031 285.144531 305.265625 Z M 216.085938 284.332031 C 219.128906 292.128906 227.898438 297.296875 239.179688 297.886719 C 251.285156 298.515625 266.140625 295.816406 275.96875 294.027344 C 287.363281 291.957031 293.707031 292.550781 305.863281 295.261719 C 309.269531 296.023438 312.964844 296.847656 316.820312 297.554688 C 318.335938 296.992188 319.566406 296.136719 320.5 294.917969 C 323.519531 290.976562 324.816406 288.035156 325.253906 286.890625 C 322.242188 285.902344 307.027344 281.226562 285.289062 280.15625 C 279.585938 279.875 278.554688 279.125 277.441406 276.257812 C 274.503906 276.320312 271.539062 276.496094 268.617188 276.816406 C 256.269531 278.167969 244.78125 279.972656 234.640625 281.5625 C 228.132812 282.585938 221.96875 283.550781 216.085938 284.332031 Z M 350.53125 288.746094 C 354.296875 289.371094 358.328125 289.996094 362.289062 290.558594 C 371.59375 291.886719 377.3125 292.421875 379.675781 292.421875 L 379.683594 292.421875 C 378.871094 292.109375 377.457031 291.636719 374.984375 290.949219 C 373.253906 290.46875 371.730469 289.960938 370.390625 289.515625 C 366.65625 288.273438 363.957031 287.375 359.988281 287.929688 C 357.203125 288.320312 354.132812 288.515625 351.425781 288.6875 C 351.132812 288.707031 350.832031 288.726562 350.53125 288.746094 Z M 113.523438 290.679688 C 113.769531 290.796875 114.472656 291.007812 116.34375 291.023438 C 116.382812 291.023438 116.417969 291.023438 116.453125 291.023438 C 120.257812 291.023438 124.976562 289.445312 130.433594 287.617188 C 131.0625 287.410156 131.699219 287.195312 132.347656 286.980469 C 131.332031 287.007812 130.402344 287.050781 129.570312 287.105469 C 125.378906 287.371094 121.300781 287.988281 118.082031 288.835938 C 115.042969 289.640625 113.84375 290.363281 113.523438 290.679688 Z M 475.285156 281.828125 C 475.554688 282.578125 476.144531 283.972656 477.164062 285.382812 C 477.980469 286.511719 478.902344 287.425781 479.921875 288.121094 C 481.246094 287.847656 482.644531 287.507812 484.136719 287.109375 L 484.660156 286.96875 C 492.269531 284.929688 496.460938 283.804688 505.039062 285.0625 C 535.84375 289.578125 543.464844 288.4375 546.75 284.746094 C 547.277344 284.152344 547.890625 282.710938 547.660156 279.179688 C 545.859375 279.226562 543.617188 279.246094 540.886719 279.246094 C 520.957031 279.226562 501.300781 275.042969 499.34375 274.617188 C 497.800781 275.125 484.953125 279.347656 475.285156 281.828125 Z M 380.457031 285.632812 C 385.910156 287.113281 393.714844 288.316406 400.695312 286.019531 C 401.207031 285.851562 401.71875 285.683594 402.222656 285.527344 C 405.886719 284.378906 409.574219 283.445312 413.246094 282.730469 C 408.230469 281.273438 405.015625 282 399.730469 283.195312 C 398.363281 283.503906 396.8125 283.855469 395.089844 284.195312 C 390.222656 285.15625 385.28125 285.398438 382.007812 285.554688 C 381.480469 285.582031 380.945312 285.605469 380.457031 285.632812 Z M 597.304688 283.5625 C 600.695312 283.742188 604.53125 283.722656 608.703125 283.386719 C 619.652344 282.507812 626.960938 279.265625 631.164062 276.703125 C 633.695312 275.160156 635.4375 273.667969 636.484375 272.648438 C 633.511719 273.265625 626.941406 274.339844 616.375 274.582031 C 612.300781 274.671875 608.632812 274.511719 605.546875 274.113281 C 596.675781 275.351562 588.242188 275.878906 582.644531 276.097656 C 584.359375 277.304688 586.960938 278.875 590.90625 280.898438 C 593.21875 282.082031 595.394531 282.933594 597.304688 283.5625 Z M 577.074219 276.25 C 578.195312 277.515625 580.417969 279.765625 582.910156 280.917969 C 584.699219 281.746094 588.261719 282.679688 593.128906 283.222656 C 592.238281 282.839844 591.320312 282.410156 590.375 281.929688 C 586.261719 279.820312 583.140625 277.964844 581.097656 276.410156 C 580.988281 276.328125 580.882812 276.246094 580.78125 276.164062 C 579.1875 276.214844 577.925781 276.238281 577.074219 276.25 Z M 340.859375 282.835938 C 341.335938 282.964844 341.84375 283.050781 342.382812 283.09375 C 346.429688 283.390625 351.242188 282.703125 355.214844 281.417969 C 353.628906 281.25 352.101562 281.132812 350.65625 281.144531 C 347.351562 281.164062 345.359375 281.679688 342.34375 282.453125 C 341.875 282.574219 341.382812 282.703125 340.859375 282.835938 Z M 335.308594 278.394531 C 335.84375 279.300781 337.042969 281 339.023438 282.09375 C 340.164062 281.820312 341.15625 281.566406 342.054688 281.332031 C 345.152344 280.535156 347.199219 280.007812 350.648438 279.984375 C 352.84375 279.96875 355.164062 280.234375 357.617188 280.519531 C 358.953125 279.945312 360.121094 279.296875 361.035156 278.59375 C 362.445312 277.507812 363.367188 276.308594 363.933594 275.078125 C 359.050781 274.839844 353.113281 274.492188 346.765625 273.976562 C 345.769531 274.460938 340.105469 277.15625 335.308594 278.394531 Z M 359.765625 280.765625 C 363.453125 281.167969 367.164062 281.414062 370.441406 280.550781 C 373.410156 279.765625 375.371094 277.160156 375.917969 275.515625 C 374.390625 275.480469 370.492188 275.378906 365.171875 275.132812 C 364.5 276.808594 363.351562 278.277344 361.738281 279.511719 C 361.167969 279.953125 360.503906 280.371094 359.765625 280.765625 Z M 280.058594 275.070312 C 293.710938 275.070312 306.214844 277.25 310.105469 278 C 303.332031 265.761719 296.152344 250.449219 288.753906 232.460938 C 282.65625 217.644531 276.402344 200.988281 270.160156 182.953125 C 261.648438 158.378906 255.464844 137.859375 253.300781 130.523438 C 252.828125 135.550781 252.453125 140.394531 252.167969 145.046875 C 252.285156 145.847656 252.40625 146.648438 252.527344 147.453125 C 258.027344 184.125 266.105469 233.007812 273.382812 257.605469 C 273.457031 257.855469 273.355469 258.121094 273.140625 258.257812 C 272.921875 258.398438 272.640625 258.375 272.445312 258.207031 C 272.367188 258.136719 270.464844 256.449219 267.78125 252.320312 C 265.324219 248.542969 261.714844 241.898438 258.464844 231.710938 C 254.820312 220.289062 252.355469 206.8125 251.140625 191.65625 C 250.007812 177.546875 249.964844 161.9375 251 145.082031 C 246.085938 112.097656 242.371094 83.285156 241.359375 75.316406 C 220.328125 126.742188 211.140625 176.84375 207.132812 209.996094 C 203.09375 243.433594 203.375 266.726562 203.453125 270.488281 C 224.566406 271.546875 242.621094 269.886719 254.085938 268.296875 C 266.617188 266.5625 274.195312 264.535156 274.273438 264.515625 C 274.574219 264.433594 274.886719 264.609375 274.976562 264.910156 C 274.996094 264.972656 276.828125 271.128906 278.027344 274.492188 L 278.140625 274.808594 C 278.175781 274.902344 278.207031 274.996094 278.238281 275.085938 C 278.847656 275.074219 279.453125 275.070312 280.058594 275.070312 Z M 548.660156 277.40625 C 548.683594 277.605469 548.703125 277.796875 548.722656 277.988281 C 549.804688 277.953125 550.617188 277.90625 551.222656 277.859375 C 550.558594 277.726562 549.707031 277.574219 548.660156 277.40625 Z M 520.433594 261.378906 C 520.535156 261.675781 520.632812 261.96875 520.734375 262.261719 C 524.191406 272.441406 527.105469 273.53125 530.847656 273.957031 C 538.304688 274.8125 543.691406 275.488281 547.300781 276.027344 C 547.085938 274.625 546.769531 273.007812 546.335938 271.144531 C 544.59375 263.707031 541.332031 254.183594 536.898438 243.601562 C 527.160156 220.367188 513.328125 195.609375 498.636719 175.058594 C 500.5625 180.445312 504.234375 190.894531 508.011719 202.574219 C 513.0625 218.195312 519.339844 239.28125 520.558594 251.039062 C 521.007812 255.378906 520.980469 258.746094 520.433594 261.378906 Z M 580.03125 267.726562 C 582.28125 267.726562 584.339844 267.769531 586.136719 267.859375 C 588.160156 267.960938 589.765625 268.113281 590.902344 268.308594 C 592.160156 268.527344 593.003906 268.8125 593.042969 269.492188 C 593.085938 270.21875 592.28125 270.617188 589.964844 271.019531 C 588.042969 271.351562 585.226562 271.648438 581.601562 271.894531 C 580.035156 272 579.414062 272.355469 579.351562 272.648438 C 579.328125 272.765625 579.300781 273.433594 581.183594 274.992188 C 584.941406 274.863281 590.386719 274.59375 596.53125 274.003906 C 596.183594 273.363281 595.414062 271.882812 594.328125 269.414062 C 589.441406 258.964844 585.144531 247.429688 581.53125 235.046875 C 578.183594 223.566406 575.40625 211.335938 573.289062 198.6875 C 570.683594 183.15625 569.714844 170.777344 569.375 165.023438 C 564.769531 182.648438 564.890625 208.59375 565.867188 227.828125 C 566.886719 247.949219 569.019531 264.84375 569.429688 267.996094 C 573.210938 267.816406 576.816406 267.726562 580.03125 267.726562 Z M 688.199219 272.230469 C 689.988281 272.230469 692.082031 272.472656 694.667969 273.160156 C 696.589844 273.675781 698.421875 273.96875 699.996094 274.128906 C 697.847656 273.59375 696.011719 272.921875 694.210938 272.261719 C 691.253906 271.179688 688.464844 270.15625 684.601562 269.878906 C 679.109375 269.480469 675.71875 270.871094 672.277344 272.449219 C 672.988281 272.691406 673.757812 272.917969 674.578125 273.121094 C 677.9375 273.945312 680.203125 273.460938 682.601562 272.949219 C 684.230469 272.601562 685.976562 272.230469 688.199219 272.230469 Z M 365.546875 273.992188 C 366.582031 274.039062 367.554688 274.078125 368.472656 274.117188 C 366.449219 273.527344 366.058594 272.886719 366.027344 272.292969 C 365.96875 271.234375 367.339844 270.390625 370.46875 269.558594 C 372.96875 268.894531 376.382812 268.3125 380.390625 267.863281 C 371.894531 253.761719 363.550781 234.808594 358.007812 221.273438 C 353.84375 211.113281 350.605469 202.433594 348.945312 197.886719 C 349.105469 201.957031 349.425781 206.105469 349.867188 210.234375 C 355.386719 235.15625 361.699219 256.3125 364.96875 266.695312 C 365.082031 267.050781 365.167969 267.328125 365.230469 267.519531 C 365.949219 269.84375 366.058594 272.019531 365.546875 273.992188 Z M 595.546875 269.277344 C 596.261719 270.796875 596.996094 272.308594 597.75 273.8125 C 597.761719 273.835938 597.769531 273.855469 597.777344 273.878906 C 599.082031 273.746094 600.417969 273.601562 601.769531 273.4375 C 601.75 273.433594 601.734375 273.429688 601.714844 273.425781 C 598.214844 272.574219 596.246094 271.335938 596.011719 269.847656 C 595.839844 268.734375 596.550781 267.136719 600.914062 265.855469 C 606.378906 264.246094 612.785156 261.953125 613.839844 258.449219 C 614.308594 256.878906 613.710938 255.128906 612 253.105469 C 605.351562 245.238281 596.570312 229.558594 585.898438 206.496094 C 580.464844 194.75 575.90625 183.996094 573.550781 178.332031 C 578.527344 214.128906 584.667969 237.855469 589.023438 251.625 C 591.664062 259.972656 593.972656 265.726562 595.546875 269.277344 Z M 341.417969 170.375 C 340.332031 175.273438 338.164062 185.644531 336.058594 199.210938 C 333.351562 216.652344 330.199219 243.066406 330.476562 270.21875 C 333.546875 269.496094 346.039062 266.828125 360.464844 267.558594 C 359.671875 264.886719 357.023438 255.722656 354.367188 243.792969 C 352.34375 234.703125 350.027344 222.671875 348.722656 210.421875 C 345.914062 197.738281 343.3125 184.082031 341.417969 170.371094 Z M 471.035156 267.417969 C 473.691406 267.632812 476.199219 267.84375 478.628906 268.050781 C 500.242188 269.863281 512.148438 270.867188 516.902344 266.015625 C 518.015625 264.878906 518.785156 263.402344 519.238281 261.453125 C 504.828125 218.625 486.28125 142.191406 482.824219 127.789062 C 473.347656 168.246094 470.625 203.832031 470.023438 226.734375 C 469.421875 249.59375 470.757812 264.617188 471.035156 267.417969 Z M 693.511719 266.085938 C 694.082031 266.613281 694.5625 266.855469 695.027344 266.925781 C 696.027344 267.082031 697.207031 266.691406 697.703125 266.386719 C 697.515625 266.332031 697.210938 266.273438 696.71875 266.242188 C 695.546875 266.15625 694.582031 266.125 693.644531 266.089844 C 693.601562 266.089844 693.554688 266.089844 693.511719 266.085938 Z M 689.40625 260.34375 C 691.570312 260.457031 693.382812 260.425781 694.890625 260.304688 C 692.753906 259.429688 690.285156 258.394531 687.507812 257.128906 C 688.207031 258.339844 688.835938 259.40625 689.40625 260.34375 Z M 672.667969 258.730469 C 675.09375 258.730469 678.113281 258.933594 681.808594 259.515625 C 684.117188 259.878906 686.171875 260.113281 687.996094 260.253906 C 687.308594 259.105469 686.546875 257.792969 685.6875 256.289062 C 684.152344 255.570312 682.535156 254.785156 680.832031 253.921875 C 671.882812 249.375 666.972656 243.546875 664.417969 234.4375 C 662.140625 226.316406 661.734375 215.695312 661.386719 201.332031 C 658.832031 194.40625 656.816406 188.429688 655.558594 184.03125 C 651.472656 210.421875 656.988281 241.640625 664.851562 259.753906 C 665.875 259.390625 668.324219 258.730469 672.667969 258.730469 Z M 686.515625 255.398438 C 690.789062 257.390625 694.390625 258.855469 697.242188 260.011719 C 699.683594 259.585938 700.941406 258.921875 701.503906 258.539062 C 700.148438 256.964844 695.398438 251.308594 688.976562 242.121094 C 682.234375 232.46875 672.265625 216.898438 662.4375 196.777344 C 662.445312 197.097656 662.453125 197.417969 662.460938 197.730469 C 662.488281 198.886719 662.515625 200.015625 662.539062 201.121094 C 669.21875 219.179688 678.746094 241.503906 683.722656 250.433594 C 684.75 252.277344 685.675781 253.925781 686.515625 255.398438 Z M 251.855469 150.777344 C 249.972656 190.597656 254.734375 216.136719 259.523438 231.210938 C 262.726562 241.292969 266.277344 247.859375 268.695312 251.59375 C 269.828125 253.351562 270.828125 254.660156 271.59375 255.582031 C 264.6875 231.003906 257.171875 185.941406 251.855469 150.777344 Z M 662.628906 204.667969 C 662.96875 217.257812 663.472656 226.773438 665.535156 234.125 C 667.992188 242.890625 672.726562 248.503906 681.359375 252.886719 C 682.507812 253.46875 683.617188 254.019531 684.691406 254.535156 C 684.078125 253.441406 683.417969 252.265625 682.710938 250.996094 C 679.171875 244.652344 673.308594 231.589844 667.402344 216.90625 C 665.691406 212.644531 664.085938 208.53125 662.628906 204.667969 Z M 662.628906 204.667969 " fill-opacity="1" fill-rule="nonzero"></path></g><g clip-path="url(#dd43b38807)"><path fill="#bfa888" d="M 151.34375 182.921875 C 146.164062 183.550781 141.078125 187.117188 138.390625 192.007812 L 138.160156 192.429688 L 138.0625 192.148438 C 137.570312 190.691406 135.972656 190.019531 134.164062 190.503906 C 133.941406 190.5625 133.609375 190.59375 133.222656 190.589844 C 128.375 190.542969 124.304688 195.789062 124.316406 202.066406 C 124.324219 207.574219 127.496094 211.667969 131.761719 211.667969 C 132.40625 211.667969 132.398438 211.570312 131.738281 211.429688 C 131.160156 211.304688 130.476562 211.078125 130.203125 210.921875 C 130.042969 210.832031 130.03125 210.8125 130.148438 210.839844 C 130.9375 211.015625 133.34375 211.015625 134.035156 210.839844 C 134.839844 210.636719 134.339844 210.398438 132.589844 210.15625 C 129.929688 209.789062 128.621094 209.242188 127.597656 208.074219 C 125.746094 205.953125 125.574219 202.820312 127.128906 199.558594 C 127.527344 198.730469 128.46875 197.203125 128.359375 197.566406 C 127.59375 200.148438 128.3125 204.761719 129.710938 206.246094 C 130.109375 206.667969 130.449219 206.683594 130.152344 206.265625 C 128.304688 203.640625 128.640625 196.761719 130.710938 194.84375 C 131.84375 193.800781 134.929688 191.875 135.292969 191.988281 C 135.359375 192.007812 135.679688 192.148438 135.996094 192.296875 C 137.152344 192.839844 137.402344 192.644531 136.566406 191.851562 C 136.390625 191.6875 136.269531 191.554688 136.292969 191.554688 C 136.421875 191.554688 136.894531 191.933594 137.214844 192.296875 C 137.417969 192.527344 137.640625 192.777344 137.714844 192.851562 L 137.84375 192.992188 L 137.472656 193.855469 C 136.113281 197.019531 135.429688 201.347656 135.78125 204.546875 C 135.820312 204.875 135.871094 205.59375 135.902344 206.140625 C 135.929688 206.691406 135.996094 207.316406 136.042969 207.539062 C 136.09375 207.757812 136.148438 208.003906 136.164062 208.085938 C 136.183594 208.171875 136.136719 208.4375 136.050781 208.710938 C 135.570312 210.285156 133.695312 212.144531 130.359375 214.351562 L 129.34375 215.023438 L 129.117188 214.777344 C 128.871094 214.507812 127.886719 213.992188 127.160156 213.75 C 124.976562 213.019531 123.230469 213.390625 118.351562 215.613281 C 116.921875 216.269531 115.949219 216.582031 114.6875 216.792969 L 114.296875 216.859375 L 113.6875 216.523438 C 113.355469 216.335938 112.054688 215.667969 110.800781 215.039062 C 105.546875 212.390625 103.160156 210.511719 96.214844 203.546875 C 91.882812 199.207031 90.65625 198.058594 88.773438 196.582031 C 87.996094 195.976562 87.03125 195.316406 86.921875 195.316406 C 86.761719 195.316406 86.855469 195.429688 87.398438 195.882812 C 88.726562 196.996094 91.109375 199.394531 93.859375 202.378906 C 100.113281 209.175781 104.414062 212.890625 108.609375 215.125 C 108.90625 215.285156 110.023438 215.855469 111.085938 216.398438 C 112.847656 217.289062 114.648438 218.257812 114.648438 218.308594 C 114.648438 218.320312 114.484375 218.257812 114.285156 218.167969 C 110.738281 216.574219 104.195312 216.199219 100.6875 217.386719 L 99.972656 217.628906 L 99.6875 217.5 C 99.535156 217.425781 98.804688 217.171875 98.066406 216.933594 C 86.75 213.253906 81.457031 210.527344 76.074219 205.597656 C 75.03125 204.640625 73.960938 203.605469 73.460938 203.070312 C 72.882812 202.449219 72.769531 202.359375 72.769531 202.519531 C 72.769531 202.859375 75.21875 205.804688 76.382812 206.863281 C 76.542969 207.007812 76.953125 207.390625 77.300781 207.710938 C 80.148438 210.367188 83.992188 212.84375 88.027344 214.628906 C 90.8125 215.859375 96.242188 217.855469 98.046875 218.3125 L 98.453125 218.414062 L 97.960938 218.742188 C 96.914062 219.4375 96.203125 220.074219 94.050781 222.234375 C 91.84375 224.449219 91.386719 224.851562 90.695312 225.203125 C 89.550781 225.78125 88.726562 225.242188 84.960938 221.429688 C 79.40625 215.8125 77.351562 213.164062 71.914062 204.632812 C 69.324219 200.566406 68.222656 198.933594 65.9375 195.769531 C 64.328125 193.550781 62.367188 191.546875 61.292969 191.035156 C 60.921875 190.859375 60.75 190.878906 61.007812 191.066406 C 61.511719 191.433594 62.542969 192.6875 63.863281 194.546875 C 64.351562 195.234375 64.863281 195.941406 64.996094 196.117188 C 65.488281 196.757812 67.480469 199.871094 70.625 204.90625 C 76.441406 214.21875 78.886719 217.347656 84.679688 222.882812 C 89.765625 227.75 90.203125 227.753906 94.90625 223.035156 C 97.527344 220.402344 98.539062 219.582031 100.089844 218.84375 C 102.609375 217.644531 106.042969 217.347656 109.890625 217.996094 C 111.859375 218.328125 114.589844 219.210938 114.589844 219.515625 C 114.589844 219.574219 114.632812 219.679688 114.683594 219.75 C 114.796875 219.910156 114.816406 219.914062 113.421875 219.472656 C 112.859375 219.292969 112.21875 219.089844 111.996094 219.027344 C 110.730469 218.652344 109.542969 218.546875 108.238281 218.699219 C 106.527344 218.894531 105.132812 218.863281 104.402344 218.613281 C 103.941406 218.453125 103.71875 218.46875 103.648438 218.660156 C 103.46875 219.125 104.871094 219.738281 107.011719 220.128906 C 108.332031 220.371094 108.667969 220.464844 109.558594 220.847656 C 110.953125 221.449219 111.433594 221.605469 112.910156 221.953125 C 114.300781 222.28125 114.222656 222.253906 114.234375 222.390625 C 114.246094 222.5625 114.511719 222.816406 114.847656 222.976562 L 115.132812 223.117188 L 114.746094 223.117188 C 113.75 223.125 111.578125 222.660156 108.351562 221.753906 C 104.519531 220.675781 103.015625 220.378906 101.289062 220.363281 C 100.355469 220.355469 100.003906 220.402344 100.003906 220.53125 C 100.003906 220.625 100.054688 220.640625 100.925781 220.75 C 102.238281 220.917969 103.757812 221.324219 106.8125 222.324219 C 109.671875 223.257812 110.824219 223.5625 112.574219 223.859375 C 113.496094 224.015625 113.585938 224.050781 113.671875 224.289062 C 113.710938 224.398438 113.871094 224.628906 114.03125 224.800781 L 114.316406 225.113281 L 113.953125 225.113281 C 113.753906 225.113281 113.183594 225.167969 112.683594 225.230469 C 110.722656 225.476562 109.492188 225.257812 102.484375 223.429688 C 100.878906 223.007812 99.890625 223.039062 99.84375 223.503906 C 99.824219 223.738281 99.835938 223.746094 101.144531 224.035156 C 101.691406 224.160156 102.835938 224.449219 103.679688 224.683594 C 104.527344 224.914062 105.695312 225.210938 106.273438 225.339844 C 109.96875 226.171875 109.957031 226.167969 110.261719 226.457031 C 110.402344 226.589844 110.621094 226.769531 110.746094 226.851562 L 110.972656 227.003906 L 110.515625 226.96875 C 109.75 226.90625 108.890625 226.722656 107.449219 226.3125 C 104.886719 225.585938 104.398438 225.488281 103.339844 225.492188 C 101.765625 225.5 100.605469 226.011719 99.511719 227.1875 C 98.863281 227.878906 98.480469 228.472656 97.011719 231.070312 C 94.726562 235.109375 93.074219 236.246094 90.96875 235.234375 C 90.285156 234.90625 89.65625 234.371094 88.011719 232.71875 C 85.25 229.941406 84.023438 229.136719 79.179688 226.9375 C 75.035156 225.058594 72.425781 223.539062 69.40625 221.25 C 67.792969 220.027344 66.898438 219.28125 63.511719 216.320312 C 61.074219 214.191406 61.125 214.234375 60.148438 213.457031 C 57.808594 211.597656 55.640625 210.105469 53.863281 209.136719 C 52.828125 208.574219 52.84375 208.683594 53.914062 209.53125 C 55.523438 210.800781 56.246094 211.378906 57.1875 212.148438 C 58.785156 213.453125 61.984375 216.222656 63.765625 217.84375 C 69.800781 223.332031 72.625 225.265625 78.835938 228.160156 C 83.265625 230.226562 84.761719 231.210938 86.929688 233.492188 C 89.417969 236.109375 90.699219 236.914062 92.371094 236.90625 C 92.761719 236.90625 92.898438 236.886719 93.4375 236.765625 L 93.625 236.722656 L 93.261719 237.316406 C 93.066406 237.640625 92.582031 238.496094 92.1875 239.21875 C 86.878906 248.9375 81.902344 252.96875 73.917969 254.007812 C 71.703125 254.296875 69.765625 254.21875 64.992188 253.660156 C 58.457031 252.894531 53.941406 252.96875 48.925781 253.917969 C 43.292969 254.988281 38.851562 257.019531 37.757812 259.023438 C 37.511719 259.476562 37.648438 259.457031 38.117188 258.976562 C 39.765625 257.296875 44.167969 255.675781 49.039062 254.949219 C 54.277344 254.171875 58.195312 254.222656 65.277344 255.167969 C 66.3125 255.304688 67.3125 255.4375 67.5 255.457031 C 68.234375 255.53125 68.234375 255.542969 67.46875 255.75 C 60.734375 257.589844 55.53125 262.097656 52.003906 269.152344 C 50.90625 271.351562 49.960938 273.773438 50.203125 273.773438 C 50.273438 273.773438 50.386719 273.582031 51.121094 272.179688 C 55.050781 264.671875 58.773438 260.644531 64.011719 258.242188 C 64.851562 257.855469 66.558594 257.195312 66.714844 257.195312 C 66.726562 257.195312 66.507812 257.375 66.234375 257.59375 C 60.886719 261.882812 56.347656 271.265625 55.128906 280.554688 C 55.035156 281.265625 54.953125 283.390625 55.011719 283.546875 C 55.089844 283.742188 55.207031 283.515625 55.273438 283.046875 C 55.871094 278.953125 56.714844 275.808594 58.367188 271.496094 C 61.308594 263.824219 65.617188 258.4375 70.441406 256.402344 C 70.945312 256.191406 71.128906 256.152344 72.847656 255.882812 C 73.871094 255.726562 74.75 255.578125 74.804688 255.558594 C 75.09375 255.457031 74.777344 255.617188 74.28125 255.824219 C 65.585938 259.496094 61.058594 270.746094 63.804688 281.867188 C 64.183594 283.414062 64.988281 285.550781 65.246094 285.710938 C 65.417969 285.816406 65.390625 285.59375 65.128906 284.800781 C 62.714844 277.417969 63.890625 268.480469 68.042969 262.652344 C 70.3125 259.472656 72.15625 258.074219 76.332031 256.371094 C 81 254.460938 82.488281 253.644531 83.941406 252.1875 C 84.363281 251.757812 84.960938 251.210938 85.261719 250.964844 C 88.171875 248.609375 90.617188 245.25 93.421875 239.757812 C 94.566406 237.523438 94.792969 237.144531 95.730469 235.941406 C 96.867188 234.480469 97.324219 233.78125 98.554688 231.640625 C 100.183594 228.796875 100.945312 227.964844 102.449219 227.378906 C 103.265625 227.058594 106.371094 227.234375 108.921875 227.746094 C 110.09375 227.980469 111.566406 227.945312 112.210938 227.667969 C 112.761719 227.433594 112.917969 226.800781 112.527344 226.382812 C 112.460938 226.3125 112.429688 226.253906 112.460938 226.253906 C 112.488281 226.25 112.628906 226.222656 112.769531 226.191406 C 112.910156 226.160156 113.550781 226.117188 114.191406 226.09375 C 115.539062 226.046875 115.667969 226.007812 115.886719 225.570312 C 116.144531 225.0625 115.9375 224.566406 115.277344 224.125 L 115.136719 224.03125 L 115.363281 224.03125 C 116.140625 224.027344 116.675781 223.191406 116.277344 222.601562 C 115.941406 222.109375 115.148438 221.78125 113.273438 221.359375 C 112.007812 221.074219 111.539062 220.921875 110.382812 220.425781 C 109.859375 220.207031 109.191406 219.941406 108.894531 219.835938 L 108.351562 219.648438 L 108.808594 219.636719 C 110.402344 219.597656 111.03125 219.699219 113.167969 220.351562 C 115.648438 221.105469 116.636719 221.136719 116.878906 220.464844 C 116.9375 220.308594 116.976562 220.273438 117.070312 220.296875 C 117.132812 220.3125 117.492188 220.363281 117.867188 220.410156 C 118.507812 220.488281 119.117188 220.539062 122.3125 220.757812 C 127.035156 221.082031 129.691406 221.972656 137.410156 225.816406 C 142.542969 228.371094 144.667969 229.316406 148.976562 230.957031 C 156.1875 233.703125 159.554688 234.351562 166.128906 234.265625 C 169.707031 234.222656 171.046875 234.3125 172.316406 234.683594 C 172.691406 234.792969 172.867188 234.859375 174.226562 235.390625 C 175.789062 236.003906 176.09375 235.800781 174.882812 234.953125 C 172.84375 233.523438 171.066406 233.152344 165.917969 233.078125 L 165.027344 233.0625 L 165.882812 232.664062 C 168.546875 231.429688 170.394531 230.132812 170.691406 229.296875 L 170.792969 229.007812 L 171.167969 229.289062 C 171.371094 229.441406 171.652344 229.636719 171.785156 229.722656 C 174.253906 231.253906 176.074219 233.621094 177.976562 237.765625 C 180.085938 242.359375 180.15625 243.941406 178.289062 245.148438 C 173.929688 247.972656 160.808594 248.285156 145.53125 245.9375 C 141.910156 245.378906 139.65625 244.929688 133.792969 243.582031 C 124.933594 241.550781 121.761719 241.316406 117.496094 242.382812 C 114.03125 243.246094 110.578125 245.511719 109.410156 247.6875 C 109.023438 248.40625 108.964844 249.222656 109.332031 248.789062 C 109.410156 248.695312 109.589844 248.484375 109.726562 248.320312 C 112.757812 244.753906 119.210938 242.8125 125.304688 243.628906 C 127.605469 243.9375 134.039062 245.273438 133.707031 245.371094 C 129.199219 246.714844 126.449219 248.839844 122.839844 253.785156 C 122.582031 254.140625 122.210938 254.636719 122.019531 254.886719 C 121.441406 255.644531 119.976562 257.960938 119.6875 258.574219 C 119.445312 259.085938 119.914062 258.835938 120.5625 258.105469 C 121.164062 257.433594 122.335938 256.035156 122.710938 255.542969 C 123.878906 254.015625 126.15625 251.539062 127.570312 250.261719 C 129.972656 248.09375 132.589844 246.839844 135.890625 246.28125 C 137.015625 246.085938 136.976562 246.085938 138.921875 246.503906 C 151.625 249.230469 166.167969 250.007812 174.164062 248.386719 C 180.476562 247.101562 182.3125 244.785156 180.707031 240.121094 C 180.535156 239.625 180.378906 239.167969 180.359375 239.109375 C 180.277344 238.84375 183.121094 239.441406 185.246094 240.132812 C 187.871094 240.988281 192.824219 244.453125 197.03125 248.371094 C 197.257812 248.585938 197.46875 248.761719 197.496094 248.761719 C 197.957031 248.761719 196.765625 247.027344 195.214844 245.4375 C 190.1875 240.277344 184.714844 237.203125 180.277344 237.039062 L 179.4375 237.007812 L 178.875 235.949219 C 177.273438 232.941406 175.820312 231.121094 174.128906 230 C 173.339844 229.480469 171.730469 228.652344 171.21875 228.503906 L 170.84375 228.398438 L 170.738281 228.085938 C 170.21875 226.5625 166.746094 222.847656 166.011719 223.03125 C 165.695312 223.109375 165.972656 223.660156 167.046875 225.085938 C 167.894531 226.214844 168.695312 227.351562 169.011719 227.878906 C 169.542969 228.769531 168.988281 229.386719 166.214844 230.984375 C 164.773438 231.8125 164.097656 232.265625 163.683594 232.6875 L 163.351562 233.023438 L 163.03125 233 C 161.394531 232.859375 160.554688 232.757812 159.339844 232.546875 L 158.816406 232.453125 L 158.902344 232.203125 C 159.011719 231.878906 159.203125 231.726562 159.96875 231.34375 C 162.082031 230.285156 162.453125 229.597656 161.953125 227.644531 C 161.640625 226.40625 161.597656 225.792969 161.777344 225.074219 C 161.832031 224.867188 161.914062 224.773438 162.417969 224.367188 C 165.40625 221.929688 166.472656 219.433594 166.074219 215.828125 C 165.9375 214.597656 165.917969 214.664062 166.5 214.332031 C 169.070312 212.855469 170.425781 210.117188 171.109375 205 C 171.429688 202.609375 171.378906 201.261719 170.859375 198.375 L 170.828125 198.210938 L 171.441406 198.234375 C 173.542969 198.308594 174.136719 199.640625 173.015625 201.773438 C 171.464844 204.726562 171.328125 205.355469 171.773438 207.421875 C 172.160156 209.230469 171.933594 210.359375 170.976562 211.371094 C 170.097656 212.308594 170.160156 212.566406 171.140625 212.046875 C 172.582031 211.28125 173.105469 209.679688 172.71875 207.207031 C 172.4375 205.414062 172.558594 204.898438 173.71875 202.878906 C 174.566406 201.410156 174.789062 200.753906 174.75 199.835938 C 174.683594 198.308594 173.316406 197.277344 171.417969 197.320312 L 170.742188 197.339844 L 170.644531 196.554688 C 170.433594 194.882812 170.109375 193.746094 169.464844 192.4375 C 166.414062 186.234375 158.464844 182.058594 151.34375 182.921875 M 155.332031 184.351562 C 162.96875 185.25 168.566406 190.25 169.449219 196.957031 L 169.558594 197.769531 L 169.4375 197.832031 C 168.664062 198.230469 168.144531 199.078125 168.875 198.753906 C 169.542969 198.457031 169.628906 198.4375 169.660156 198.582031 C 169.71875 198.847656 169.972656 200.320312 169.972656 200.386719 C 169.972656 200.425781 169.855469 200.324219 169.710938 200.160156 C 169.171875 199.5625 168.191406 199.261719 167.863281 199.59375 C 167.707031 199.75 167.785156 199.84375 168.15625 199.933594 C 168.75 200.074219 169.265625 200.742188 169.410156 201.554688 C 169.523438 202.210938 169.433594 202.796875 168.980469 204.316406 C 168.511719 205.890625 168.574219 206.609375 169.25 207.414062 L 169.480469 207.691406 L 169.375 208.128906 C 168.792969 210.605469 167.671875 212.328125 165.992188 213.316406 C 164.957031 213.925781 164.800781 214.1875 164.867188 215.1875 C 165.160156 219.507812 164.582031 220.894531 161.511719 223.296875 C 159.644531 224.757812 158.53125 225.375 156.214844 226.234375 C 154.011719 227.050781 153.011719 227.46875 151.570312 228.167969 C 148.976562 229.425781 149.238281 229.441406 145.359375 227.777344 C 143.078125 226.796875 143.191406 226.859375 142.695312 226.277344 C 142.453125 225.992188 142.070312 225.542969 141.847656 225.277344 C 139.425781 222.429688 138.390625 219.605469 138.3125 215.628906 C 138.265625 213.316406 138.730469 210.632812 139.21875 210.410156 C 139.644531 210.21875 139.683594 209.8125 139.296875 209.621094 L 139.015625 209.480469 L 139.210938 209.417969 C 139.796875 209.21875 139.6875 208.226562 139.066406 208.113281 C 138.523438 208.007812 138.027344 208.558594 138.246094 209.019531 C 138.289062 209.101562 138.269531 209.097656 138.179688 208.992188 C 137.203125 207.847656 137.074219 204.847656 137.929688 203.078125 C 138.820312 201.234375 140.742188 200.898438 141.335938 202.484375 C 141.597656 203.183594 141.625 203.34375 141.625 204.34375 C 141.625 205.011719 141.648438 205.3125 141.691406 205.328125 C 141.84375 205.378906 142.179688 204.714844 142.261719 204.203125 C 142.324219 203.820312 142.378906 203.886719 142.628906 204.644531 C 143.167969 206.277344 142.933594 207.753906 141.910156 209.179688 C 141.414062 209.875 142.199219 209.609375 142.765625 208.890625 C 143.492188 207.972656 143.847656 206.882812 143.804688 205.6875 C 143.777344 204.820312 143.777344 204.828125 143.246094 202.863281 C 142.6875 200.800781 143.132812 200.214844 145.046875 200.496094 C 147.8125 200.902344 149.347656 199.976562 152.570312 195.964844 C 154.398438 193.6875 155.40625 192.734375 156.671875 192.085938 C 160.273438 190.242188 164.792969 191.882812 166.042969 195.488281 C 166.605469 197.113281 167.167969 197.335938 167.042969 195.882812 C 166.640625 191.265625 160.210938 188.734375 155.683594 191.410156 C 154.492188 192.113281 153.347656 193.179688 151.761719 195.058594 C 148.65625 198.738281 147.585938 199.394531 145.089844 199.167969 C 143.734375 199.046875 143.242188 199.117188 142.664062 199.515625 C 142.253906 199.800781 141.828125 200.5625 141.828125 201.019531 C 141.828125 201.265625 141.753906 201.257812 141.46875 200.96875 L 141.207031 200.699219 L 141.386719 200.34375 C 142.355469 198.414062 144.230469 197.082031 147.417969 196.050781 C 151.652344 194.683594 154.382812 192.582031 155.601562 189.761719 C 156.199219 188.375 155.789062 188.566406 154.492188 190.273438 C 152.4375 192.984375 150.703125 194.21875 147.246094 195.4375 C 143.890625 196.625 141.96875 198.140625 141.175781 200.222656 C 141.023438 200.628906 141.03125 200.628906 140.523438 200.414062 C 139.402344 199.945312 137.941406 200.539062 137.035156 201.832031 C 136.707031 202.300781 136.707031 202.300781 136.84375 201.183594 C 138.152344 190.433594 146.035156 183.257812 155.332031 184.351562 M 153.269531 186.027344 C 147.835938 186.652344 142.621094 190.539062 139.023438 196.65625 C 138.324219 197.84375 137.660156 199.203125 137.742188 199.28125 C 137.824219 199.367188 137.957031 199.222656 138.296875 198.667969 C 142.4375 191.917969 146.925781 188.21875 152.28125 187.140625 C 155.828125 186.425781 158.609375 187.117188 161.796875 189.503906 C 164.441406 191.484375 166.15625 192.140625 164.320312 190.46875 C 160.347656 186.855469 157.183594 185.582031 153.269531 186.027344 M 154.960938 187.6875 C 152.289062 187.855469 150.035156 189.214844 146.617188 192.722656 C 142.671875 196.777344 141.429688 197.859375 139.738281 198.71875 C 139.039062 199.078125 139.019531 199.324219 139.710938 199.105469 C 141.1875 198.640625 142.792969 197.386719 145.929688 194.238281 C 148.144531 192.015625 148.625 191.550781 149.34375 190.957031 C 152.3125 188.496094 154.707031 187.863281 157.949219 188.675781 C 158.921875 188.917969 159.214844 188.871094 158.738281 188.550781 C 157.828125 187.933594 156.371094 187.601562 154.960938 187.6875 M 131.089844 192.367188 C 130.519531 192.941406 130.003906 193.609375 129.691406 194.175781 C 129.5625 194.40625 129.222656 194.816406 128.75 195.3125 C 127.554688 196.558594 126.765625 197.621094 126.074219 198.90625 C 125.898438 199.234375 125.765625 199.453125 125.78125 199.390625 C 125.796875 199.328125 125.851562 199.117188 125.898438 198.925781 C 126.621094 196.0625 128.445312 193.484375 130.566406 192.320312 C 130.859375 192.160156 131.503906 191.863281 131.605469 191.839844 C 131.609375 191.839844 131.375 192.078125 131.089844 192.367188 M 159.175781 194.203125 C 157.890625 194.441406 156.316406 195.367188 155.644531 196.285156 C 155.289062 196.765625 155.457031 196.773438 156.082031 196.304688 C 157.980469 194.878906 159.980469 194.570312 161.785156 195.417969 C 162.3125 195.664062 162.691406 195.957031 163.605469 196.808594 C 164.570312 197.707031 165.113281 198.066406 165.695312 198.183594 L 166.046875 198.253906 L 165.402344 198.523438 C 163.148438 199.460938 161.078125 199.835938 159.15625 199.648438 C 158.183594 199.554688 158.058594 199.703125 158.925781 199.925781 C 161.300781 200.53125 164.113281 200.035156 166.257812 198.636719 C 166.4375 198.515625 166.433594 198.523438 166.011719 199.132812 C 165.847656 199.367188 165.542969 199.882812 165.332031 200.273438 C 164.125 202.511719 163.226562 203.285156 161.421875 203.648438 C 160.40625 203.851562 160.308594 204.023438 161.125 204.183594 C 163.015625 204.546875 164.546875 203.476562 165.851562 200.878906 C 166.054688 200.476562 166.429688 199.800781 166.683594 199.371094 C 167.375 198.207031 167.636719 197.609375 167.636719 197.183594 C 167.636719 196.953125 167.578125 196.984375 167.351562 197.339844 C 167.195312 197.59375 167.128906 197.648438 167.039062 197.625 C 166.976562 197.605469 166.671875 197.542969 166.363281 197.480469 C 165.511719 197.3125 165.324219 197.203125 164.421875 196.34375 C 162.445312 194.46875 160.980469 193.871094 159.175781 194.203125 M 134.71875 194.351562 C 134.246094 194.433594 133.753906 194.714844 133.332031 195.144531 C 132.96875 195.511719 132.941406 195.527344 132.621094 195.558594 C 130.394531 195.789062 129.175781 199.324219 130.085938 202.917969 C 130.726562 205.4375 132.636719 208.417969 134.117188 209.203125 C 134.8125 209.574219 134.835938 209.359375 134.171875 208.6875 C 130.414062 204.886719 129.417969 198.441406 132.300781 196.617188 L 132.460938 196.515625 L 132.332031 196.90625 C 131.539062 199.261719 132.160156 202.410156 133.722656 203.957031 C 134.976562 205.199219 136.039062 205.578125 134.925781 204.386719 C 132.75 202.0625 132.082031 199.191406 133.140625 196.710938 L 133.238281 196.484375 L 133.402344 196.683594 C 133.496094 196.792969 133.609375 197.023438 133.65625 197.195312 C 133.859375 197.921875 133.875 197.964844 133.996094 197.980469 C 134.484375 198.050781 134.382812 196.335938 133.875 195.890625 L 133.6875 195.722656 L 133.953125 195.472656 C 134.726562 194.75 135.445312 194.636719 136.34375 195.097656 C 136.765625 195.316406 136.894531 195.273438 136.71875 194.976562 C 136.433594 194.492188 135.527344 194.207031 134.71875 194.351562 M 167.757812 197.9375 C 166.488281 199.832031 166.363281 200.609375 167.03125 202.464844 C 167.515625 203.824219 167.40625 204.777344 166.550781 206.527344 C 165.808594 208.046875 165.933594 208.257812 166.847656 207.023438 C 168.238281 205.152344 168.4375 203.792969 167.625 201.742188 C 167.136719 200.496094 167.183594 199.96875 167.949219 198.179688 C 168.421875 197.078125 168.375 197.019531 167.757812 197.9375 M 170.03125 204.292969 C 169.933594 205.207031 169.730469 206.539062 169.6875 206.539062 C 169.5625 206.539062 169.546875 205.773438 169.664062 205.21875 C 169.761719 204.753906 170.042969 203.742188 170.070312 203.765625 C 170.078125 203.777344 170.0625 204.011719 170.03125 204.292969 M 136.996094 209.640625 C 137.078125 209.746094 137.300781 209.933594 137.488281 210.058594 L 137.832031 210.285156 L 137.683594 210.5 C 136.054688 212.898438 136.1875 217.484375 137.992188 221.46875 C 138.230469 221.984375 138.523438 222.640625 138.652344 222.921875 C 138.921875 223.523438 139.347656 224.300781 139.699219 224.847656 C 139.835938 225.058594 139.945312 225.246094 139.945312 225.257812 C 139.945312 225.273438 138.902344 224.761719 137.625 224.121094 C 131.003906 220.8125 127.636719 219.652344 123.960938 219.417969 C 123.46875 219.386719 123.054688 219.351562 123.042969 219.339844 C 123.03125 219.328125 123.21875 219.25 123.464844 219.164062 C 128.863281 217.261719 135.75 212.320312 136.703125 209.660156 C 136.796875 209.398438 136.804688 209.398438 136.996094 209.640625 M 127.011719 214.828125 C 127.300781 214.878906 127.628906 214.996094 128.019531 215.1875 L 128.601562 215.472656 L 127.5625 216.046875 C 124.621094 217.675781 122.257812 218.554688 119.40625 219.078125 L 118.441406 219.253906 L 117.726562 218.890625 C 116.605469 218.320312 115.34375 217.527344 115.480469 217.472656 C 115.539062 217.449219 116 217.335938 116.5 217.21875 C 117.585938 216.96875 118.113281 216.796875 120.148438 216.042969 C 123.679688 214.730469 125.054688 214.488281 127.011719 214.828125 M 117.097656 219.714844 C 117.101562 219.863281 116.757812 219.726562 116.484375 219.476562 L 116.1875 219.199219 L 116.640625 219.433594 C 116.890625 219.566406 117.097656 219.691406 117.097656 219.714844 M 160.683594 225.914062 C 160.617188 226.265625 160.617188 227.121094 160.6875 227.554688 C 160.957031 229.214844 160.949219 229.226562 159.566406 229.902344 C 158.15625 230.59375 157.679688 231.113281 157.734375 231.898438 L 157.757812 232.21875 L 157.527344 232.167969 C 156.09375 231.847656 150.570312 230.027344 150.6875 229.910156 C 150.707031 229.890625 151.664062 229.496094 152.964844 228.964844 C 153.375 228.800781 154.515625 228.375 155.5 228.023438 C 158.101562 227.089844 159.28125 226.566406 160.402344 225.84375 C 160.773438 225.601562 160.746094 225.597656 160.683594 225.914062 M 142.597656 250.246094 C 136.824219 250.566406 130.746094 252.597656 128.222656 255.054688 C 127.378906 255.878906 127.527344 255.949219 128.566406 255.222656 C 130.644531 253.757812 134.355469 252.410156 138.265625 251.703125 C 141.1875 251.171875 143.351562 251.035156 148.125 251.074219 C 151.429688 251.105469 152.539062 251.074219 152.539062 250.949219 C 152.539062 250.867188 152.492188 250.859375 151.542969 250.699219 C 149.421875 250.34375 144.945312 250.117188 142.597656 250.246094 M 146.527344 254.007812 C 145.546875 254.09375 144.503906 254.234375 143.792969 254.375 C 141.867188 254.757812 141.3125 255.121094 142.917969 254.949219 C 144.78125 254.746094 148.363281 254.679688 149.460938 254.828125 C 149.570312 254.84375 150.085938 254.882812 150.601562 254.917969 C 152.832031 255.066406 157.292969 255.863281 159.359375 256.480469 C 160.691406 256.878906 162.484375 257.167969 162.546875 256.992188 C 162.652344 256.691406 159.21875 255.382812 156.898438 254.835938 C 153.988281 254.15625 149.1875 253.769531 146.527344 254.007812 M 114.960938 259.683594 C 108.167969 259.867188 103.359375 260.867188 93.308594 264.183594 C 88.699219 265.703125 87.550781 266.050781 85.105469 266.679688 C 80.96875 267.742188 78.121094 268.238281 70.007812 269.304688 C 68.660156 269.484375 67.542969 269.636719 67.53125 269.652344 C 66.988281 270.160156 75.351562 269.644531 80.660156 268.84375 C 84.945312 268.195312 88.15625 267.367188 94.933594 265.171875 C 97.613281 264.304688 98.675781 263.96875 99.914062 263.605469 C 106.15625 261.773438 111.179688 261.011719 117.042969 261.011719 C 120.300781 261.011719 122.046875 261.144531 127.640625 261.8125 C 131.953125 262.332031 132.328125 261.820312 128.355469 260.84375 C 124.59375 259.914062 120.253906 259.539062 114.960938 259.683594 M 137.980469 262.191406 C 133.410156 264.511719 129.605469 265.195312 119.949219 265.425781 C 109.277344 265.679688 103.816406 266.910156 93.824219 271.296875 C 89.96875 272.988281 88.734375 273.5 86.984375 274.132812 C 85.246094 274.765625 84.363281 274.976562 82 275.339844 C 81.175781 275.464844 80.328125 275.65625 80.25 275.734375 C 79.992188 275.992188 82.394531 276.175781 83.652344 275.996094 C 86.117188 275.644531 87.902344 275.007812 93.960938 272.320312 C 104.160156 267.800781 108.921875 266.675781 119.777344 266.226562 C 127.769531 265.898438 131.003906 265.378906 135.105469 263.761719 C 136.78125 263.101562 139.144531 261.851562 138.679688 261.867188 C 138.640625 261.871094 138.324219 262.015625 137.980469 262.191406 " fill-opacity="1" fill-rule="evenodd"></path></g></svg>