<svg xmlns="http://www.w3.org/2000/svg" xmlns:xlink="http://www.w3.org/1999/xlink" width="500" zoomAndPan="magnify" viewBox="0 0 375 374.999991" height="500" preserveAspectRatio="xMidYMid meet"><defs><clipPath id="d0e3d97993"><path d="M 58.898438 0.648438 L 375 0.648438 L 375 298.558594 L 58.898438 298.558594 Z M 58.898438 0.648438 " clip-rule="nonzero"></path></clipPath><clipPath id="fe7bc22fec"><path d="M 0 143 L 207.664062 143 L 207.664062 277 L 0 277 Z M 0 143 " clip-rule="nonzero"></path></clipPath><clipPath id="345fb2de61"><rect x="0" width="375" y="0" height="337"></rect></clipPath></defs><g transform="matrix(1, 0, 0, 1, 0, 38)"><g clip-path="url(#345fb2de61)"><g clip-path="url(#d0e3d97993)"><path fill="#99815f" d="M 680.039062 345.199219 C 677.257812 345.199219 674.238281 345.109375 671.296875 344.9375 C 659.800781 344.265625 647.304688 342.464844 631.972656 339.277344 C 631.488281 339.175781 631.003906 339.078125 630.515625 338.976562 C 627.714844 338.402344 624.816406 337.804688 622.003906 337.023438 C 616.546875 335.507812 612.609375 334.265625 609.96875 333.21875 C 606.390625 331.804688 604.820312 330.96875 604.972656 329.734375 C 605.101562 328.675781 606.386719 328.121094 609.707031 327.679688 C 611.386719 327.457031 613.097656 327.175781 614.75 326.902344 C 616.054688 326.6875 617.40625 326.464844 618.730469 326.273438 L 619.46875 326.167969 C 622.589844 325.714844 625.816406 325.25 628.949219 324.609375 C 630.957031 324.199219 633.03125 323.773438 635.15625 323.757812 C 637.386719 323.746094 639.578125 324.183594 641.699219 324.609375 C 642.023438 324.671875 642.347656 324.738281 642.671875 324.800781 C 646.175781 325.488281 649.757812 325.988281 653.316406 326.292969 C 654.890625 326.429688 656.613281 326.523438 658.210938 326.230469 C 653.214844 325.125 648.273438 323.660156 643.492188 321.855469 C 638.082031 319.8125 633.921875 318.753906 628.667969 319.382812 C 609.808594 321.644531 590.46875 319.246094 572.734375 312.445312 C 571.347656 311.914062 569.9375 311.34375 568.578125 310.792969 C 567.308594 310.28125 566.027344 309.761719 564.738281 309.265625 C 559.898438 310.007812 555.078125 310.847656 550.300781 311.78125 C 548.753906 312.085938 547.171875 312.402344 545.644531 312.710938 C 533.40625 315.179688 520.75 317.730469 508.347656 315.5 C 508 315.4375 507.746094 315.140625 507.730469 314.785156 C 507.71875 314.433594 507.953125 314.121094 508.296875 314.035156 C 512.765625 312.894531 517.148438 311.621094 521.386719 310.390625 C 525.636719 309.15625 530.03125 307.878906 534.523438 306.734375 C 539.738281 305.40625 545.132812 304.035156 550.675781 304.273438 C 555.605469 304.484375 560.324219 305.96875 564.90625 307.722656 C 571.414062 306.726562 577.957031 305.910156 584.46875 305.277344 C 588.234375 304.910156 592.28125 304.574219 596.316406 304.597656 C 602.996094 304.636719 609.757812 305.65625 616.296875 306.644531 C 624.898438 307.941406 633.753906 309.277344 642.375 308.324219 C 640.636719 308.066406 638.894531 307.84375 637.230469 307.734375 C 629.980469 307.261719 622.910156 305.957031 616.21875 303.855469 C 614.546875 303.335938 612.835938 302.65625 611.183594 301.992188 C 607.730469 300.613281 604.15625 299.1875 600.589844 299.125 C 597.722656 299.074219 594.992188 299.996094 592.101562 300.972656 C 591.242188 301.261719 590.347656 301.5625 589.464844 301.832031 C 584.3125 303.394531 578.980469 303.980469 573.613281 303.570312 C 571.945312 303.445312 569.90625 303.089844 568.882812 301.4375 C 568.746094 301.21875 568.730469 300.949219 568.84375 300.71875 C 568.953125 300.488281 569.175781 300.328125 569.429688 300.296875 C 578.332031 299.234375 587.1875 296.378906 595.035156 292.039062 L 595.390625 291.839844 C 599.253906 289.703125 603.246094 287.492188 607.75 287.484375 C 610.890625 287.476562 613.566406 287.496094 615.925781 287.515625 C 623.632812 287.570312 627.875 287.601562 633.78125 286.617188 C 627.777344 285.527344 620.320312 284.027344 612.652344 281.859375 C 605.609375 279.871094 600.136719 280.882812 594.34375 281.953125 C 589.660156 282.820312 584.816406 283.714844 578.589844 283.3125 C 576.25 283.160156 574.082031 282.46875 572.148438 281.277344 C 564.625 282.789062 558.792969 282.796875 552.183594 281.449219 C 535.582031 278.074219 527.109375 280.179688 518.140625 282.40625 C 514.210938 283.382812 510.148438 284.394531 505.300781 284.960938 C 500.566406 285.511719 493.914062 284.308594 491.273438 283.761719 C 489.308594 283.359375 482.832031 281.933594 482.011719 280.601562 C 481.816406 280.28125 481.816406 279.910156 482.011719 279.609375 C 482.324219 279.140625 482.957031 278.910156 485.40625 279.039062 C 487.296875 279.140625 490.050781 279.457031 493.59375 279.980469 C 497.804688 280.601562 501.757812 280.167969 503.742188 279.851562 C 506.128906 279.472656 507.636719 278.980469 508.398438 278.625 C 508.207031 278.589844 507.960938 278.558594 507.644531 278.53125 C 501.4375 278 497.84375 276.714844 493.296875 275.089844 C 492.003906 274.628906 490.6875 274.15625 489.230469 273.675781 C 483.617188 274.636719 477.964844 276.003906 472.34375 277.761719 C 471.699219 277.964844 471.042969 278.175781 470.390625 278.390625 C 460.785156 281.554688 450.101562 279.804688 442.828125 277.777344 C 441.046875 277.277344 440.042969 276.953125 440.140625 276.082031 C 440.234375 275.261719 441.25 275.164062 442.144531 275.078125 C 442.996094 275 444.175781 274.941406 445.671875 274.871094 C 449.859375 274.667969 456.1875 274.359375 462.378906 273.136719 C 464.589844 272.699219 466.582031 272.25 468.339844 271.851562 C 475.253906 270.285156 479.824219 269.253906 486.828125 271.34375 C 487.714844 271.609375 488.550781 271.875 489.34375 272.132812 C 491.964844 271.695312 494.574219 271.339844 497.167969 271.078125 C 501.066406 270.683594 505.289062 270.398438 509.707031 270.996094 C 511.296875 271.210938 512.898438 271.496094 514.449219 271.773438 C 517 272.230469 519.640625 272.703125 522.25 272.859375 C 526.875 273.128906 529.621094 273.074219 531.085938 272.933594 C 530.230469 272.6875 528.820312 272.363281 526.527344 272 C 525.855469 271.890625 525.183594 271.789062 524.511719 271.683594 C 522.957031 271.441406 521.347656 271.191406 519.769531 270.910156 C 514.171875 269.917969 513.652344 269.085938 513.429688 268.730469 C 513.257812 268.453125 513.207031 268.136719 513.292969 267.839844 C 513.542969 266.957031 514.804688 266.6875 519.703125 266.453125 L 519.804688 266.449219 C 522.433594 266.324219 525.066406 266.207031 527.699219 266.089844 C 537.601562 265.644531 547.839844 265.1875 557.875 264.347656 C 559.039062 264.25 560.292969 264.148438 561.527344 263.90625 L 463.5 263.90625 C 453.707031 263.90625 445.65625 263.664062 439.46875 263.1875 C 438.898438 265.917969 435.824219 270.109375 431.160156 271.339844 C 425.925781 272.71875 420.054688 272.046875 414.375 271.382812 C 408.605469 273.765625 400.757812 275.148438 394.363281 274.675781 C 392.65625 274.546875 391.175781 274.101562 389.902344 273.480469 C 387.785156 273.980469 385.269531 274.519531 382.144531 275.089844 C 381.253906 275.25 380.679688 275.394531 380.308594 275.511719 C 381.457031 275.933594 383.800781 276.433594 385.328125 276.761719 C 385.953125 276.894531 386.570312 277.027344 387.164062 277.160156 C 390.214844 277.84375 394.414062 278.65625 399.214844 279.503906 C 400.667969 279.28125 402.859375 279.128906 406.074219 278.925781 C 409.550781 278.703125 413.492188 278.453125 417.042969 277.957031 C 422.523438 277.1875 426.34375 278.457031 431.179688 280.066406 C 432.902344 280.640625 434.851562 281.285156 437.054688 281.902344 C 439.828125 282.671875 441.914062 283.328125 443.25 283.84375 C 444.550781 284.347656 445.699219 284.878906 445.46875 285.808594 C 445.273438 286.582031 444.359375 286.730469 442.742188 286.742188 C 441.53125 286.75 439.792969 286.652344 437.570312 286.460938 C 433.519531 286.109375 427.875 285.429688 421.238281 284.496094 C 413.789062 283.453125 405.929688 282.203125 399.207031 281.023438 C 399.011719 281.054688 398.835938 281.085938 398.679688 281.121094 C 399.191406 281.363281 400.136719 281.738281 401.875 282.265625 C 411.578125 285.210938 426.46875 288.726562 448.734375 293.328125 C 454.132812 294.445312 457.9375 295.269531 460.367188 295.855469 C 461.511719 296.128906 462.332031 296.34375 462.878906 296.515625 C 463.449219 296.695312 464.230469 296.9375 464.117188 297.675781 C 463.988281 298.515625 463.09375 298.449219 461.464844 298.332031 C 460.34375 298.25 458.867188 298.105469 457.300781 297.949219 C 454.738281 297.695312 452.089844 297.433594 450.792969 297.433594 C 446.636719 297.433594 439.242188 296.371094 428.179688 294.191406 C 420.785156 292.734375 418.152344 293.8125 411.796875 296.425781 C 410.601562 296.914062 409.246094 297.472656 407.722656 298.066406 C 404.324219 299.390625 399.636719 300.179688 396.214844 300.757812 C 395.285156 300.914062 394.296875 301.082031 393.484375 301.238281 C 393.972656 301.332031 394.601562 301.441406 395.402344 301.558594 C 398.683594 302.054688 402.046875 302.386719 405.300781 302.707031 C 406.933594 302.871094 408.625 303.035156 410.285156 303.222656 C 411.511719 303.359375 412.78125 303.5 414 303.988281 C 414.285156 304.101562 414.613281 304.261719 414.855469 304.570312 C 415.292969 305.136719 415.4375 305.886719 415.21875 306.488281 C 415.035156 306.992188 414.621094 307.347656 414.082031 307.460938 C 403.988281 309.605469 393.703125 309.867188 383.515625 308.238281 C 383.21875 308.191406 382.921875 308.140625 382.621094 308.089844 C 380.1875 307.691406 377.667969 307.273438 375.308594 307.753906 C 373.597656 308.097656 371.949219 308.921875 370.359375 309.722656 L 369.890625 309.953125 C 368.808594 310.492188 367.777344 311.058594 366.777344 311.605469 C 365.40625 312.359375 364.085938 313.085938 362.65625 313.738281 C 365.523438 314.734375 368.425781 315.722656 371.363281 316.632812 C 375.609375 316.132812 379.824219 315.339844 383.980469 314.253906 C 384.125 314.214844 384.28125 314.222656 384.425781 314.273438 C 392.550781 317.234375 401.082031 317.992188 409.09375 318.367188 C 409.449219 318.382812 409.746094 318.648438 409.796875 319.003906 C 409.851562 319.355469 409.648438 319.699219 409.3125 319.820312 C 402.113281 322.410156 393.714844 322.933594 384.351562 321.375 C 379.898438 320.632812 375.519531 319.484375 371.21875 318.15625 C 366.398438 318.707031 361.539062 318.882812 356.667969 318.683594 C 354.527344 318.59375 352.351562 318.429688 350.242188 318.273438 C 344.214844 317.820312 337.976562 317.351562 332.054688 318.613281 C 330.523438 318.941406 328.984375 319.390625 327.492188 319.824219 C 325.792969 320.320312 324.039062 320.832031 322.253906 321.175781 C 317.742188 322.050781 313.128906 321.859375 308.664062 321.671875 C 303.828125 321.472656 297.804688 321.222656 293.054688 318.261719 C 292.796875 318.101562 292.660156 317.796875 292.714844 317.496094 C 292.765625 317.195312 293 316.957031 293.296875 316.894531 C 303.246094 314.808594 313.363281 312.730469 323.152344 310.71875 C 326.109375 310.113281 329.171875 309.484375 332.292969 309.617188 C 333.878906 309.683594 335.449219 309.945312 336.964844 310.203125 C 337.910156 310.359375 338.886719 310.527344 339.84375 310.636719 C 344.53125 311.183594 348.949219 310.171875 352.421875 308.871094 C 345.953125 308.46875 339.59375 307.324219 333.414062 305.453125 C 326.757812 306.925781 320.011719 308 313.242188 308.664062 C 300.203125 309.949219 290.03125 308.898438 281.226562 305.359375 C 280.902344 305.230469 280.714844 304.898438 280.761719 304.554688 C 280.8125 304.210938 281.09375 303.949219 281.4375 303.917969 L 320.277344 300.375 C 321.1875 300.292969 322.128906 300.207031 323.089844 300.332031 C 324.246094 300.476562 325.304688 300.914062 326.324219 301.332031 L 326.527344 301.414062 C 328.8125 302.351562 331.128906 303.179688 333.476562 303.902344 C 338.28125 302.828125 343.042969 301.546875 347.730469 300.058594 L 348.230469 299.898438 C 350.707031 299.113281 353.265625 298.296875 355.941406 298.273438 C 357.417969 298.261719 358.875 298.492188 360.285156 298.714844 C 360.722656 298.785156 361.175781 298.859375 361.617188 298.921875 C 366.035156 299.546875 370.582031 299.394531 375.132812 298.464844 C 381.789062 297.105469 386.269531 296.140625 389.25 295.453125 C 379.921875 296.152344 370.367188 295.039062 361.472656 293.425781 C 354.746094 295.703125 344.914062 294.160156 334.660156 292.554688 C 323.296875 290.773438 315.796875 292.101562 305.421875 293.941406 C 302.363281 294.484375 298.894531 295.097656 295.03125 295.683594 C 278.128906 298.246094 266.011719 299.628906 252.132812 295.664062 C 251.277344 295.421875 250.449219 295.179688 249.640625 294.949219 C 237.609375 291.476562 230.34375 289.382812 214.015625 292.207031 C 207.984375 293.25 202.480469 293.898438 196.925781 293.898438 C 186.324219 293.898438 175.546875 291.527344 160.578125 284.984375 C 148.804688 279.839844 136.65625 278.386719 127.628906 278.195312 C 125.273438 278.929688 122.964844 279.703125 120.714844 280.457031 C 113.53125 282.859375 107.316406 284.941406 102.152344 284.941406 C 102.101562 284.941406 102.050781 284.941406 102 284.9375 C 97.921875 284.90625 97.101562 284.160156 96.839844 283.511719 C 96.71875 283.207031 96.621094 282.59375 97.324219 281.914062 C 99.390625 279.910156 108.789062 277.382812 120.367188 276.796875 C 122.527344 276.6875 124.914062 276.632812 127.472656 276.679688 C 137.816406 273.480469 149.648438 270.878906 161.390625 273.90625 C 173.933594 277.140625 181.425781 274.320312 188.675781 271.59375 C 195.027344 269.203125 201.59375 266.734375 211.210938 268.683594 C 228.371094 272.160156 245.75 268.738281 249.496094 265.710938 C 249.957031 265.339844 249.980469 265.140625 249.980469 265.140625 C 249.976562 265.132812 249.394531 263.902344 242.019531 263.902344 L 59.71875 263.902344 C 59.304688 263.902344 58.96875 263.566406 58.96875 263.152344 C 58.96875 262.738281 59.304688 262.402344 59.71875 262.402344 L 242.023438 262.402344 C 250.308594 262.402344 251.074219 263.964844 251.328125 264.476562 C 251.488281 264.804688 251.667969 265.472656 251.058594 266.265625 C 249.609375 268.140625 244.101562 269.980469 237.019531 270.957031 C 228.511719 272.125 219.242188 271.839844 210.914062 270.152344 C 201.722656 268.289062 195.640625 270.574219 189.207031 272.996094 C 181.738281 275.804688 174.019531 278.710938 161.019531 275.355469 C 151.101562 272.796875 141.308594 274.316406 132.121094 276.863281 C 140.882812 277.417969 151.121094 279.214844 161.179688 283.609375 C 183.640625 293.429688 196.507812 293.710938 213.761719 290.726562 C 230.429688 287.847656 237.820312 289.976562 250.058594 293.507812 C 250.867188 293.738281 251.695312 293.980469 252.546875 294.222656 C 266.132812 298.105469 278.101562 296.734375 294.808594 294.203125 C 298.652344 293.617188 302.113281 293.003906 305.164062 292.464844 C 315.683594 290.597656 323.28125 289.253906 334.894531 291.074219 C 344.527344 292.582031 352.269531 293.601562 357.921875 292.753906 C 354.070312 291.988281 350.367188 291.164062 346.894531 290.386719 C 331.386719 286.925781 323.300781 286.167969 308.8125 288.800781 C 292.566406 291.753906 275.480469 294.574219 260.867188 293.8125 C 245.230469 293 233.144531 285.5625 229.328125 274.402344 C 229.253906 274.1875 229.28125 273.957031 229.398438 273.765625 C 229.519531 273.574219 229.71875 273.445312 229.941406 273.417969 C 237.816406 272.390625 246.085938 271.089844 254.839844 269.71875 C 267.972656 267.65625 282.859375 265.320312 298.871094 263.566406 C 302.523438 263.164062 306.230469 262.9375 309.902344 262.847656 L 309.796875 262.554688 C 308.5 258.921875 306.648438 252.816406 306.03125 250.769531 C 303.5 251.40625 294.292969 253.597656 280.46875 255.515625 C 265.4375 257.601562 241.695312 259.78125 213.949219 258.328125 C 213.558594 258.308594 213.25 257.996094 213.238281 257.605469 C 213.226562 257.289062 212.285156 225.65625 217.988281 178.453125 C 221.335938 150.738281 226.289062 123.144531 232.703125 96.449219 C 240.726562 63.074219 251.074219 31.011719 263.457031 1.144531 C 263.589844 0.832031 263.914062 0.644531 264.25 0.691406 C 264.585938 0.734375 264.851562 1.003906 264.894531 1.339844 C 264.945312 1.753906 269.792969 40.570312 276.714844 87.59375 C 277.097656 82.402344 277.558594 77.121094 278.097656 71.757812 C 278.132812 71.402344 278.417969 71.121094 278.777344 71.085938 C 279.136719 71.054688 279.464844 71.28125 279.566406 71.628906 C 279.652344 71.941406 288.703125 103.445312 302.445312 143.132812 C 315.121094 179.746094 334.496094 231.003906 354.808594 267.277344 C 354.953125 267.535156 354.933594 267.851562 354.757812 268.089844 C 354.582031 268.324219 354.285156 268.4375 353.996094 268.375 C 353.757812 268.324219 333.757812 264.0625 312.042969 264.308594 C 313.164062 266.984375 314.394531 267.570312 320.675781 267.878906 C 352.261719 269.433594 373.3125 276.84375 373.523438 276.917969 C 373.894531 277.050781 374.101562 277.453125 373.992188 277.832031 C 373.9375 278.023438 372.589844 282.546875 367.351562 289.390625 C 366.410156 290.617188 365.261719 291.585938 363.9375 292.335938 C 372.542969 293.789062 381.667969 294.679688 390.503906 293.839844 C 392.085938 293.6875 393.289062 293.605469 394.082031 293.585938 C 394.914062 293.566406 395.859375 293.542969 395.980469 294.355469 C 396.105469 295.183594 395.160156 295.460938 393.964844 295.8125 C 393.015625 296.089844 391.589844 296.449219 389.730469 296.882812 C 386.488281 297.632812 381.808594 298.632812 375.433594 299.933594 C 370.714844 300.898438 365.996094 301.054688 361.410156 300.40625 C 360.953125 300.339844 360.492188 300.265625 360.046875 300.195312 C 358.640625 299.972656 357.300781 299.761719 355.953125 299.773438 C 353.503906 299.792969 351.054688 300.574219 348.6875 301.328125 L 348.1875 301.488281 C 344.3125 302.714844 340.394531 303.804688 336.4375 304.753906 C 342.726562 306.4375 349.195312 307.363281 355.761719 307.511719 C 356.105469 307.519531 356.402344 307.761719 356.476562 308.101562 C 356.550781 308.441406 356.382812 308.785156 356.070312 308.933594 C 350.511719 311.625 344.839844 312.726562 339.671875 312.125 C 338.675781 312.007812 337.679688 311.84375 336.71875 311.679688 C 335.246094 311.429688 333.722656 311.175781 332.230469 311.113281 C 329.292969 310.988281 326.324219 311.597656 323.453125 312.1875 C 314.328125 314.0625 304.914062 315.996094 295.621094 317.9375 C 299.695312 319.800781 304.457031 319.996094 308.726562 320.175781 C 313.105469 320.355469 317.628906 320.542969 321.972656 319.703125 C 323.683594 319.371094 325.40625 318.867188 327.074219 318.382812 C 328.589844 317.941406 330.15625 317.484375 331.742188 317.144531 C 337.875 315.835938 344.21875 316.3125 350.355469 316.773438 C 352.449219 316.929688 354.617188 317.09375 356.730469 317.183594 C 360.359375 317.332031 363.984375 317.269531 367.589844 316.996094 C 365.136719 316.1875 362.714844 315.34375 360.3125 314.507812 C 360.015625 314.40625 359.816406 314.125 359.8125 313.8125 C 359.808594 313.496094 360 313.210938 360.292969 313.097656 C 362.382812 312.308594 364.167969 311.328125 366.054688 310.292969 C 367.066406 309.738281 368.113281 309.164062 369.222656 308.609375 L 369.6875 308.378906 C 371.367188 307.535156 373.101562 306.667969 375.011719 306.28125 C 377.644531 305.75 380.296875 306.1875 382.867188 306.609375 C 383.164062 306.660156 383.457031 306.707031 383.75 306.753906 C 393.757812 308.355469 403.859375 308.097656 413.773438 305.992188 C 413.796875 305.988281 413.808594 305.980469 413.808594 305.980469 C 413.835938 305.945312 413.847656 305.71875 413.675781 305.492188 C 413.660156 305.480469 413.613281 305.445312 413.441406 305.378906 C 412.414062 304.964844 411.246094 304.835938 410.117188 304.707031 C 408.46875 304.523438 406.78125 304.359375 405.152344 304.195312 C 401.882812 303.875 398.496094 303.539062 395.179688 303.039062 C 391.363281 302.46875 390.484375 302.132812 390.476562 301.242188 C 390.46875 300.371094 391.558594 300.121094 392.4375 299.925781 C 393.320312 299.722656 394.546875 299.515625 395.964844 299.277344 C 399.324219 298.710938 403.925781 297.933594 407.179688 296.667969 C 408.691406 296.078125 410.039062 295.523438 411.226562 295.035156 C 417.683594 292.382812 420.632812 291.171875 428.46875 292.71875 C 439.433594 294.878906 446.734375 295.929688 450.792969 295.929688 C 451.78125 295.929688 453.457031 296.070312 455.289062 296.242188 C 453.453125 295.84375 451.195312 295.367188 448.433594 294.796875 C 426.121094 290.183594 411.1875 286.65625 401.441406 283.699219 C 397.714844 282.570312 396.554688 281.886719 396.667969 280.890625 C 396.683594 280.78125 396.707031 280.675781 396.75 280.582031 C 392.835938 279.871094 389.417969 279.199219 386.835938 278.621094 C 386.25 278.488281 385.632812 278.359375 385.015625 278.226562 C 379.910156 277.132812 378.257812 276.675781 378.277344 275.464844 C 378.292969 274.578125 379.234375 274.09375 381.875 273.613281 C 384.261719 273.179688 386.285156 272.761719 388.050781 272.367188 C 384.972656 270.136719 383.601562 267.089844 383.519531 266.898438 C 383.429688 266.695312 383.433594 266.460938 383.535156 266.261719 C 383.636719 266.0625 383.820312 265.917969 384.035156 265.867188 C 390.714844 264.335938 399.578125 259.988281 399.667969 259.945312 C 399.789062 259.886719 399.925781 259.859375 400.0625 259.871094 C 408.542969 260.5625 416.460938 261.027344 422.902344 261.332031 C 423.710938 258.550781 423.304688 255.742188 422.601562 253.472656 C 422.523438 253.226562 422.410156 252.871094 422.265625 252.414062 C 418.707031 241.109375 412.363281 219.953125 406.183594 194.324219 C 407.765625 204.546875 409.6875 214.125 411.441406 221.992188 C 415.515625 240.289062 419.570312 253.53125 419.609375 253.664062 C 419.683594 253.898438 419.636719 254.15625 419.484375 254.347656 C 419.332031 254.542969 419.09375 254.648438 418.847656 254.632812 C 397.21875 253.355469 378.703125 258.148438 378.519531 258.199219 C 378.296875 258.257812 378.058594 258.210938 377.875 258.070312 C 377.691406 257.929688 377.582031 257.710938 377.578125 257.480469 C 377.136719 221.910156 381.269531 187.230469 384.8125 164.402344 C 388.652344 139.667969 392.648438 123.121094 392.691406 122.957031 C 392.773438 122.605469 393.097656 122.367188 393.460938 122.382812 C 393.820312 122.402344 394.117188 122.679688 394.160156 123.035156 C 396.105469 138.019531 398.742188 153.019531 401.679688 167.316406 C 401.5 164.28125 401.382812 161.273438 401.34375 158.308594 C 401.339844 157.941406 401.601562 157.625 401.960938 157.558594 C 402.324219 157.496094 402.679688 157.703125 402.800781 158.050781 C 403.011719 158.652344 424.191406 218.75 445.542969 253.699219 C 445.675781 253.917969 445.6875 254.191406 445.574219 254.421875 C 445.460938 254.652344 445.238281 254.808594 444.980469 254.835938 C 439.585938 255.402344 434.953125 256.15625 431.578125 257.019531 C 427.226562 258.128906 426.636719 258.996094 426.566406 259.128906 C 426.734375 259.4375 429.257812 262.402344 463.5 262.402344 L 562.273438 262.402344 C 562.988281 262.402344 563.414062 262.640625 563.753906 262.832031 C 563.984375 262.960938 564.164062 263.0625 564.453125 263.113281 C 564.78125 263.175781 565.027344 263.441406 565.0625 263.769531 C 565.101562 264.097656 564.917969 264.410156 564.613281 264.542969 C 562.433594 265.46875 559.976562 265.675781 558 265.839844 C 547.933594 266.679688 537.679688 267.140625 527.765625 267.585938 C 525.136719 267.703125 522.503906 267.820312 519.875 267.945312 L 519.773438 267.949219 C 517.726562 268.046875 516.265625 268.164062 515.40625 268.296875 C 516.101562 268.574219 517.449219 268.976562 520.03125 269.433594 C 521.59375 269.710938 523.195312 269.957031 524.742188 270.199219 C 525.414062 270.304688 526.089844 270.410156 526.761719 270.515625 C 528.878906 270.851562 530.53125 271.195312 531.671875 271.539062 C 532.726562 271.851562 533.847656 272.265625 533.746094 273.183594 C 533.65625 274.011719 532.75 274.355469 530.28125 274.492188 C 528.339844 274.597656 525.53125 274.550781 522.164062 274.351562 C 519.464844 274.191406 516.78125 273.710938 514.183594 273.246094 C 512.652344 272.972656 511.066406 272.691406 509.503906 272.476562 C 505.238281 271.902344 501.128906 272.179688 497.320312 272.566406 C 495.683594 272.730469 494.039062 272.933594 492.390625 273.171875 C 492.875 273.34375 493.34375 273.511719 493.800781 273.675781 C 498.246094 275.265625 501.757812 276.519531 507.773438 277.03125 C 509.300781 277.164062 510.066406 277.472656 510.328125 278.070312 C 510.488281 278.425781 510.429688 278.828125 510.171875 279.171875 C 508.945312 280.785156 500.585938 282.523438 493.375 281.460938 C 488.84375 280.792969 486.296875 280.5625 484.867188 280.507812 C 486.367188 281.046875 488.816406 281.734375 491.875 282.351562 C 497.1875 283.425781 502.015625 283.832031 505.125 283.46875 C 509.878906 282.914062 513.894531 281.914062 517.78125 280.949219 C 526.917969 278.679688 535.550781 276.535156 552.484375 279.976562 C 558.46875 281.195312 563.8125 281.265625 570.46875 280.066406 C 569.429688 279.199219 568.472656 278.167969 567.613281 276.976562 C 565.539062 274.09375 564.769531 271.324219 564.738281 271.210938 C 564.6875 271.015625 564.714844 270.808594 564.816406 270.632812 C 564.917969 270.460938 565.085938 270.335938 565.28125 270.285156 C 578.554688 266.9375 597.09375 260.785156 597.277344 260.722656 C 597.40625 260.679688 597.546875 260.671875 597.679688 260.703125 C 597.945312 260.761719 624.441406 266.675781 651.308594 266.699219 C 654.976562 266.703125 657.789062 266.671875 659.945312 266.617188 C 659.910156 266.285156 659.871094 265.941406 659.824219 265.585938 C 655.023438 264.863281 647.785156 263.953125 638.148438 262.847656 C 632.1875 262.167969 628.335938 259.59375 624.128906 247.628906 C 623.46875 249.433594 622.546875 250.910156 621.347656 252.128906 C 618.164062 255.378906 612.847656 256.921875 604.117188 257.132812 C 595.929688 257.335938 584.765625 256.394531 570.628906 255.207031 C 567.296875 254.929688 563.851562 254.636719 560.1875 254.339844 C 559.828125 254.3125 559.542969 254.035156 559.5 253.675781 C 559.480469 253.476562 557.261719 233.082031 558.121094 200.253906 C 558.625 180.980469 560.078125 161.246094 562.433594 141.601562 C 565.382812 117.046875 569.757812 92.558594 575.449219 68.824219 C 575.53125 68.484375 575.832031 68.246094 576.179688 68.246094 C 576.527344 68.25 576.828125 68.488281 576.90625 68.824219 C 577.175781 69.960938 603.394531 180.34375 623.789062 241.925781 C 624.027344 239.167969 623.929688 235.855469 623.515625 231.863281 C 620.519531 202.964844 593.703125 129.664062 593.433594 128.925781 C 593.304688 128.574219 593.453125 128.183594 593.78125 128.007812 C 594.113281 127.828125 594.519531 127.921875 594.742188 128.222656 C 614.960938 155.703125 634.203125 189.703125 647.527344 221.5 C 653.296875 235.269531 657.546875 247.675781 659.816406 257.375 C 660.410156 259.910156 660.855469 262.210938 661.160156 264.273438 C 663.085938 264.574219 664.546875 264.84375 665.605469 265.089844 C 667.09375 265.429688 668.140625 265.742188 668.089844 266.621094 C 668.039062 267.519531 667.128906 267.785156 663.449219 267.988281 C 662.882812 268.019531 662.257812 268.046875 661.570312 268.070312 C 661.824219 272.101562 661.308594 274.859375 660.015625 276.3125 C 657.3125 279.347656 652.957031 280.746094 645.457031 280.988281 C 637.089844 281.261719 624.144531 280.058594 604.710938 277.210938 C 593.917969 275.628906 588.914062 276.96875 578.945312 279.640625 L 578.269531 279.824219 C 576.925781 280.183594 575.644531 280.503906 574.40625 280.789062 C 575.730469 281.371094 577.160156 281.710938 578.6875 281.8125 C 584.726562 282.203125 589.476562 281.324219 594.070312 280.476562 C 600.042969 279.371094 605.683594 278.328125 613.0625 280.414062 C 622.402344 283.058594 631.457031 284.703125 637.902344 285.820312 C 639.117188 285.5625 640.421875 285.261719 641.839844 284.917969 C 644.382812 284.300781 646.574219 283.753906 648.507812 283.273438 C 660 280.40625 662.070312 279.890625 670.863281 281.644531 C 678.898438 283.25 685.804688 284.246094 692.160156 284.707031 C 689.980469 284.210938 687.558594 283.597656 685.1875 282.839844 C 681.117188 281.542969 680.429688 281.007812 680.539062 280.148438 C 680.675781 279.078125 682.109375 279 685.945312 278.78125 C 687.996094 278.664062 690.554688 278.519531 692.792969 278.167969 C 695.164062 277.796875 696.726562 277.417969 697.984375 277.117188 C 700.78125 276.441406 702.058594 276.136719 706.773438 277.121094 C 713.886719 278.609375 723.945312 279.515625 730.835938 277.601562 C 731.050781 277.542969 731.4375 277.433594 731.839844 277.3125 C 731.621094 277.261719 731.390625 277.210938 731.160156 277.160156 C 729.480469 276.789062 727.023438 276.242188 724.0625 275.28125 C 715.363281 274.824219 708.578125 273.359375 705.050781 271.726562 C 700.089844 269.429688 696.101562 264.261719 695.9375 264.042969 C 695.761719 263.816406 695.734375 263.507812 695.859375 263.253906 C 695.988281 263 696.246094 262.835938 696.53125 262.835938 C 696.535156 262.835938 696.546875 262.835938 696.566406 262.835938 C 696.816406 262.835938 698.511719 262.832031 701.261719 262.761719 C 699.9375 261.441406 699.40625 260.335938 699.609375 259.363281 C 700 257.457031 702.921875 257.257812 703.882812 257.191406 C 711.855469 256.648438 715.15625 256.039062 716.507812 255.660156 C 713.558594 254.992188 704.070312 254.363281 687.625 255.175781 C 687.234375 255.195312 686.898438 254.914062 686.847656 254.527344 C 686.8125 254.292969 683.59375 230.5625 682.132812 201.746094 C 681.273438 184.816406 681.179688 169.460938 681.855469 156.113281 C 682.699219 139.394531 684.761719 125.777344 687.984375 115.640625 C 688.09375 115.292969 688.445312 115.078125 688.804688 115.128906 C 689.164062 115.179688 689.4375 115.484375 689.449219 115.847656 C 689.453125 116.046875 690.058594 135.988281 694.714844 163.75 C 697.402344 179.78125 701.828125 200.546875 708.96875 222.210938 C 703.476562 202.730469 696.761719 173.257812 691.300781 132.035156 C 691.25 131.660156 691.484375 131.308594 691.851562 131.210938 C 692.21875 131.117188 692.597656 131.304688 692.738281 131.65625 C 692.816406 131.851562 700.65625 151.285156 710.910156 173.449219 C 724.464844 202.742188 736.070312 223.476562 744.464844 233.414062 C 746.992188 236.40625 747.890625 239.199219 747.132812 241.722656 C 745.574219 246.917969 737.292969 249.988281 729.394531 252.308594 C 725.289062 253.519531 723.976562 254.910156 724.117188 255.8125 C 724.34375 257.289062 727.878906 259.09375 735.007812 260.042969 C 738.753906 259.515625 742.558594 258.886719 746.316406 258.144531 C 770.070312 253.433594 776.894531 253.40625 785.867188 254.441406 C 786.121094 254.46875 786.339844 254.621094 786.453125 254.847656 C 786.566406 255.074219 786.558594 255.339844 786.433594 255.558594 C 786.339844 255.71875 784.417969 259.023438 780.796875 262.199219 C 784.539062 262.125 792.863281 262.015625 804.589844 262.257812 C 810.054688 262.367188 813.84375 261.089844 817.472656 259.5 C 813.988281 257.914062 812.078125 256.34375 811.960938 256.246094 C 811.753906 256.074219 811.65625 255.800781 811.703125 255.535156 C 811.75 255.269531 811.9375 255.050781 812.191406 254.960938 C 812.269531 254.933594 820.015625 252.199219 825.277344 249.921875 C 830.496094 247.664062 834.246094 247.753906 839.753906 248.746094 C 842.085938 249.167969 843.847656 249.378906 845.414062 249.5 C 844.601562 248.375 843.679688 246.960938 842.59375 245.195312 C 839.925781 245.027344 836.878906 244.699219 833.410156 244.152344 C 817.742188 241.691406 811.703125 244.589844 811.644531 244.621094 C 811.460938 244.710938 811.246094 244.726562 811.054688 244.65625 C 810.863281 244.585938 810.703125 244.441406 810.621094 244.253906 C 804.816406 231.148438 800.367188 213.824219 798.089844 195.472656 C 795.660156 175.894531 795.894531 157.183594 798.765625 141.359375 C 798.832031 141.011719 799.128906 140.757812 799.480469 140.746094 C 799.828125 140.738281 800.148438 140.96875 800.230469 141.3125 C 801.558594 146.617188 804.023438 154.171875 807.105469 162.722656 C 807.070312 161.207031 807.035156 159.65625 806.996094 158.074219 C 806.988281 157.722656 807.226562 157.410156 807.570312 157.328125 C 807.914062 157.246094 808.269531 157.414062 808.421875 157.734375 C 821.566406 185.171875 835.09375 206.347656 844.128906 219.277344 C 853.914062 233.292969 860.679688 240.914062 860.75 240.988281 C 860.992188 241.261719 861.003906 241.667969 860.773438 241.953125 C 860.683594 242.066406 859.585938 243.359375 856.058594 244.3125 C 861.550781 246.570312 864.621094 248.035156 865.351562 250.238281 C 865.71875 251.347656 865.484375 252.539062 864.609375 253.980469 C 864 254.988281 863.882812 255.8125 864.253906 256.5 C 866.089844 259.886719 878.617188 260.3125 883.96875 260.492188 C 885.992188 260.558594 887.4375 260.636719 888.390625 260.730469 C 889.382812 260.824219 890.320312 260.917969 890.355469 261.726562 C 890.390625 262.574219 889.433594 262.722656 888.109375 262.925781 C 887.117188 263.078125 885.804688 263.238281 884.410156 263.40625 C 883.558594 263.511719 882.539062 263.632812 881.574219 263.761719 C 888.726562 264.152344 900.140625 262.695312 908.699219 261.597656 C 911.179688 261.28125 913.324219 261.007812 915.085938 260.8125 C 922.976562 259.941406 931.6875 260.136719 942.503906 261.417969 C 950.195312 262.328125 1011.6875 262.402344 1031.117188 262.402344 C 1031.261719 262.402344 1031.402344 262.402344 1031.546875 262.402344 L 1032.074219 262.402344 C 1032.488281 262.402344 1032.824219 262.738281 1032.824219 263.152344 C 1032.824219 263.566406 1032.488281 263.902344 1032.074219 263.902344 L 1031.546875 263.902344 C 1031.382812 263.902344 1031.21875 263.902344 1031.054688 263.902344 C 1006.496094 263.902344 949.894531 263.800781 942.328125 262.90625 C 931.625 261.636719 923.023438 261.449219 915.253906 262.304688 C 913.5 262.496094 911.363281 262.769531 908.890625 263.085938 C 899.320312 264.308594 886.210938 265.988281 879.207031 265.054688 C 878.117188 264.90625 876.992188 264.757812 876.996094 263.859375 C 877.003906 263.042969 877.875 262.8125 879.730469 262.515625 C 880.851562 262.332031 882.277344 262.15625 883.699219 261.984375 C 874.695312 261.671875 864.988281 261.007812 862.9375 257.214844 C 862.296875 256.035156 862.429688 254.683594 863.328125 253.203125 C 864.15625 251.839844 864.066406 251.128906 863.929688 250.710938 C 863.328125 248.898438 859.609375 247.367188 853.441406 244.863281 C 851.15625 245.230469 848.207031 245.429688 844.421875 245.289062 C 845.597656 247.171875 846.5625 248.578125 847.378906 249.617188 C 847.917969 249.640625 848.457031 249.660156 849.007812 249.679688 C 850.230469 249.722656 851.496094 249.765625 853.035156 249.875 C 854.6875 249.992188 855.558594 250.339844 855.855469 251 C 856.035156 251.394531 855.96875 251.847656 855.675781 252.234375 C 854.886719 253.273438 852.328125 254.019531 850.515625 253.742188 C 849.289062 253.554688 848.164062 252.898438 846.636719 251.082031 C 844.671875 250.976562 842.570312 250.777344 839.488281 250.222656 C 834.164062 249.261719 830.769531 249.179688 825.871094 251.300781 C 821.890625 253.023438 816.507812 255 814.035156 255.894531 C 815.09375 256.597656 816.886719 257.664062 819.328125 258.664062 C 819.5 258.585938 819.667969 258.507812 819.839844 258.429688 C 824.550781 256.253906 829.425781 254.007812 837.359375 254.582031 C 842.570312 254.960938 846.277344 256.316406 850.203125 257.753906 C 853.851562 259.089844 857.628906 260.472656 862.882812 261.101562 C 863.914062 261.226562 864.472656 261.382812 864.660156 261.890625 C 864.765625 262.171875 864.703125 262.492188 864.496094 262.71875 C 864.058594 263.199219 862.363281 263.378906 859.457031 263.25 C 857.648438 263.171875 854 262.871094 849.894531 261.773438 C 842.738281 259.863281 838.792969 260.707031 834.976562 261.519531 C 831.703125 262.214844 828.609375 262.875 823.925781 261.730469 C 822.238281 261.316406 820.714844 260.820312 819.363281 260.296875 C 815.3125 262.144531 810.972656 263.886719 804.558594 263.753906 C 788.410156 263.425781 778.734375 263.75 778.640625 263.753906 C 778.308594 263.765625 778.015625 263.5625 777.90625 263.253906 C 777.796875 262.945312 777.902344 262.601562 778.164062 262.40625 C 781.332031 260.046875 783.492188 257.25 784.492188 255.796875 C 776.230469 254.925781 769.070312 255.160156 746.605469 259.613281 C 744.84375 259.964844 743.070312 260.285156 741.296875 260.585938 C 743.605469 260.695312 746.148438 260.726562 748.941406 260.664062 C 767.761719 260.238281 776.90625 257.675781 776.996094 257.652344 C 777.304688 257.5625 777.636719 257.679688 777.820312 257.945312 C 778 258.210938 777.992188 258.5625 777.800781 258.820312 C 777.691406 258.964844 775.074219 262.402344 768.976562 266.136719 C 763.390625 269.558594 753.6875 273.882812 739.171875 275.050781 C 736.09375 275.296875 733.125 275.417969 730.296875 275.429688 C 730.730469 275.527344 731.125 275.617188 731.488281 275.695312 C 733.78125 276.207031 734.554688 276.378906 734.578125 277.21875 C 734.597656 278.066406 733.734375 278.351562 731.238281 279.042969 C 722.238281 281.542969 710.003906 279.328125 706.46875 278.585938 C 702.082031 277.671875 700.984375 277.933594 698.332031 278.574219 C 697.050781 278.882812 695.457031 279.265625 693.027344 279.648438 C 690.710938 280.011719 688.113281 280.160156 686.027344 280.277344 C 684.976562 280.335938 683.84375 280.402344 683.007812 280.488281 C 683.5625 280.710938 684.394531 281.011719 685.644531 281.410156 C 690.507812 282.960938 695.601562 283.917969 698.339844 284.433594 C 699.070312 284.570312 699.648438 284.679688 700.054688 284.765625 C 700.59375 284.882812 701.328125 285.039062 701.253906 285.765625 C 701.175781 286.492188 700.453125 286.5 699.8125 286.503906 C 699.355469 286.507812 698.660156 286.5 697.5625 286.472656 C 689.613281 286.273438 681.039062 285.203125 670.570312 283.113281 C 662.105469 281.421875 660.34375 281.863281 648.871094 284.726562 C 646.9375 285.207031 644.742188 285.753906 642.191406 286.375 C 642.039062 286.410156 641.882812 286.445312 641.734375 286.484375 C 643.210938 286.742188 644.4375 286.96875 645.390625 287.175781 C 647.109375 287.546875 648.152344 287.835938 648.113281 288.726562 C 648.074219 289.601562 647.117188 289.871094 644.273438 290.238281 C 642.210938 290.503906 639.007812 290.804688 633.882812 291.222656 C 633.199219 291.277344 632.53125 291.332031 631.886719 291.382812 C 627.488281 291.734375 622.960938 292.097656 621.339844 292.550781 C 621.816406 292.785156 622.726562 293.148438 624.476562 293.667969 C 638.191406 297.722656 656.765625 300 674.144531 299.753906 C 678.394531 299.695312 679.335938 300.234375 679.480469 301.121094 C 679.648438 302.164062 678.253906 302.839844 677.050781 303.226562 C 672.15625 304.785156 667.277344 305.945312 662.5625 307.070312 C 659.554688 307.785156 656.445312 308.523438 653.382812 309.359375 C 653.269531 309.386719 653.148438 309.421875 653.019531 309.453125 C 651.652344 309.820312 648.804688 310.578125 648.226562 311.753906 C 648.226562 311.839844 648.371094 312.558594 652.144531 313.953125 C 652.273438 314 652.378906 314.039062 652.449219 314.066406 C 663.046875 318.199219 674.40625 319.628906 685.390625 321.007812 C 689.53125 321.527344 693.8125 322.0625 698.007812 322.738281 C 698.390625 322.800781 699.6875 323.070312 700.269531 323.96875 C 700.527344 324.363281 700.597656 324.808594 700.480469 325.257812 C 700.359375 325.714844 700.066406 326.035156 699.769531 326.316406 C 697.144531 328.78125 693.585938 329.921875 690.167969 330.878906 C 683.492188 332.75 676.597656 334.316406 669.683594 335.542969 C 667.53125 335.925781 665.1875 336.457031 663.953125 337.917969 C 670.054688 340.421875 675.269531 342.273438 680.300781 343.722656 C 680.660156 343.824219 680.886719 344.175781 680.835938 344.546875 C 680.78125 344.917969 680.464844 345.191406 680.09375 345.191406 L 680.039062 345.191406 Z M 606.578125 329.929688 C 607.007812 330.324219 608.332031 330.960938 610.519531 331.828125 C 613.113281 332.851562 617 334.078125 622.402344 335.578125 C 625.167969 336.347656 628.042969 336.9375 630.820312 337.507812 C 631.304688 337.609375 631.792969 337.710938 632.277344 337.808594 C 647.539062 340.984375 659.964844 342.773438 671.386719 343.441406 C 672.527344 343.507812 673.683594 343.5625 674.835938 343.601562 C 671.035156 342.339844 667.027344 340.828125 662.539062 338.964844 C 662.347656 338.886719 662.195312 338.730469 662.125 338.53125 C 662.050781 338.335938 662.066406 338.121094 662.160156 337.933594 C 663.488281 335.324219 666.605469 334.574219 669.421875 334.074219 C 676.289062 332.855469 683.132812 331.296875 689.761719 329.441406 C 693.136719 328.5 696.363281 327.464844 698.742188 325.230469 C 698.8125 325.164062 699.003906 324.984375 699.027344 324.882812 C 699.039062 324.847656 699.039062 324.832031 699.011719 324.792969 C 698.882812 324.589844 698.382812 324.324219 697.769531 324.226562 C 693.597656 323.554688 689.328125 323.019531 685.203125 322.5 C 674.125 321.109375 662.671875 319.671875 651.90625 315.46875 C 651.839844 315.445312 651.742188 315.410156 651.625 315.367188 C 649.546875 314.597656 647.351562 313.640625 646.839844 312.355469 C 646.667969 311.933594 646.683594 311.5 646.882812 311.097656 C 647.761719 309.3125 650.8125 308.5 652.632812 308.011719 C 652.761719 307.980469 652.878906 307.949219 652.988281 307.917969 C 656.074219 307.078125 659.195312 306.335938 662.214844 305.617188 C 666.902344 304.5 671.753906 303.347656 676.59375 301.804688 C 676.984375 301.679688 677.292969 301.546875 677.523438 301.429688 C 676.988281 301.332031 675.988281 301.234375 674.164062 301.261719 C 673.316406 301.273438 672.457031 301.277344 671.601562 301.277344 C 654.828125 301.277344 637.230469 299.007812 624.046875 295.113281 C 620.4375 294.042969 619.308594 293.378906 619.414062 292.375 C 619.558594 290.992188 621.570312 290.710938 631.765625 289.894531 C 632.410156 289.84375 633.074219 289.789062 633.757812 289.734375 C 636.738281 289.492188 642.140625 289.054688 645.007812 288.632812 C 643.5625 288.328125 641.449219 287.960938 639.261719 287.585938 C 638.832031 287.511719 638.390625 287.433594 637.929688 287.355469 C 629.621094 289.117188 625.304688 289.085938 615.914062 289.015625 C 613.558594 289 610.886719 288.980469 607.753906 288.984375 C 603.636719 288.992188 599.8125 291.109375 596.117188 293.15625 L 595.757812 293.355469 C 588.234375 297.515625 579.804688 300.339844 571.277344 301.570312 C 572.011719 301.898438 572.921875 302.019531 573.722656 302.078125 C 578.90625 302.472656 584.054688 301.90625 589.027344 300.398438 C 589.890625 300.136719 590.773438 299.839844 591.625 299.554688 C 594.507812 298.578125 597.488281 297.574219 600.617188 297.628906 C 604.457031 297.695312 608.160156 299.171875 611.738281 300.601562 C 613.4375 301.28125 615.046875 301.925781 616.664062 302.425781 C 623.246094 304.492188 630.199219 305.773438 637.332031 306.242188 C 639.804688 306.402344 642.421875 306.808594 644.953125 307.199219 C 645.75 307.324219 646.535156 307.445312 647.304688 307.558594 C 647.664062 307.609375 647.933594 307.910156 647.945312 308.273438 C 647.957031 308.636719 647.710938 308.957031 647.355469 309.03125 C 637.015625 311.289062 626.367188 309.683594 616.070312 308.128906 C 609.585938 307.148438 602.878906 306.136719 596.308594 306.097656 C 592.332031 306.074219 588.339844 306.40625 584.617188 306.769531 C 578.984375 307.320312 573.332031 308.003906 567.699219 308.824219 C 568.179688 309.015625 568.660156 309.210938 569.140625 309.40625 C 570.496094 309.953125 571.898438 310.519531 573.273438 311.046875 C 590.78125 317.761719 609.875 320.128906 628.488281 317.894531 C 634.023438 317.234375 638.535156 318.382812 644.019531 320.453125 C 649.558594 322.542969 655.308594 324.171875 661.117188 325.300781 C 661.425781 325.363281 661.664062 325.605469 661.714844 325.914062 C 661.765625 326.222656 661.621094 326.53125 661.347656 326.6875 C 658.832031 328.132812 655.816406 328.015625 653.191406 327.789062 C 649.578125 327.480469 645.941406 326.96875 642.382812 326.273438 C 642.058594 326.210938 641.730469 326.144531 641.40625 326.078125 C 639.394531 325.675781 637.3125 325.257812 635.269531 325.257812 C 635.234375 325.257812 635.199219 325.257812 635.167969 325.257812 C 633.1875 325.273438 631.1875 325.683594 629.25 326.078125 C 626.074219 326.726562 622.828125 327.199219 619.683594 327.652344 L 618.945312 327.757812 C 617.636719 327.949219 616.292969 328.167969 614.996094 328.382812 C 613.332031 328.65625 611.609375 328.941406 609.90625 329.167969 C 607.710938 329.457031 606.882812 329.769531 606.578125 329.933594 Z M 374.863281 317.671875 C 378.074219 318.578125 381.320312 319.351562 384.597656 319.898438 C 391.972656 321.125 398.71875 321.03125 404.710938 319.621094 C 397.945312 319.152344 390.925781 318.207031 384.132812 315.765625 C 381.070312 316.558594 377.976562 317.195312 374.863281 317.671875 Z M 512.261719 314.542969 C 523.230469 315.703125 534.457031 313.4375 545.347656 311.242188 C 546.878906 310.933594 548.460938 310.613281 550.015625 310.3125 C 553.9375 309.542969 557.890625 308.839844 561.855469 308.199219 C 558.191406 306.921875 554.445312 305.933594 550.609375 305.769531 C 545.285156 305.542969 540.003906 306.886719 534.894531 308.1875 C 530.425781 309.324219 526.042969 310.597656 521.804688 311.832031 C 518.695312 312.734375 515.507812 313.660156 512.261719 314.542969 Z M 284.933594 305.109375 C 292.789062 307.628906 301.84375 308.285156 313.09375 307.175781 C 318.949219 306.601562 324.785156 305.71875 330.554688 304.53125 C 329.011719 304.003906 327.476562 303.429688 325.960938 302.804688 L 325.757812 302.722656 C 324.78125 302.324219 323.859375 301.945312 322.902344 301.820312 C 322.101562 301.71875 321.242188 301.796875 320.414062 301.871094 Z M 231.0625 274.785156 C 235 284.871094 246.34375 291.5625 260.941406 292.320312 C 276.605469 293.140625 295.828125 289.644531 308.542969 287.332031 C 323.285156 284.652344 331.496094 285.417969 347.222656 288.929688 C 351.628906 289.914062 356.410156 290.980469 361.398438 291.894531 C 363.359375 291.164062 364.949219 290.0625 366.160156 288.480469 C 370.066406 283.382812 371.746094 279.578125 372.3125 278.097656 C 368.414062 276.816406 348.730469 270.765625 320.605469 269.382812 C 313.222656 269.019531 311.890625 268.046875 310.445312 264.339844 C 306.648438 264.421875 302.8125 264.644531 299.03125 265.058594 C 283.058594 266.8125 268.191406 269.144531 255.074219 271.203125 C 246.648438 272.527344 238.675781 273.777344 231.0625 274.785156 Z M 405.015625 280.496094 C 409.886719 281.304688 415.105469 282.113281 420.226562 282.84375 C 432.269531 284.558594 439.667969 285.253906 442.726562 285.253906 L 442.734375 285.253906 C 441.6875 284.847656 439.851562 284.238281 436.652344 283.347656 C 434.414062 282.726562 432.445312 282.070312 430.710938 281.492188 C 425.878906 279.886719 422.386719 278.722656 417.25 279.441406 C 413.644531 279.949219 409.675781 280.199219 406.171875 280.421875 C 405.792969 280.445312 405.40625 280.472656 405.015625 280.496094 Z M 98.359375 283 C 98.679688 283.148438 99.59375 283.425781 102.015625 283.445312 C 102.058594 283.445312 102.109375 283.445312 102.152344 283.445312 C 107.078125 283.445312 113.179688 281.402344 120.238281 279.039062 C 121.054688 278.765625 121.882812 278.488281 122.722656 278.210938 C 121.402344 278.246094 120.199219 278.304688 119.125 278.375 C 113.703125 278.71875 108.425781 279.515625 104.261719 280.617188 C 100.328125 281.652344 98.777344 282.589844 98.359375 283 Z M 566.425781 271.546875 C 566.78125 272.515625 567.542969 274.320312 568.859375 276.144531 C 569.917969 277.605469 571.109375 278.789062 572.425781 279.691406 C 574.144531 279.332031 575.953125 278.898438 577.882812 278.378906 L 578.558594 278.199219 C 588.402344 275.558594 593.828125 274.101562 604.929688 275.730469 C 644.78125 281.574219 654.640625 280.09375 658.894531 275.320312 C 659.574219 274.554688 660.371094 272.6875 660.074219 268.121094 C 657.738281 268.179688 654.84375 268.207031 651.308594 268.203125 C 625.523438 268.183594 600.089844 262.769531 597.554688 262.214844 C 595.558594 262.875 578.9375 268.335938 566.425781 271.546875 Z M 443.738281 276.472656 C 450.792969 278.382812 460.890625 279.941406 469.921875 276.96875 C 470.582031 276.75 471.246094 276.535156 471.894531 276.332031 C 476.640625 274.847656 481.410156 273.636719 486.160156 272.714844 C 479.667969 270.828125 475.507812 271.769531 468.671875 273.316406 C 466.902344 273.714844 464.898438 274.171875 462.667969 274.609375 C 456.367188 275.855469 449.976562 276.164062 445.742188 276.367188 C 445.058594 276.402344 444.367188 276.433594 443.738281 276.472656 Z M 724.304688 273.789062 C 728.695312 274.023438 733.652344 273.996094 739.050781 273.5625 C 753.21875 272.425781 762.675781 268.230469 768.113281 264.914062 C 771.390625 262.917969 773.640625 260.992188 774.996094 259.667969 C 771.148438 260.46875 762.648438 261.859375 748.976562 262.171875 C 743.707031 262.289062 738.960938 262.082031 734.96875 261.566406 C 723.488281 263.167969 712.578125 263.847656 705.335938 264.132812 C 707.554688 265.691406 710.921875 267.726562 716.023438 270.34375 C 719.019531 271.875 721.832031 272.980469 724.304688 273.789062 Z M 698.128906 264.328125 C 699.582031 265.964844 702.453125 268.878906 705.679688 270.371094 C 707.992188 271.441406 712.601562 272.648438 718.898438 273.347656 C 717.75 272.855469 716.558594 272.300781 715.339844 271.675781 C 710.019531 268.949219 705.980469 266.546875 703.335938 264.539062 C 703.195312 264.429688 703.058594 264.324219 702.921875 264.21875 C 700.863281 264.285156 699.230469 264.316406 698.128906 264.328125 Z M 392.5 272.851562 C 393.117188 273.015625 393.773438 273.128906 394.472656 273.183594 C 399.710938 273.570312 405.9375 272.679688 411.078125 271.011719 C 409.023438 270.800781 407.046875 270.648438 405.175781 270.660156 C 400.902344 270.6875 398.324219 271.351562 394.425781 272.355469 C 393.816406 272.511719 393.179688 272.679688 392.5 272.847656 Z M 385.320312 267.101562 C 386.011719 268.273438 387.566406 270.472656 390.128906 271.890625 C 391.605469 271.535156 392.882812 271.207031 394.050781 270.90625 C 398.058594 269.875 400.707031 269.191406 405.167969 269.160156 C 408.007812 269.144531 411.007812 269.484375 414.183594 269.851562 C 415.910156 269.109375 417.421875 268.269531 418.605469 267.363281 C 420.433594 265.960938 421.625 264.40625 422.355469 262.8125 C 416.039062 262.507812 408.359375 262.054688 400.144531 261.386719 C 398.851562 262.011719 391.527344 265.5 385.320312 267.101562 Z M 416.964844 270.171875 C 421.734375 270.691406 426.535156 271.007812 430.777344 269.890625 C 434.617188 268.878906 437.15625 265.503906 437.863281 263.378906 C 435.882812 263.335938 430.84375 263.203125 423.957031 262.886719 C 423.089844 265.050781 421.601562 266.953125 419.519531 268.550781 C 418.777344 269.117188 417.917969 269.660156 416.964844 270.171875 Z M 313.835938 262.804688 C 331.5 262.804688 347.679688 265.625 352.710938 266.59375 C 343.945312 250.757812 334.65625 230.945312 325.082031 207.671875 C 317.199219 188.5 309.105469 166.953125 301.027344 143.621094 C 290.015625 111.824219 282.015625 85.269531 279.214844 75.78125 C 278.601562 82.285156 278.117188 88.550781 277.75 94.574219 C 277.902344 95.605469 278.058594 96.644531 278.214844 97.683594 C 285.328125 145.136719 295.785156 208.378906 305.199219 240.207031 C 305.292969 240.527344 305.164062 240.871094 304.882812 241.050781 C 304.601562 241.230469 304.234375 241.203125 303.984375 240.984375 C 303.882812 240.894531 301.421875 238.707031 297.949219 233.367188 C 294.773438 228.480469 290.101562 219.882812 285.898438 206.703125 C 281.179688 191.921875 277.992188 174.488281 276.421875 154.878906 C 274.957031 136.621094 274.898438 116.425781 276.238281 94.617188 C 269.878906 51.9375 265.074219 14.664062 263.761719 4.351562 C 236.554688 70.890625 224.664062 135.714844 219.480469 178.605469 C 214.253906 221.867188 214.617188 252.007812 214.71875 256.871094 C 242.035156 258.246094 265.394531 256.09375 280.230469 254.039062 C 296.445312 251.792969 306.25 249.171875 306.347656 249.144531 C 306.738281 249.039062 307.144531 249.265625 307.261719 249.65625 C 307.285156 249.734375 309.65625 257.703125 311.207031 262.054688 L 311.355469 262.464844 C 311.398438 262.585938 311.441406 262.703125 311.480469 262.820312 C 312.269531 262.808594 313.054688 262.804688 313.835938 262.804688 Z M 661.367188 265.828125 C 661.394531 266.082031 661.421875 266.332031 661.449219 266.578125 C 662.847656 266.53125 663.894531 266.472656 664.679688 266.414062 C 663.824219 266.238281 662.71875 266.042969 661.367188 265.828125 Z M 624.847656 245.089844 C 624.976562 245.472656 625.105469 245.851562 625.230469 246.230469 C 629.707031 259.402344 633.476562 260.8125 638.316406 261.363281 C 647.964844 262.46875 654.9375 263.34375 659.609375 264.039062 C 659.328125 262.226562 658.921875 260.132812 658.355469 257.722656 C 656.105469 248.101562 651.882812 235.78125 646.144531 222.085938 C 633.546875 192.023438 615.648438 159.992188 596.640625 133.402344 C 599.132812 140.375 603.886719 153.890625 608.773438 169.003906 C 615.308594 189.210938 623.429688 216.5 625.007812 231.710938 C 625.589844 237.328125 625.554688 241.679688 624.847656 245.089844 Z M 701.953125 253.300781 C 704.863281 253.300781 707.53125 253.359375 709.855469 253.472656 C 712.476562 253.605469 714.546875 253.800781 716.019531 254.054688 C 717.644531 254.339844 718.742188 254.707031 718.792969 255.585938 C 718.847656 256.523438 717.804688 257.042969 714.808594 257.5625 C 712.320312 257.992188 708.679688 258.375 703.984375 258.695312 C 701.960938 258.832031 701.152344 259.289062 701.074219 259.667969 C 701.042969 259.820312 701.011719 260.6875 703.445312 262.699219 C 708.308594 262.539062 715.355469 262.183594 723.300781 261.421875 C 722.855469 260.597656 721.859375 258.675781 720.453125 255.484375 C 714.128906 241.964844 708.570312 227.042969 703.894531 211.019531 C 699.5625 196.164062 695.972656 180.335938 693.230469 163.976562 C 689.859375 143.878906 688.605469 127.863281 688.167969 120.421875 C 682.210938 143.222656 682.367188 176.792969 683.628906 201.675781 C 684.949219 227.710938 687.707031 249.570312 688.238281 253.648438 C 693.128906 253.417969 697.792969 253.300781 701.953125 253.300781 Z M 841.910156 259.128906 C 844.222656 259.128906 846.933594 259.441406 850.28125 260.332031 C 852.765625 260.996094 855.136719 261.378906 857.171875 261.585938 C 854.394531 260.894531 852.015625 260.023438 849.6875 259.171875 C 845.863281 257.769531 842.25 256.449219 837.25 256.085938 C 830.148438 255.570312 825.757812 257.371094 821.304688 259.410156 C 822.230469 259.726562 823.222656 260.019531 824.28125 260.28125 C 828.632812 261.347656 831.5625 260.71875 834.664062 260.058594 C 836.769531 259.609375 839.035156 259.128906 841.910156 259.128906 Z M 424.441406 261.40625 C 425.78125 261.46875 427.042969 261.523438 428.226562 261.570312 C 425.613281 260.808594 425.105469 259.976562 425.0625 259.210938 C 424.992188 257.839844 426.765625 256.75 430.8125 255.671875 C 434.046875 254.8125 438.464844 254.058594 443.652344 253.476562 C 432.65625 235.230469 421.863281 210.710938 414.691406 193.199219 C 409.304688 180.054688 405.109375 168.820312 402.964844 162.9375 C 403.167969 168.203125 403.585938 173.574219 404.15625 178.917969 C 411.296875 211.160156 419.46875 238.53125 423.699219 251.96875 C 423.84375 252.429688 423.957031 252.785156 424.03125 253.03125 C 424.964844 256.039062 425.105469 258.855469 424.445312 261.40625 Z M 722.027344 255.308594 C 722.953125 257.273438 723.902344 259.230469 724.882812 261.175781 C 724.894531 261.203125 724.90625 261.234375 724.917969 261.261719 C 726.605469 261.089844 728.332031 260.902344 730.078125 260.691406 C 730.058594 260.683594 730.035156 260.679688 730.011719 260.671875 C 725.484375 259.574219 722.933594 257.972656 722.632812 256.046875 C 722.410156 254.605469 723.328125 252.539062 728.972656 250.878906 C 736.042969 248.800781 744.335938 245.832031 745.695312 241.296875 C 746.308594 239.265625 745.53125 237.003906 743.316406 234.386719 C 734.714844 224.207031 723.355469 203.914062 709.546875 174.078125 C 702.515625 158.882812 696.617188 144.964844 693.570312 137.636719 C 700.011719 183.953125 707.957031 214.652344 713.589844 232.46875 C 717.007812 243.269531 719.992188 250.714844 722.03125 255.308594 Z M 393.226562 127.339844 C 391.820312 133.679688 389.015625 147.097656 386.289062 164.652344 C 382.789062 187.21875 378.710938 221.394531 379.066406 256.523438 C 383.039062 255.589844 399.207031 252.140625 417.867188 253.082031 C 416.84375 249.625 413.417969 237.773438 409.980469 222.335938 C 407.359375 210.574219 404.363281 195.007812 402.671875 179.160156 C 399.039062 162.746094 395.671875 145.078125 393.226562 127.339844 Z M 560.929688 252.902344 C 564.367188 253.183594 567.613281 253.453125 570.753906 253.71875 C 598.71875 256.066406 614.121094 257.363281 620.277344 251.085938 C 621.714844 249.617188 622.714844 247.703125 623.296875 245.183594 C 604.652344 189.773438 580.65625 90.878906 576.179688 72.242188 C 563.921875 124.589844 560.398438 170.632812 559.621094 200.265625 C 558.84375 229.839844 560.570312 249.277344 560.929688 252.902344 Z M 848.78125 251.179688 C 849.519531 251.859375 850.140625 252.171875 850.742188 252.265625 C 852.035156 252.464844 853.5625 251.964844 854.203125 251.566406 C 853.964844 251.5 853.566406 251.421875 852.929688 251.378906 C 851.417969 251.273438 850.164062 251.226562 848.953125 251.183594 C 848.894531 251.183594 848.839844 251.179688 848.78125 251.179688 Z M 843.46875 243.75 C 846.269531 243.898438 848.613281 243.855469 850.5625 243.699219 C 847.800781 242.566406 844.609375 241.226562 841.015625 239.589844 C 841.917969 241.15625 842.730469 242.535156 843.46875 243.75 Z M 821.8125 241.660156 C 824.953125 241.660156 828.859375 241.925781 833.640625 242.679688 C 836.625 243.148438 839.28125 243.453125 841.644531 243.632812 C 840.757812 242.144531 839.769531 240.445312 838.660156 238.503906 C 836.675781 237.574219 834.578125 236.554688 832.378906 235.4375 C 820.796875 229.554688 814.445312 222.015625 811.140625 210.230469 C 808.191406 199.71875 807.667969 185.980469 807.214844 167.398438 C 803.910156 158.433594 801.300781 150.703125 799.675781 145.011719 C 794.386719 179.15625 801.523438 219.550781 811.699219 242.988281 C 813.023438 242.515625 816.191406 241.660156 821.8125 241.660156 Z M 839.726562 237.347656 C 845.257812 239.925781 849.917969 241.824219 853.609375 243.320312 C 856.765625 242.769531 858.394531 241.910156 859.121094 241.410156 C 857.371094 239.378906 851.222656 232.058594 842.917969 220.171875 C 834.191406 207.683594 821.292969 187.539062 808.578125 161.503906 C 808.585938 161.917969 808.597656 162.332031 808.605469 162.738281 C 808.640625 164.230469 808.675781 165.691406 808.710938 167.125 C 817.351562 190.488281 829.675781 219.375 836.113281 230.925781 C 837.445312 233.316406 838.644531 235.445312 839.730469 237.347656 Z M 277.34375 101.988281 C 274.90625 153.507812 281.066406 186.550781 287.265625 206.054688 C 291.40625 219.101562 296.003906 227.597656 299.128906 232.429688 C 300.601562 234.703125 301.890625 236.398438 302.882812 237.589844 C 293.949219 205.789062 284.21875 147.484375 277.34375 101.988281 Z M 808.824219 171.710938 C 809.261719 188.003906 809.917969 200.316406 812.582031 209.824219 C 815.765625 221.167969 821.886719 228.429688 833.058594 234.101562 C 834.542969 234.855469 835.980469 235.566406 837.371094 236.230469 C 836.574219 234.820312 835.71875 233.296875 834.804688 231.65625 C 830.230469 223.445312 822.640625 206.546875 815.003906 187.546875 C 812.785156 182.035156 810.710938 176.714844 808.824219 171.710938 Z M 808.824219 171.710938 " fill-opacity="1" fill-rule="nonzero"></path></g><g clip-path="url(#fe7bc22fec)"><path fill="#99815f" d="M 147.296875 143.578125 C 140.59375 144.390625 134.015625 149.003906 130.539062 155.332031 L 130.238281 155.875 L 130.113281 155.515625 C 129.476562 153.628906 127.40625 152.757812 125.066406 153.386719 C 124.78125 153.464844 124.351562 153.503906 123.851562 153.5 C 117.578125 153.4375 112.3125 160.222656 112.328125 168.347656 C 112.339844 175.472656 116.445312 180.765625 121.960938 180.769531 C 122.796875 180.769531 122.785156 180.644531 121.929688 180.460938 C 121.183594 180.300781 120.296875 180.007812 119.945312 179.804688 C 119.738281 179.6875 119.722656 179.664062 119.871094 179.699219 C 120.890625 179.925781 124.007812 179.925781 124.902344 179.699219 C 125.945312 179.433594 125.296875 179.128906 123.03125 178.816406 C 119.589844 178.339844 117.898438 177.632812 116.574219 176.117188 C 114.175781 173.375 113.953125 169.320312 115.964844 165.105469 C 116.480469 164.027344 117.699219 162.054688 117.558594 162.523438 C 116.570312 165.867188 117.5 171.835938 119.308594 173.753906 C 119.824219 174.300781 120.261719 174.320312 119.878906 173.777344 C 117.484375 170.386719 117.921875 161.484375 120.601562 159.003906 C 122.066406 157.652344 126.058594 155.160156 126.53125 155.304688 C 126.617188 155.332031 127.027344 155.511719 127.441406 155.707031 C 128.933594 156.40625 129.257812 156.15625 128.175781 155.132812 C 127.953125 154.921875 127.792969 154.746094 127.824219 154.746094 C 127.992188 154.746094 128.605469 155.238281 129.015625 155.707031 C 129.277344 156.003906 129.566406 156.328125 129.660156 156.425781 L 129.832031 156.605469 L 129.351562 157.722656 C 127.59375 161.816406 126.707031 167.417969 127.164062 171.554688 C 127.210938 171.980469 127.28125 172.910156 127.316406 173.621094 C 127.355469 174.328125 127.4375 175.140625 127.5 175.425781 C 127.566406 175.710938 127.636719 176.027344 127.660156 176.136719 C 127.683594 176.246094 127.621094 176.589844 127.511719 176.945312 C 126.886719 178.980469 124.460938 181.386719 120.144531 184.242188 L 118.832031 185.109375 L 118.539062 184.792969 C 118.21875 184.441406 116.945312 183.777344 116.007812 183.460938 C 113.179688 182.519531 110.921875 182.996094 104.609375 185.875 C 102.757812 186.722656 101.5 187.125 99.867188 187.402344 L 99.363281 187.484375 L 98.578125 187.050781 C 98.144531 186.8125 96.464844 185.945312 94.84375 185.128906 C 88.042969 181.707031 84.957031 179.273438 75.96875 170.265625 C 70.367188 164.644531 68.777344 163.160156 66.339844 161.25 C 65.335938 160.464844 64.085938 159.613281 63.945312 159.613281 C 63.738281 159.613281 63.859375 159.757812 64.5625 160.34375 C 66.28125 161.785156 69.363281 164.886719 72.921875 168.75 C 81.011719 177.542969 86.578125 182.351562 92.003906 185.246094 C 92.390625 185.449219 93.832031 186.1875 95.210938 186.886719 C 97.492188 188.042969 99.820312 189.292969 99.820312 189.363281 C 99.820312 189.378906 99.605469 189.292969 99.347656 189.175781 C 94.761719 187.121094 86.292969 186.636719 81.757812 188.167969 L 80.828125 188.480469 L 80.464844 188.3125 C 80.261719 188.21875 79.320312 187.890625 78.367188 187.582031 C 63.722656 182.824219 56.875 179.292969 49.910156 172.914062 C 48.558594 171.679688 47.175781 170.339844 46.53125 169.648438 C 45.777344 168.839844 45.632812 168.722656 45.632812 168.933594 C 45.632812 169.375 48.800781 173.183594 50.308594 174.554688 C 50.515625 174.742188 51.046875 175.234375 51.496094 175.652344 C 55.179688 179.085938 60.152344 182.292969 65.375 184.601562 C 68.976562 186.191406 76.003906 188.773438 78.339844 189.363281 L 78.863281 189.496094 L 78.226562 189.921875 C 76.875 190.824219 75.953125 191.648438 73.167969 194.441406 C 70.3125 197.308594 69.722656 197.828125 68.828125 198.28125 C 67.34375 199.03125 66.28125 198.332031 61.410156 193.402344 C 54.222656 186.132812 51.5625 182.707031 44.527344 171.664062 C 41.175781 166.40625 39.75 164.292969 36.792969 160.203125 C 34.714844 157.328125 32.175781 154.738281 30.785156 154.074219 C 30.304688 153.847656 30.082031 153.871094 30.414062 154.113281 C 31.070312 154.589844 32.402344 156.214844 34.109375 158.617188 C 34.742188 159.507812 35.402344 160.421875 35.574219 160.648438 C 36.210938 161.476562 38.792969 165.507812 42.859375 172.019531 C 50.382812 184.070312 53.546875 188.117188 61.042969 195.28125 C 67.625 201.574219 68.191406 201.585938 74.273438 195.476562 C 77.664062 192.070312 78.976562 191.011719 80.984375 190.054688 C 84.242188 188.503906 88.683594 188.121094 93.660156 188.957031 C 96.210938 189.386719 99.746094 190.527344 99.746094 190.921875 C 99.746094 190.996094 99.796875 191.132812 99.863281 191.226562 C 100.007812 191.433594 100.039062 191.441406 98.234375 190.867188 C 97.503906 190.632812 96.671875 190.375 96.386719 190.289062 C 94.75 189.804688 93.214844 189.671875 91.523438 189.867188 C 89.3125 190.121094 87.503906 190.082031 86.5625 189.757812 C 85.964844 189.550781 85.679688 189.570312 85.585938 189.816406 C 85.355469 190.417969 87.167969 191.210938 89.941406 191.714844 C 91.644531 192.027344 92.082031 192.152344 93.234375 192.648438 C 95.039062 193.421875 95.660156 193.628906 97.570312 194.078125 C 99.371094 194.5 99.269531 194.464844 99.285156 194.644531 C 99.300781 194.867188 99.644531 195.195312 100.074219 195.402344 L 100.445312 195.582031 L 99.949219 195.585938 C 98.65625 195.59375 95.847656 194.992188 91.671875 193.820312 C 86.714844 192.425781 84.765625 192.042969 82.53125 192.023438 C 81.324219 192.011719 80.871094 192.070312 80.871094 192.234375 C 80.871094 192.359375 80.9375 192.375 82.0625 192.519531 C 83.761719 192.738281 85.726562 193.265625 89.683594 194.554688 C 93.382812 195.765625 94.871094 196.160156 97.132812 196.542969 C 98.324219 196.746094 98.445312 196.789062 98.554688 197.101562 C 98.605469 197.242188 98.816406 197.539062 99.019531 197.761719 L 99.390625 198.167969 L 98.921875 198.167969 C 98.664062 198.167969 97.921875 198.234375 97.273438 198.316406 C 94.742188 198.632812 93.144531 198.351562 84.078125 195.984375 C 82.003906 195.445312 80.722656 195.480469 80.664062 196.085938 C 80.636719 196.386719 80.652344 196.394531 82.347656 196.773438 C 83.054688 196.933594 84.53125 197.308594 85.628906 197.609375 C 86.722656 197.90625 88.234375 198.292969 88.984375 198.460938 C 93.765625 199.535156 93.75 199.53125 94.140625 199.902344 C 94.324219 200.078125 94.605469 200.308594 94.769531 200.414062 L 95.0625 200.609375 L 94.472656 200.5625 C 93.480469 200.484375 92.367188 200.25 90.507812 199.71875 C 87.1875 198.777344 86.554688 198.648438 85.183594 198.65625 C 83.148438 198.667969 81.652344 199.332031 80.234375 200.847656 C 79.394531 201.746094 78.898438 202.515625 77 205.871094 C 74.042969 211.101562 71.90625 212.574219 69.179688 211.261719 C 68.296875 210.839844 67.484375 210.148438 65.355469 208.003906 C 61.78125 204.414062 60.191406 203.371094 53.925781 200.527344 C 48.5625 198.09375 45.191406 196.128906 41.285156 193.167969 C 39.195312 191.585938 38.039062 190.617188 33.652344 186.789062 C 30.5 184.035156 30.566406 184.089844 29.304688 183.085938 C 26.277344 180.675781 23.472656 178.75 21.171875 177.496094 C 19.832031 176.765625 19.851562 176.90625 21.238281 178.003906 C 23.320312 179.648438 24.253906 180.394531 25.472656 181.390625 C 27.539062 183.082031 31.675781 186.664062 33.984375 188.761719 C 41.789062 195.859375 45.449219 198.363281 53.484375 202.109375 C 59.210938 204.78125 61.148438 206.058594 63.953125 209.003906 C 67.175781 212.390625 68.832031 213.433594 70.992188 213.425781 C 71.5 213.421875 71.675781 213.398438 72.375 213.242188 L 72.617188 213.1875 L 72.148438 213.953125 C 71.894531 214.375 71.265625 215.480469 70.757812 216.414062 C 63.890625 228.992188 57.449219 234.203125 47.121094 235.550781 C 44.253906 235.925781 41.746094 235.828125 35.570312 235.101562 C 27.113281 234.113281 21.273438 234.207031 14.78125 235.4375 C 7.496094 236.816406 1.746094 239.445312 0.335938 242.039062 C 0.015625 242.625 0.191406 242.601562 0.800781 241.980469 C 2.929688 239.808594 8.625 237.707031 14.929688 236.769531 C 21.710938 235.761719 26.773438 235.828125 35.9375 237.054688 C 37.277344 237.230469 38.570312 237.398438 38.8125 237.425781 C 39.765625 237.523438 39.761719 237.535156 38.777344 237.804688 C 30.0625 240.183594 23.332031 246.019531 18.765625 255.144531 C 17.34375 257.988281 16.121094 261.125 16.433594 261.125 C 16.527344 261.125 16.671875 260.875 17.621094 259.0625 C 22.710938 249.347656 27.527344 244.140625 34.300781 241.027344 C 35.386719 240.53125 37.597656 239.671875 37.800781 239.671875 C 37.8125 239.671875 37.535156 239.90625 37.175781 240.191406 C 30.257812 245.742188 24.386719 257.878906 22.808594 269.898438 C 22.6875 270.820312 22.582031 273.570312 22.660156 273.773438 C 22.757812 274.023438 22.910156 273.734375 23 273.121094 C 23.769531 267.828125 24.859375 263.753906 27 258.175781 C 30.804688 248.253906 36.382812 241.28125 42.617188 238.652344 C 43.273438 238.375 43.511719 238.324219 45.734375 237.980469 C 47.058594 237.773438 48.199219 237.582031 48.269531 237.558594 C 48.636719 237.425781 48.230469 237.632812 47.585938 237.902344 C 36.339844 242.652344 30.484375 257.210938 34.03125 271.59375 C 34.527344 273.597656 35.5625 276.363281 35.898438 276.570312 C 36.121094 276.707031 36.085938 276.421875 35.75 275.390625 C 32.625 265.839844 34.144531 254.273438 39.519531 246.738281 C 42.457031 242.625 44.839844 240.8125 50.242188 238.605469 C 56.28125 236.140625 58.207031 235.078125 60.085938 233.195312 C 60.636719 232.640625 61.40625 231.929688 61.796875 231.613281 C 65.5625 228.566406 68.726562 224.222656 72.355469 217.113281 C 73.832031 214.222656 74.128906 213.734375 75.339844 212.175781 C 76.8125 210.285156 77.402344 209.382812 78.996094 206.609375 C 81.105469 202.933594 82.089844 201.855469 84.035156 201.09375 C 85.09375 200.683594 89.109375 200.914062 92.410156 201.574219 C 93.925781 201.875 95.828125 201.832031 96.664062 201.472656 C 97.375 201.164062 97.578125 200.347656 97.074219 199.808594 C 96.988281 199.71875 96.949219 199.640625 96.984375 199.640625 C 97.023438 199.636719 97.203125 199.601562 97.386719 199.5625 C 97.566406 199.523438 98.398438 199.464844 99.230469 199.4375 C 100.972656 199.375 101.136719 199.324219 101.421875 198.757812 C 101.757812 198.101562 101.484375 197.460938 100.632812 196.890625 L 100.449219 196.769531 L 100.742188 196.765625 C 101.75 196.761719 102.441406 195.679688 101.925781 194.914062 C 101.492188 194.28125 100.464844 193.855469 98.039062 193.308594 C 96.398438 192.9375 95.796875 192.746094 94.296875 192.105469 C 93.625 191.816406 92.757812 191.472656 92.371094 191.339844 L 91.671875 191.097656 L 92.261719 191.082031 C 94.324219 191.03125 95.136719 191.160156 97.902344 192.003906 C 101.109375 192.980469 102.394531 193.019531 102.707031 192.152344 C 102.78125 191.949219 102.832031 191.902344 102.949219 191.933594 C 103.03125 191.953125 103.5 192.019531 103.984375 192.078125 C 104.8125 192.183594 105.601562 192.246094 109.734375 192.53125 C 115.847656 192.953125 119.28125 194.101562 129.269531 199.074219 C 135.910156 202.382812 138.65625 203.601562 144.234375 205.726562 C 153.5625 209.277344 157.917969 210.117188 166.425781 210.011719 C 171.058594 209.949219 172.792969 210.066406 174.433594 210.550781 C 174.917969 210.691406 175.144531 210.773438 176.90625 211.464844 C 178.925781 212.257812 179.320312 211.992188 177.753906 210.894531 C 175.117188 209.046875 172.816406 208.566406 166.15625 208.46875 L 165 208.453125 L 166.109375 207.9375 C 169.554688 206.335938 171.945312 204.660156 172.328125 203.578125 L 172.460938 203.207031 L 172.945312 203.566406 C 173.210938 203.769531 173.570312 204.019531 173.746094 204.128906 C 176.9375 206.113281 179.292969 209.171875 181.757812 214.535156 C 184.488281 220.480469 184.574219 222.527344 182.164062 224.089844 C 176.519531 227.742188 159.539062 228.148438 139.777344 225.109375 C 135.089844 224.386719 132.171875 223.804688 124.589844 222.0625 C 113.125 219.433594 109.023438 219.132812 103.503906 220.507812 C 99.019531 221.628906 94.550781 224.558594 93.042969 227.375 C 92.542969 228.304688 92.464844 229.359375 92.9375 228.800781 C 93.039062 228.679688 93.273438 228.40625 93.453125 228.191406 C 97.375 223.578125 105.722656 221.0625 113.605469 222.125 C 116.582031 222.523438 124.910156 224.25 124.476562 224.378906 C 118.644531 226.113281 115.089844 228.867188 110.417969 235.261719 C 110.082031 235.722656 109.601562 236.363281 109.355469 236.691406 C 108.609375 237.671875 106.710938 240.667969 106.335938 241.460938 C 106.023438 242.125 106.628906 241.800781 107.472656 240.851562 C 108.25 239.984375 109.765625 238.175781 110.253906 237.535156 C 111.761719 235.5625 114.707031 232.359375 116.535156 230.707031 C 119.644531 227.898438 123.03125 226.277344 127.300781 225.550781 C 128.757812 225.304688 128.710938 225.300781 131.222656 225.839844 C 147.660156 229.371094 166.480469 230.378906 176.820312 228.277344 C 184.988281 226.617188 187.363281 223.617188 185.289062 217.585938 C 185.066406 216.941406 184.867188 216.351562 184.839844 216.277344 C 184.730469 215.933594 188.414062 216.703125 191.160156 217.597656 C 194.554688 218.707031 200.964844 223.1875 206.40625 228.257812 C 206.707031 228.535156 206.976562 228.761719 207.011719 228.761719 C 207.605469 228.761719 206.066406 226.515625 204.0625 224.460938 C 197.554688 217.789062 190.476562 213.808594 184.730469 213.597656 L 183.648438 213.554688 L 182.917969 212.183594 C 180.84375 208.296875 178.964844 205.941406 176.777344 204.488281 C 175.757812 203.816406 173.675781 202.742188 173.011719 202.554688 L 172.527344 202.414062 L 172.390625 202.015625 C 171.71875 200.039062 167.226562 195.234375 166.277344 195.472656 C 165.867188 195.574219 166.226562 196.285156 167.613281 198.132812 C 168.710938 199.589844 169.746094 201.0625 170.15625 201.742188 C 170.84375 202.894531 170.125 203.691406 166.535156 205.761719 C 164.671875 206.835938 163.800781 207.421875 163.265625 207.964844 L 162.832031 208.402344 L 162.417969 208.367188 C 160.300781 208.191406 159.214844 208.058594 157.640625 207.78125 L 156.964844 207.664062 L 157.078125 207.339844 C 157.21875 206.921875 157.464844 206.722656 158.457031 206.226562 C 161.191406 204.859375 161.667969 203.96875 161.027344 201.441406 C 160.617188 199.835938 160.5625 199.046875 160.796875 198.117188 C 160.867188 197.847656 160.976562 197.726562 161.625 197.199219 C 165.488281 194.046875 166.875 190.816406 166.355469 186.152344 C 166.179688 184.558594 166.152344 184.644531 166.90625 184.214844 C 170.234375 182.304688 171.984375 178.761719 172.871094 172.144531 C 173.285156 169.046875 173.21875 167.304688 172.546875 163.570312 L 172.507812 163.359375 L 173.300781 163.386719 C 176.023438 163.488281 176.789062 165.207031 175.339844 167.96875 C 173.332031 171.789062 173.152344 172.601562 173.726562 175.277344 C 174.230469 177.613281 173.933594 179.074219 172.699219 180.386719 C 171.5625 181.597656 171.644531 181.933594 172.910156 181.261719 C 174.777344 180.269531 175.449219 178.199219 174.953125 174.996094 C 174.589844 172.675781 174.742188 172.011719 176.25 169.398438 C 177.34375 167.496094 177.628906 166.652344 177.582031 165.464844 C 177.496094 163.488281 175.726562 162.148438 173.269531 162.207031 L 172.398438 162.230469 L 172.269531 161.214844 C 171.996094 159.054688 171.574219 157.582031 170.742188 155.890625 C 166.796875 147.859375 156.511719 142.457031 147.296875 143.578125 M 152.457031 145.425781 C 162.335938 146.589844 169.582031 153.054688 170.722656 161.734375 L 170.863281 162.789062 L 170.707031 162.867188 C 169.703125 163.386719 169.035156 164.484375 169.980469 164.0625 C 170.84375 163.675781 170.953125 163.652344 170.992188 163.835938 C 171.070312 164.183594 171.402344 166.089844 171.402344 166.171875 C 171.402344 166.222656 171.246094 166.089844 171.058594 165.882812 C 170.363281 165.109375 169.097656 164.71875 168.667969 165.148438 C 168.464844 165.347656 168.570312 165.46875 169.050781 165.585938 C 169.820312 165.769531 170.488281 166.632812 170.671875 167.683594 C 170.816406 168.535156 170.699219 169.292969 170.117188 171.261719 C 169.511719 173.296875 169.59375 174.222656 170.460938 175.269531 L 170.761719 175.625 L 170.628906 176.191406 C 169.875 179.394531 168.421875 181.621094 166.25 182.902344 C 164.910156 183.691406 164.707031 184.027344 164.796875 185.324219 C 165.171875 190.910156 164.425781 192.710938 160.453125 195.816406 C 158.039062 197.707031 156.59375 198.507812 153.597656 199.617188 C 150.75 200.675781 149.453125 201.214844 147.589844 202.117188 C 144.234375 203.746094 144.574219 203.769531 139.554688 201.609375 C 136.601562 200.34375 136.75 200.425781 136.109375 199.671875 C 135.792969 199.300781 135.300781 198.71875 135.011719 198.378906 C 131.878906 194.695312 130.539062 191.042969 130.433594 185.894531 C 130.375 182.902344 130.976562 179.433594 131.609375 179.144531 C 132.160156 178.890625 132.214844 178.371094 131.710938 178.121094 L 131.347656 177.941406 L 131.597656 177.855469 C 132.355469 177.601562 132.214844 176.320312 131.410156 176.167969 C 130.710938 176.035156 130.070312 176.746094 130.351562 177.34375 C 130.40625 177.453125 130.382812 177.441406 130.265625 177.304688 C 129 175.828125 128.835938 171.945312 129.941406 169.65625 C 131.09375 167.269531 133.582031 166.835938 134.347656 168.890625 C 134.6875 169.792969 134.71875 170 134.722656 171.289062 C 134.726562 172.15625 134.75 172.546875 134.808594 172.566406 C 135.007812 172.632812 135.4375 171.773438 135.546875 171.109375 C 135.625 170.613281 135.699219 170.703125 136.023438 171.683594 C 136.71875 173.796875 136.417969 175.703125 135.09375 177.550781 C 134.449219 178.449219 135.46875 178.105469 136.199219 177.175781 C 137.140625 175.988281 137.597656 174.578125 137.542969 173.03125 C 137.507812 171.910156 137.507812 171.917969 136.820312 169.378906 C 136.09375 166.710938 136.671875 165.949219 139.148438 166.316406 C 142.726562 166.84375 144.714844 165.644531 148.882812 160.449219 C 151.246094 157.503906 152.554688 156.269531 154.1875 155.433594 C 158.851562 153.046875 164.695312 155.167969 166.3125 159.832031 C 167.042969 161.9375 167.773438 162.226562 167.609375 160.34375 C 167.089844 154.371094 158.769531 151.097656 152.910156 154.558594 C 151.371094 155.46875 149.890625 156.847656 147.835938 159.28125 C 143.820312 164.042969 142.4375 164.890625 139.203125 164.597656 C 137.453125 164.4375 136.816406 164.53125 136.070312 165.046875 C 135.535156 165.414062 134.984375 166.402344 134.984375 166.992188 C 134.984375 167.3125 134.886719 167.300781 134.519531 166.925781 L 134.179688 166.578125 L 134.414062 166.117188 C 135.667969 163.625 138.09375 161.894531 142.21875 160.5625 C 147.695312 158.792969 151.230469 156.074219 152.808594 152.425781 C 153.582031 150.632812 153.046875 150.878906 151.371094 153.089844 C 148.710938 156.59375 146.464844 158.195312 141.992188 159.773438 C 137.652344 161.304688 135.164062 163.265625 134.140625 165.960938 C 133.941406 166.488281 133.957031 166.484375 133.300781 166.210938 C 131.847656 165.605469 129.957031 166.371094 128.78125 168.042969 C 128.359375 168.648438 128.359375 168.648438 128.535156 167.203125 C 130.230469 153.296875 140.429688 144.015625 152.457031 145.425781 M 149.789062 147.597656 C 142.757812 148.402344 136.007812 153.433594 131.355469 161.34375 C 130.449219 162.882812 129.59375 164.640625 129.695312 164.746094 C 129.808594 164.855469 129.976562 164.664062 130.417969 163.949219 C 135.773438 155.214844 141.582031 150.429688 148.511719 149.03125 C 153.097656 148.109375 156.699219 149.003906 160.820312 152.089844 C 164.242188 154.652344 166.464844 155.503906 164.089844 153.339844 C 158.949219 148.664062 154.851562 147.019531 149.789062 147.597656 M 151.976562 149.742188 C 148.519531 149.957031 145.605469 151.71875 141.183594 156.257812 C 136.074219 161.503906 134.46875 162.90625 132.28125 164.015625 C 131.375 164.476562 131.351562 164.796875 132.246094 164.515625 C 134.15625 163.917969 136.230469 162.292969 140.292969 158.214844 C 143.15625 155.339844 143.777344 154.742188 144.710938 153.972656 C 148.550781 150.789062 151.648438 149.96875 155.84375 151.019531 C 157.101562 151.335938 157.480469 151.273438 156.863281 150.859375 C 155.6875 150.058594 153.800781 149.628906 151.976562 149.742188 M 121.089844 155.796875 C 120.355469 156.539062 119.6875 157.40625 119.28125 158.136719 C 119.117188 158.4375 118.675781 158.96875 118.066406 159.605469 C 116.515625 161.222656 115.496094 162.597656 114.601562 164.257812 C 114.371094 164.683594 114.203125 164.964844 114.222656 164.882812 C 114.242188 164.800781 114.3125 164.53125 114.375 164.285156 C 115.3125 160.574219 117.667969 157.242188 120.414062 155.738281 C 120.792969 155.53125 121.625 155.144531 121.757812 155.117188 C 121.761719 155.117188 121.460938 155.421875 121.089844 155.796875 M 157.433594 158.171875 C 155.765625 158.480469 153.730469 159.679688 152.859375 160.867188 C 152.402344 161.488281 152.617188 161.496094 153.429688 160.890625 C 155.882812 159.046875 158.472656 158.648438 160.808594 159.746094 C 161.488281 160.066406 161.980469 160.441406 163.164062 161.542969 C 164.410156 162.707031 165.113281 163.167969 165.863281 163.324219 L 166.316406 163.414062 L 165.488281 163.761719 C 162.570312 164.976562 159.894531 165.460938 157.402344 165.21875 C 156.144531 165.097656 155.988281 165.289062 157.109375 165.574219 C 160.179688 166.359375 163.816406 165.71875 166.589844 163.90625 C 166.824219 163.753906 166.820312 163.761719 166.273438 164.550781 C 166.0625 164.855469 165.667969 165.519531 165.394531 166.027344 C 163.832031 168.925781 162.671875 169.925781 160.335938 170.390625 C 159.023438 170.65625 158.898438 170.878906 159.953125 171.082031 C 162.398438 171.558594 164.382812 170.171875 166.070312 166.8125 C 166.328125 166.292969 166.8125 165.414062 167.144531 164.859375 C 168.039062 163.355469 168.378906 162.578125 168.378906 162.03125 C 168.378906 161.730469 168.300781 161.773438 168.011719 162.230469 C 167.804688 162.558594 167.722656 162.632812 167.605469 162.597656 C 167.523438 162.574219 167.132812 162.492188 166.730469 162.414062 C 165.628906 162.195312 165.382812 162.054688 164.21875 160.945312 C 161.660156 158.515625 159.765625 157.742188 157.433594 158.171875 M 125.785156 158.363281 C 125.175781 158.46875 124.535156 158.835938 123.992188 159.390625 C 123.523438 159.863281 123.488281 159.886719 123.074219 159.929688 C 120.191406 160.226562 118.613281 164.800781 119.792969 169.449219 C 120.621094 172.707031 123.089844 176.5625 125.007812 177.582031 C 125.910156 178.0625 125.9375 177.78125 125.078125 176.910156 C 120.21875 171.996094 118.925781 163.65625 122.660156 161.292969 L 122.867188 161.164062 L 122.695312 161.671875 C 121.671875 164.71875 122.476562 168.792969 124.496094 170.792969 C 126.117188 172.398438 127.496094 172.890625 126.054688 171.351562 C 123.238281 168.339844 122.375 164.625 123.742188 161.417969 L 123.867188 161.125 L 124.085938 161.382812 C 124.203125 161.523438 124.351562 161.820312 124.414062 162.046875 C 124.671875 162.984375 124.695312 163.039062 124.851562 163.0625 C 125.484375 163.152344 125.355469 160.933594 124.695312 160.355469 L 124.449219 160.140625 L 124.796875 159.816406 C 125.796875 158.882812 126.726562 158.734375 127.886719 159.332031 C 128.433594 159.613281 128.601562 159.558594 128.375 159.175781 C 128.003906 158.546875 126.835938 158.179688 125.785156 158.363281 M 168.535156 163.003906 C 166.894531 165.457031 166.730469 166.460938 167.59375 168.863281 C 168.222656 170.621094 168.078125 171.851562 166.96875 174.121094 C 166.011719 176.085938 166.175781 176.355469 167.359375 174.761719 C 169.152344 172.34375 169.414062 170.582031 168.363281 167.925781 C 167.730469 166.3125 167.789062 165.632812 168.78125 163.320312 C 169.394531 161.890625 169.335938 161.816406 168.535156 163.003906 M 171.476562 171.226562 C 171.347656 172.40625 171.085938 174.136719 171.03125 174.136719 C 170.867188 174.136719 170.847656 173.144531 171 172.425781 C 171.125 171.824219 171.492188 170.511719 171.523438 170.546875 C 171.535156 170.558594 171.515625 170.867188 171.476562 171.226562 M 128.730469 178.144531 C 128.84375 178.28125 129.128906 178.527344 129.371094 178.6875 L 129.8125 178.984375 L 129.625 179.257812 C 127.515625 182.359375 127.683594 188.296875 130.023438 193.449219 C 130.328125 194.121094 130.710938 194.964844 130.875 195.332031 C 131.226562 196.105469 131.773438 197.113281 132.226562 197.820312 C 132.40625 198.09375 132.550781 198.335938 132.550781 198.355469 C 132.550781 198.371094 131.199219 197.710938 129.546875 196.882812 C 120.980469 192.601562 116.621094 191.101562 111.871094 190.796875 C 111.230469 190.757812 110.695312 190.710938 110.679688 190.695312 C 110.664062 190.683594 110.910156 190.578125 111.226562 190.46875 C 118.210938 188.007812 127.121094 181.613281 128.351562 178.171875 C 128.472656 177.835938 128.484375 177.832031 128.730469 178.144531 M 115.816406 184.859375 C 116.1875 184.925781 116.617188 185.078125 117.121094 185.324219 L 117.871094 185.695312 L 116.527344 186.4375 C 112.71875 188.542969 109.664062 189.679688 105.976562 190.355469 L 104.726562 190.585938 L 103.800781 190.117188 C 102.347656 189.378906 100.71875 188.351562 100.894531 188.28125 C 100.972656 188.25 101.566406 188.101562 102.214844 187.953125 C 103.617188 187.628906 104.300781 187.40625 106.933594 186.429688 C 111.503906 184.734375 113.285156 184.417969 115.816406 184.859375 M 102.988281 191.183594 C 102.992188 191.375 102.546875 191.199219 102.195312 190.871094 L 101.808594 190.511719 L 102.398438 190.820312 C 102.722656 190.988281 102.988281 191.152344 102.988281 191.183594 M 159.382812 199.199219 C 159.292969 199.65625 159.296875 200.761719 159.386719 201.324219 C 159.738281 203.46875 159.726562 203.488281 157.9375 204.363281 C 156.113281 205.253906 155.492188 205.929688 155.566406 206.945312 L 155.597656 207.363281 L 155.296875 207.292969 C 153.441406 206.878906 146.296875 204.523438 146.445312 204.375 C 146.472656 204.347656 147.710938 203.835938 149.394531 203.152344 C 149.921875 202.9375 151.398438 202.386719 152.675781 201.929688 C 156.039062 200.722656 157.566406 200.042969 159.015625 199.109375 C 159.496094 198.800781 159.460938 198.789062 159.382812 199.199219 M 135.980469 230.683594 C 128.511719 231.097656 120.648438 233.726562 117.382812 236.90625 C 116.289062 237.972656 116.484375 238.066406 117.824219 237.121094 C 120.515625 235.226562 125.316406 233.484375 130.375 232.566406 C 134.15625 231.882812 136.957031 231.703125 143.128906 231.757812 C 147.40625 231.792969 148.84375 231.753906 148.84375 231.597656 C 148.84375 231.488281 148.785156 231.476562 147.554688 231.269531 C 144.808594 230.808594 139.019531 230.515625 135.980469 230.683594 M 141.066406 235.550781 C 139.796875 235.664062 138.445312 235.84375 137.527344 236.027344 C 135.039062 236.519531 134.316406 236.992188 136.394531 236.769531 C 138.804688 236.507812 143.441406 236.421875 144.863281 236.613281 C 145.003906 236.632812 145.667969 236.683594 146.335938 236.726562 C 149.222656 236.917969 154.996094 237.949219 157.667969 238.75 C 159.390625 239.269531 161.714844 239.640625 161.792969 239.410156 C 161.929688 239.023438 157.488281 237.328125 154.484375 236.625 C 150.714844 235.742188 144.507812 235.246094 141.066406 235.550781 M 100.222656 242.894531 C 91.429688 243.132812 85.210938 244.425781 72.210938 248.714844 C 66.246094 250.683594 64.761719 251.136719 61.59375 251.949219 C 56.242188 253.324219 52.558594 253.964844 42.058594 255.34375 C 40.3125 255.574219 38.875 255.773438 38.855469 255.792969 C 38.152344 256.449219 48.972656 255.785156 55.84375 254.746094 C 61.386719 253.90625 65.539062 252.839844 74.3125 249.996094 C 77.777344 248.871094 79.152344 248.4375 80.757812 247.96875 C 88.832031 245.597656 95.332031 244.613281 102.914062 244.613281 C 107.132812 244.613281 109.390625 244.785156 116.625 245.652344 C 122.207031 246.320312 122.691406 245.660156 117.550781 244.394531 C 112.683594 243.195312 107.070312 242.707031 100.222656 242.894531 M 130.007812 246.136719 C 124.089844 249.140625 119.171875 250.023438 106.675781 250.324219 C 92.871094 250.652344 85.800781 252.242188 72.875 257.917969 C 67.886719 260.109375 66.289062 260.773438 64.027344 261.589844 C 61.777344 262.40625 60.636719 262.683594 57.574219 263.148438 C 56.507812 263.3125 55.414062 263.5625 55.308594 263.664062 C 54.976562 263.996094 58.085938 264.234375 59.714844 264.003906 C 62.90625 263.546875 65.214844 262.722656 73.054688 259.246094 C 86.246094 253.394531 92.40625 251.941406 106.453125 251.363281 C 116.796875 250.933594 120.980469 250.261719 126.285156 248.171875 C 128.457031 247.320312 131.515625 245.699219 130.910156 245.722656 C 130.859375 245.726562 130.453125 245.910156 130.007812 246.136719 " fill-opacity="1" fill-rule="evenodd"></path></g></g></g></svg>