<svg xmlns="http://www.w3.org/2000/svg" xmlns:xlink="http://www.w3.org/1999/xlink" id="Layer_1" x="0px" y="0px" viewBox="0 0 512 512" style="enable-background:new 0 0 512 512;" xml:space="preserve"><g>	<g>		<g>			<path d="M136.533,460.8c28.237,0,51.2-22.963,51.2-51.2v-34.133c0-28.237-22.963-51.2-51.2-51.2c-28.237,0-51.2,22.963-51.2,51.2    V409.6C85.333,437.837,108.297,460.8,136.533,460.8z M102.4,375.467c0-18.825,15.309-34.133,34.133-34.133    c18.825,0,34.133,15.309,34.133,34.133V409.6c0,18.825-15.309,34.133-34.133,34.133c-18.825,0-34.133-15.309-34.133-34.133    V375.467z"></path>			<path d="M89.105,263.654c0.154-0.077,16.145-7.654,47.428-7.654s47.275,7.578,47.386,7.629c1.22,0.614,2.526,0.905,3.806,0.905    c3.132,0,6.144-1.724,7.637-4.719c2.116-4.215,0.401-9.335-3.814-11.452c-0.768-0.384-19.277-9.429-55.014-9.429    s-54.246,9.045-55.014,9.429c-4.198,2.108-5.888,7.185-3.823,11.392C79.778,263.979,84.89,265.711,89.105,263.654z"></path>			<path d="M97.681,306.304c0.154-0.085,15.539-7.637,38.852-7.637c23.049,0,38.724,7.569,38.852,7.637    c1.22,0.606,2.526,0.896,3.806,0.896c3.132,0,6.144-1.724,7.637-4.719c2.116-4.215,0.401-9.344-3.814-11.452    c-0.768-0.384-19.183-9.429-46.481-9.429c-27.298,0-45.713,9.045-46.481,9.429c-4.215,2.108-5.931,7.236-3.823,11.452    C88.337,306.697,93.449,308.42,97.681,306.304z"></path>			<path d="M328.986,220.962c0.777,0.393,19.183,9.438,46.481,9.438c27.298,0,45.705-9.045,46.481-9.438    c4.215-2.108,5.931-7.228,3.814-11.443c-2.108-4.215-7.236-5.931-11.443-3.823c-0.154,0.085-15.539,7.637-38.852,7.637    c-23.049,0-38.724-7.569-38.852-7.637c-4.216-2.108-9.335-0.393-11.452,3.823C323.055,213.734,324.77,218.854,328.986,220.962z"></path>			<path d="M270.14,19.166c-2.108-1.835-4.966-2.526-7.68-1.843c-28.262,7.049-51.004,2.458-78.524-15.889    c-0.213-0.137-0.452-0.196-0.666-0.316c-0.29-0.154-0.572-0.282-0.879-0.41c-0.751-0.307-1.527-0.495-2.313-0.58    c-0.179-0.017-0.316-0.111-0.495-0.119c-0.051,0-0.102,0.026-0.154,0.026c-1.724-0.051-3.465,0.401-4.966,1.399    c-22.69,15.121-53.18,15.121-75.87,0c-0.341-0.23-0.742-0.282-1.109-0.461c-0.41-0.188-0.794-0.367-1.229-0.495    c-0.64-0.196-1.271-0.29-1.929-0.324C94.037,0.128,93.773,0,93.483,0.009c-0.222,0.009-0.393,0.128-0.606,0.154    c-0.597,0.068-1.161,0.23-1.741,0.427c-0.486,0.171-0.964,0.333-1.408,0.58c-0.478,0.265-0.879,0.606-1.306,0.973    c-0.444,0.375-0.845,0.742-1.203,1.203c-0.136,0.171-0.333,0.265-0.461,0.452c-0.188,0.282-0.213,0.606-0.367,0.896    c-0.256,0.512-0.478,1.007-0.64,1.57c-0.162,0.58-0.23,1.143-0.265,1.732c-0.026,0.324-0.162,0.606-0.145,0.922l8.533,187.733    c0.205,4.574,3.985,8.149,8.516,8.149c0.137,0,0.265,0,0.393-0.008c4.71-0.213,8.354-4.207,8.141-8.909l-7.859-172.971    c21.282,8.96,45.645,9.037,66.935,0.085l-7.859,172.885c-0.213,4.702,3.43,8.695,8.141,8.909    c0.128,0.008,0.256,0.008,0.393,0.008c4.531,0,8.311-3.575,8.516-8.149l7.885-173.389c22.784,12.527,44.083,16.657,67.712,13.013    l-41.335,380.45c-8.286,49.707-36.318,78.208-76.919,78.208c-40.602,0-68.634-28.501-76.851-77.722L18.279,36.25    c15.292,2.304,29.739,1.374,43.87-2.799c4.523-1.331,7.108-6.076,5.769-10.598c-1.331-4.523-6.093-7.1-10.59-5.769    c-14.72,4.343-30.012,4.42-46.72,0.239c-2.714-0.674-5.581,0.008-7.68,1.843c-2.108,1.835-3.174,4.582-2.876,7.356l42.735,393.02    C52.429,477.432,87.475,512,136.533,512c49.058,0,84.096-34.568,93.815-92.945l42.667-392.533    C273.314,23.748,272.239,21.001,270.14,19.166z"></path>			<path d="M375.467,187.733c28.237,0,51.2-22.963,51.2-51.2V102.4c0-28.237-22.963-51.2-51.2-51.2s-51.2,22.963-51.2,51.2v34.133    C324.267,164.77,347.23,187.733,375.467,187.733z M341.333,102.4c0-18.825,15.309-34.133,34.133-34.133S409.6,83.575,409.6,102.4    v34.133c0,18.825-15.309,34.133-34.133,34.133s-34.133-15.309-34.133-34.133V102.4z"></path>			<path d="M511.949,485.478l-42.735-393.02C459.563,34.569,424.516,0,375.467,0c-49.05,0-84.105,34.569-93.815,92.945    l-42.667,392.533c-0.299,2.773,0.768,5.521,2.876,7.356c2.099,1.843,4.975,2.526,7.68,1.843    c28.245-7.049,50.995-2.458,78.524,15.889c0.213,0.145,0.452,0.196,0.666,0.316c0.299,0.154,0.58,0.282,0.879,0.41    c0.759,0.307,1.527,0.495,2.321,0.58c0.171,0.017,0.316,0.111,0.486,0.12c0.128,0.008,0.256,0.008,0.393,0.008    c0.026,0,0.043-0.008,0.068-0.008c0.956-0.009,1.886-0.222,2.807-0.555c0.307-0.111,0.572-0.265,0.87-0.41    c0.324-0.162,0.674-0.256,0.981-0.461c22.682-15.121,53.18-15.121,75.861,0c0.316,0.205,0.657,0.299,0.981,0.461    c0.299,0.145,0.563,0.299,0.87,0.41c0.939,0.341,1.911,0.563,2.876,0.563c0.137,0,0.265,0,0.393-0.008    c0.111,0,0.196-0.068,0.299-0.077c0.939-0.077,1.843-0.299,2.705-0.674c0.128-0.051,0.264-0.085,0.384-0.137    c0.845-0.427,1.613-1.007,2.295-1.707c0.154-0.162,0.29-0.333,0.444-0.512c0.188-0.23,0.41-0.427,0.589-0.683    c0.179-0.282,0.205-0.597,0.358-0.879c0.265-0.512,0.503-1.024,0.657-1.596c0.162-0.58,0.23-1.135,0.264-1.724    c0.017-0.316,0.162-0.597,0.145-0.922l-8.533-187.733c-0.213-4.71-4.557-8.346-8.909-8.141c-4.71,0.213-8.354,4.207-8.141,8.909    l7.859,172.971c-21.282-8.969-45.653-9.037-66.935-0.077l7.859-172.894c0.213-4.702-3.43-8.695-8.141-8.909    c-4.395-0.179-8.695,3.43-8.909,8.141l-7.885,173.389c-22.784-12.518-44.066-16.631-67.712-13.022l41.336-380.442    c8.286-49.707,36.318-78.208,76.919-78.208c40.602,0,68.634,28.501,76.851,77.722l41.404,380.954    c-15.292-2.287-29.73-1.357-43.87,2.807c-4.523,1.331-7.1,6.076-5.768,10.598c1.323,4.514,6.024,7.134,10.598,5.769    c14.703-4.335,29.978-4.42,46.72-0.239c2.688,0.674,5.564-0.009,7.671-1.843C511.172,491,512.248,488.252,511.949,485.478z"></path>			<path d="M422.904,248.346c-0.162,0.077-16.162,7.654-47.437,7.654s-47.275-7.578-47.386-7.637    c-4.207-2.099-9.335-0.393-11.452,3.823c-2.108,4.215-0.393,9.335,3.823,11.443c0.777,0.384,19.277,9.438,55.014,9.438    c35.729,0,54.238-9.054,55.014-9.438c4.207-2.099,5.897-7.177,3.823-11.383C432.231,248.038,427.136,246.298,422.904,248.346z"></path>		</g>	</g></g><g></g><g></g><g></g><g></g><g></g><g></g><g></g><g></g><g></g><g></g><g></g><g></g><g></g><g></g><g></g></svg>