<svg xmlns="http://www.w3.org/2000/svg" xmlns:xlink="http://www.w3.org/1999/xlink" id="Layer_1" x="0px" y="0px" viewBox="0 0 512 512" style="enable-background:new 0 0 512 512;" xml:space="preserve"><g>	<g>		<g>			<path d="M384,375.467H8.533C3.823,375.467,0,379.29,0,384v34.133C0,469.888,42.112,512,93.867,512    c51.755,0,93.867-42.112,93.867-93.867v-25.6H204.8v25.6c0,51.755,42.112,93.867,93.867,93.867    c51.755,0,93.867-42.112,93.867-93.867V384C392.533,379.29,388.71,375.467,384,375.467z M170.667,418.133    c0,42.342-34.458,76.8-76.8,76.8c-42.342,0-76.8-34.458-76.8-76.8v-25.6h153.6V418.133z M375.467,418.133    c0,42.342-34.458,76.8-76.8,76.8s-76.8-34.458-76.8-76.8v-25.6h153.6V418.133z"></path>			<path d="M494.933,298.837v-8.704c0-9.412-7.654-17.067-17.067-17.067V179.2c0-95.582-60.041-158.157-153.6-161.784v-0.35    C324.267,7.654,316.612,0,307.2,0h-17.067c-9.412,0-17.067,7.654-17.067,17.067h-153.6C119.467,7.654,111.812,0,102.4,0H85.333    c-9.412,0-17.067,7.654-17.067,17.067H51.2V8.533C51.2,3.823,47.377,0,42.667,0c-4.71,0-8.533,3.823-8.533,8.533v34.133    c0,4.71,3.823,8.533,8.533,8.533c4.71,0,8.533-3.823,8.533-8.533v-8.533h17.067c0,9.361,7.578,16.973,16.913,17.05    c-0.64,2.022-3.413,8.585-14.413,19.584c-3.669,3.669-9.643,7.663-16.555,12.297C32.623,97.519,0,119.364,0,162.133    c0,4.71,3.823,8.533,8.533,8.533s8.533-3.823,8.533-8.533c0-33.664,25.865-50.978,46.643-64.896    c7.654-5.12,14.276-9.549,19.123-14.404c4.719-4.719,8.311-8.926,11.034-12.629c2.722,3.703,6.315,7.91,11.034,12.629    c4.864,4.864,11.494,9.284,19.166,14.396c20.762,13.85,46.601,31.07,46.601,64.905c0,4.71,3.823,8.533,8.533,8.533    s8.533-3.823,8.533-8.533c0-42.965-32.614-64.717-54.204-79.104c-6.921-4.608-12.894-8.593-16.563-12.262    C103.808,57.6,102.511,51.191,102.409,51.2c9.404-0.009,17.058-7.663,17.058-17.067h153.6c0,9.361,7.578,16.973,16.913,17.05    c-0.64,2.022-3.413,8.585-14.413,19.584c-3.669,3.669-9.643,7.663-16.555,12.297c-21.589,14.455-54.212,36.301-54.212,79.07    c0,4.71,3.823,8.533,8.533,8.533c4.71,0,8.533-3.823,8.533-8.533c0-33.664,25.865-50.978,46.643-64.896    c7.654-5.12,14.276-9.549,19.123-14.404c4.719-4.719,8.311-8.926,11.034-12.629c2.722,3.703,6.315,7.91,11.034,12.629    c4.864,4.864,11.494,9.284,19.166,14.396c20.762,13.85,46.601,31.07,46.601,64.905c0,4.71,3.823,8.533,8.533,8.533    s8.533-3.823,8.533-8.533c0-42.965-32.614-64.717-54.204-79.104c-6.92-4.608-12.894-8.593-16.563-12.262    C308.608,57.6,307.311,51.191,307.209,51.2c9.276-0.009,16.811-7.458,17.024-16.691C424.568,38.468,460.8,111.002,460.8,179.2    v93.867c-9.412,0-17.067,7.654-17.067,17.067v8.704c-10.633,8.021-17.067,20.625-17.067,33.963    c0,23.526,19.14,42.667,42.667,42.667c23.526,0,42.667-19.14,42.667-42.667C512,319.462,505.566,306.859,494.933,298.837z     M102.409,25.634v8.499H85.333V17.067H102.4l0.009,8.508c0,0.009-0.009,0.009-0.009,0.026    C102.4,25.609,102.409,25.617,102.409,25.634z M307.209,25.634v8.499h-17.075V17.067H307.2l0.009,8.508    c0,0.009-0.009,0.009-0.009,0.026C307.2,25.609,307.209,25.617,307.209,25.634z M469.333,358.4c-14.114,0-25.6-11.486-25.6-25.6    c0-9.114,4.796-17.348,12.826-22.025c2.628-1.527,4.241-4.335,4.241-7.373v-13.269h17.067v13.269    c0,3.038,1.613,5.845,4.241,7.373c8.03,4.676,12.826,12.911,12.826,22.025C494.933,346.914,483.448,358.4,469.333,358.4z"></path>			<path d="M384,341.333H8.533c-4.71,0-8.533,3.823-8.533,8.533s3.823,8.533,8.533,8.533H384c4.71,0,8.533-3.823,8.533-8.533    S388.71,341.333,384,341.333z"></path>			<path d="M384,187.733H8.533c-4.71,0-8.533,3.823-8.533,8.533s3.823,8.533,8.533,8.533H384c4.71,0,8.533-3.823,8.533-8.533    S388.71,187.733,384,187.733z"></path>			<path d="M384,221.867H8.533C3.823,221.867,0,225.69,0,230.4v85.333c0,4.71,3.823,8.533,8.533,8.533s8.533-3.823,8.533-8.533    v-76.8h153.6v76.8c0,4.71,3.823,8.533,8.533,8.533s8.533-3.823,8.533-8.533v-76.8H204.8v76.8c0,4.71,3.823,8.533,8.533,8.533    c4.71,0,8.533-3.823,8.533-8.533v-76.8h153.6v76.8c0,4.71,3.823,8.533,8.533,8.533s8.533-3.823,8.533-8.533V230.4    C392.533,225.69,388.71,221.867,384,221.867z"></path>		</g>	</g></g><g></g><g></g><g></g><g></g><g></g><g></g><g></g><g></g><g></g><g></g><g></g><g></g><g></g><g></g><g></g></svg>