<svg viewBox="0 -98 512.00014 512" xmlns="http://www.w3.org/2000/svg"><path d="m507.597656 114.023438-37.199218-37.128907v-26.777343c0-27.636719-22.480469-50.117188-50.117188-50.117188h-334.980469c-27.636719 0-50.117187 22.480469-50.117187 50.117188v26.777343l-30.78125 30.722657c-5.863282 5.851562-5.871094 15.347656-.019532 21.210937 5.851563 5.863281 15.351563 5.871094 21.214844.019531l9.585938-9.566406v147.085938c0 27.636718 22.480468 50.117187 50.117187 50.117187h334.976563c27.636718 0 50.117187-22.480469 50.117187-50.117187v-147.085938l16.007813 15.976562c2.929687 2.921876 6.761718 4.382813 10.597656 4.382813 3.84375 0 7.6875-1.46875 10.617188-4.402344 5.851562-5.863281 5.84375-15.359375-.019532-21.214843zm-422.296875-84.023438h334.980469c11.09375 0 20.117188 9.023438 20.117188 20.117188v18.242187h-375.214844v-18.242187c0-11.09375 9.023437-20.117188 20.117187-20.117188zm200.550781 68.4375v21.296875h-67.476562v-21.238281c11.277344-.011719 23.308594-.023438 36.144531-.035156 5.847657-.007813 11.699219-.015626 17.53125-.023438zm134.429688 188.046875h-334.980469c-11.09375 0-20.117187-9.023437-20.117187-20.117187v-168.03125l123.191406.179687v22.851563c0 15.644531 12.726562 28.367187 28.367188 28.367187h70.738281c15.644531 0 28.371093-12.722656 28.371093-28.367187v-22.988282l124.546876-.230468v168.21875c0 11.09375-9.023438 20.117187-20.117188 20.117187zm0 0"></path></svg>