<svg version="1.1" id="Capa_1" xmlns="http://www.w3.org/2000/svg" xmlns:xlink="http://www.w3.org/1999/xlink" x="0px" y="0px" viewBox="0 0 512 512" style="enable-background:new 0 0 512 512;" xml:space="preserve"><g><g><path d="M361.278,188.222h-15.611V52.333h21.8v-30h-51.8v85.333H196.333V52.333h21.8v-30h-51.8v165.889h-15.611
			C67.614,188.222,0,255.836,0,338.945c0,83.108,67.614,150.722,150.722,150.722h210.556c83.108,0,150.722-67.614,150.722-150.722
			S444.386,188.222,361.278,188.222z M196.333,137.667h119.333v50.556H196.333V137.667z M361.277,459.667H150.722
			C84.156,459.667,30,405.511,30,338.944s54.156-120.722,120.722-120.722h15.611V272h30v-53.778h119.333V272h30v-53.778h15.611
			c66.566,0,120.722,54.156,120.722,120.723C481.999,405.511,427.843,459.667,361.277,459.667z"></path></g></g><g><g><rect x="117.33" y="334.61" width="32.667" height="30"></rect></g></g><g><g><rect x="180" y="334.61" width="214.67" height="30"></rect></g></g><g></g><g></g><g></g><g></g><g></g><g></g><g></g><g></g><g></g><g></g><g></g><g></g><g></g><g></g><g></g></svg>