<svg version="1.1" id="Capa_1" xmlns="http://www.w3.org/2000/svg" xmlns:xlink="http://www.w3.org/1999/xlink" x="0px" y="0px" viewBox="0 0 512 512" style="enable-background:new 0 0 512 512;" xml:space="preserve"><g><g><path d="M379.328,283.562c0-22.774-4.614-37.867-9.076-52.464c-7.15-23.388-13.903-45.479-1.368-105.183l3.799-18.092H246.292
			L240.107,87.2c24.493-10.481,44.736-26.523,45.738-27.323l19.976-15.954L198.287,0l-65.615,95.851l25.458,2.328
			c0.632,0.058,7.252,0.639,16.956,0.639c9.905,0,23.025-0.614,36.269-3.003l3.601,12.007h-43.225l3.752,18.061
			c12.405,59.713,5.691,81.815-1.418,105.216c-4.434,14.597-9.019,29.69-9.019,52.462c0,53.985,40.136,98.763,92.133,106.085v92.337
			h-46.986V512h123.739v-30.016h-46.737v-92.337C339.193,382.325,379.328,337.545,379.328,283.562z M336.087,137.839
			c-2.367,14.196-3.588,26.384-3.988,37.066h-65.688l-11.117-37.066H336.087z M187.828,68.415l21.539-31.466l35.321,14.426
			c-8.147,4.678-17.719,9.364-27.321,12.245C207.807,66.487,197.225,67.838,187.828,68.415z M223.957,137.839l11.117,37.066h-22.887
			c-0.391-10.682-1.595-22.87-3.936-37.066H223.957z M272.187,360.688c-42.527,0-77.125-34.599-77.125-77.126
			c0-18.314,3.579-30.095,7.723-43.737c3.107-10.225,6.378-21.026,8.173-34.903h122.359c1.802,13.898,5.1,24.712,8.229,34.952
			c4.166,13.63,7.765,25.401,7.765,43.689C349.312,326.089,314.714,360.688,272.187,360.688z"></path></g></g><g></g><g></g><g></g><g></g><g></g><g></g><g></g><g></g><g></g><g></g><g></g><g></g><g></g><g></g><g></g></svg>