<svg viewBox="0 -76 512 512" xmlns="http://www.w3.org/2000/svg"><path d="m75 150h-45v-135c0-8.285156-6.714844-15-15-15s-15 6.714844-15 15v149.988281.011719 60 .011719 119.988281c0 8.285156 6.714844 15 15 15s15-6.714844 15-15v-105h90v105c0 8.285156 6.714844 15 15 15s15-6.714844 15-15v-119c0-.167969-.019531-.332031-.023438-.5.003907-.167969.023438-.332031.023438-.5 0-41.355469-33.644531-75-75-75zm-45 60v-30h45c19.554688 0 36.238281 12.539062 42.429688 30zm0 0"></path><path d="m497 0c-8.285156 0-15 6.714844-15 15v135h-45c-41.355469 0-75 33.644531-75 75 0 .167969.019531.332031.023438.5-.003907.167969-.023438.332031-.023438.5v119c0 8.285156 6.714844 15 15 15s15-6.714844 15-15v-105h90v105c0 8.285156 6.714844 15 15 15s15-6.714844 15-15v-330c0-8.285156-6.714844-15-15-15zm-102.429688 210c6.191407-17.460938 22.875-30 42.429688-30h45v30zm0 0"></path><path d="m306 330h-35v-222h115c8.285156 0 15-6.714844 15-15s-6.714844-15-15-15h-260c-8.285156 0-15 6.714844-15 15s6.714844 15 15 15h115v222h-35c-8.285156 0-15 6.714844-15 15s6.714844 15 15 15h100c8.285156 0 15-6.714844 15-15s-6.714844-15-15-15zm0 0"></path></svg>