<svg id="Capa_1" enable-background="new 0 0 509.836 509.836" viewBox="0 0 509.836 509.836" xmlns="http://www.w3.org/2000/svg"><g><path d="m422.116 143.677h-205.067l.127-36.32c0-9.412 5.123-19.57 13.4-19.57h187.899c8.284 0 15-6.716 15-15 0-39.883-32.446-72.33-72.329-72.33h-224.92c-52.303 0-91.21 45.445-91.21 97.306-.384 77.955 1.089 17.014-8.244 310.55-21.213 6.147-36.772 25.736-36.772 48.903v36.084c0 8.284 6.716 15 15 15h239.151c8.284 0 15-6.716 15-15v-36.083c0-23.203-15.607-42.817-36.872-48.931l-4.194-119.838c-.348-9.881 7.549-18.06 17.45-18.06h119.64v42.32c0 8.284 6.716 15 15 15h82.17c8.284 0 15-6.716 15-15v-42.32h17.49c8.284 0 15-6.716 15-15v-23.99c.001-48.37-39.35-87.721-87.719-87.721zm-285.89-113.219h224.921c18.061 0 33.517 11.372 39.584 27.33h-170.155c-27.167 0-43.4 25.204-43.4 49.517l-.127 36.373h-112.259l.226-45.84c0-37.154 27.459-67.38 61.21-67.38zm102.925 426.758v21.084h-209.151v-21.083c0-11.533 9.384-20.917 20.917-20.917h167.317c11.534 0 20.917 9.383 20.917 20.916zm208.195-159.508h-52.17v-27.32h52.17zm32.49-57.32h-234.3c-26.891 0-48.382 22.236-47.432 49.114l4.087 116.798h-135.341l7.396-232.623h347.87c31.827 0 57.72 25.893 57.72 57.72z"></path><path d="m433.24 372.587c-6-7.96-17.964-7.948-23.955 0-13.564 18.005-42.192 59.593-42.192 82.622 0 29.87 24.301 54.17 54.17 54.17s54.169-24.3 54.169-54.17c0-22.996-28.78-64.833-42.192-82.622zm-11.977 106.791c-13.327 0-24.17-10.843-24.17-24.17 0-7.638 11.097-28.076 24.173-47.654 13.074 19.566 24.166 39.999 24.166 47.654 0 13.328-10.842 24.17-24.169 24.17z"></path></g></svg>