<svg version="1.1" id="Capa_1" xmlns="http://www.w3.org/2000/svg" xmlns:xlink="http://www.w3.org/1999/xlink" x="0px" y="0px" viewBox="0 0 360 360" style="enable-background:new 0 0 360 360;" xml:space="preserve"><path id="XMLID_1337_" d="M0,20v320h360V20H0z M340,110h-19.851c-2.733-28.254-26.607-50.417-55.566-50.417
	S211.751,81.746,209.017,110H190V40h150V110z M320.213,240c-2.341-28.648-26.387-51.25-55.629-51.25s-53.289,22.602-55.63,51.25H190
	V130h20.695c6.43,23.735,28.147,41.25,53.889,41.25s47.458-17.515,53.888-41.25H340v110H320.213z M300.417,244.583
	c0,19.759-16.075,35.834-35.833,35.834c-19.759,0-35.833-16.075-35.833-35.834s16.075-35.833,35.833-35.833
	C284.342,208.75,300.417,224.824,300.417,244.583z M151.046,240c-2.341-28.648-26.388-51.25-55.63-51.25S42.128,211.352,39.787,240
	H20V130h21.528c6.43,23.735,28.147,41.25,53.888,41.25s47.458-17.515,53.889-41.25H170v110H151.046z M131.25,244.583
	c0,19.759-16.075,35.834-35.833,35.834c-19.758,0-35.833-16.075-35.833-35.834s16.075-35.833,35.833-35.833
	C115.175,208.75,131.25,224.824,131.25,244.583z M59.583,115.417c0-19.759,16.075-35.834,35.833-35.834
	c19.759,0,35.833,16.075,35.833,35.834s-16.075,35.833-35.833,35.833C75.658,151.25,59.583,135.176,59.583,115.417z M228.75,115.417
	c0-19.759,16.075-35.834,35.833-35.834c19.758,0,35.833,16.075,35.833,35.834s-16.075,35.833-35.833,35.833
	C244.825,151.25,228.75,135.176,228.75,115.417z M170,40v70h-19.017c-2.734-28.254-26.607-50.417-55.566-50.417
	S42.584,81.746,39.851,110H20V40H170z M20,260h21.765c6.709,23.31,28.213,40.417,53.651,40.417S142.359,283.31,149.068,260H170v60
	H20V260z M190,320v-60h20.932c6.709,23.31,28.213,40.417,53.652,40.417S311.526,283.31,318.235,260H340v60H190z"></path><g></g><g></g><g></g><g></g><g></g><g></g><g></g><g></g><g></g><g></g><g></g><g></g><g></g><g></g><g></g></svg>