<svg version="1.1" id="Capa_1" xmlns="http://www.w3.org/2000/svg" xmlns:xlink="http://www.w3.org/1999/xlink" x="0px" y="0px" viewBox="0 0 512 512" style="enable-background:new 0 0 512 512;" xml:space="preserve"><g><g><path d="M257.439,0H79.346C45.082,0,17.207,27.876,17.207,62.139v387.721c0,34.264,27.876,62.139,62.139,62.139h178.093
			c34.263,0,62.138-27.876,62.138-62.139V62.139C319.577,27.876,291.701,0,257.439,0z M289.264,449.861
			c0,17.549-14.277,31.826-31.825,31.826H79.346c-17.549,0-31.826-14.277-31.826-31.826v-58.282h241.745V449.861z M289.264,361.265
			H47.519v-38.249h241.745V361.265z M289.264,292.704H47.519v-73.408h241.745V292.704z M289.264,188.983H47.519v-38.249h241.745
			V188.983z M289.264,120.422H47.519V62.139c0-17.549,14.277-31.826,31.826-31.826h178.093c17.548,0,31.826,14.277,31.826,31.826
			V120.422z"></path></g></g><g><g><path d="M447.389,283.85V15.156c0-8.37-6.786-15.156-15.156-15.156s-15.156,6.786-15.156,15.156V283.85
			c-30.195,32.206-47.404,75.455-47.404,119.689v93.303c0,8.37,6.786,15.156,15.156,15.156h94.808
			c8.37,0,15.156-6.786,15.156-15.156V403.54C494.793,359.305,477.584,316.057,447.389,283.85z M464.481,481.687h-64.496v-78.146
			c0-33.034,11.603-65.408,32.248-90.984c20.645,25.576,32.248,57.95,32.248,90.984V481.687z"></path></g></g><g></g><g></g><g></g><g></g><g></g><g></g><g></g><g></g><g></g><g></g><g></g><g></g><g></g><g></g><g></g></svg>