<svg version="1.1" id="Layer_1" xmlns="http://www.w3.org/2000/svg" xmlns:xlink="http://www.w3.org/1999/xlink" x="0px" y="0px" viewBox="0 0 512.001 512.001" style="enable-background:new 0 0 512.001 512.001;" xml:space="preserve"><g><g><path d="M471.896,242.794h-5.737c-3.337-20.006-11.331-39.039-23.357-55.45V21.156c0-28.193-42.672-28.223-42.672,0v128.806
			c-18.844-10.285-40.058-15.767-62.116-15.767H173.983c-64.381,0-117.966,47.069-128.174,108.601H40.1
			c-11.783,0-21.336,9.553-21.336,21.336c0,11.783,9.553,21.336,21.336,21.336h5.714c9.943,60.506,62.56,108.602,128.169,108.602
			h36.997c6.286,0,12.251-2.771,16.305-7.574L256,352.473l28.716,34.022c4.054,4.803,10.019,7.574,16.305,7.574
			c39.075,0,65.014,2.789,99.113-15.784v40.492c0,11.765-9.57,21.336-21.336,21.336h-63.459
			c-6.057-17.001-22.308-29.206-41.361-29.206h-35.951c-24.205,0-43.897,19.692-43.897,43.897v13.301
			c0,24.205,19.693,43.897,43.897,43.897h35.951c19.057,0,35.31-12.21,41.364-29.216h63.456c35.296,0,64.008-28.714,64.008-64.008
			v-77.871c12.031-16.409,20.022-35.436,23.359-55.438h5.737c11.783,0,21.336-9.553,21.336-21.336
			C493.233,252.347,483.68,242.794,471.896,242.794z M275.199,468.101c0,0.676-0.55,1.225-1.225,1.225h-35.951
			c-0.676,0-1.225-0.549-1.225-1.225V454.8c0-0.676,0.55-1.225,1.225-1.225h35.951c0.676,0,1.225,0.549,1.225,1.225V468.101z
			 M425.277,264.168c-0.021,47.813-38.738,87.226-87.263,87.226H310.93l-38.627-45.766c-8.522-10.099-24.097-10.088-32.61,0
			l-38.627,45.766h-27.084c-48.224,0-87.283-39.046-87.263-87.302c0.02-48.101,39.159-87.227,87.263-87.227h164.032
			c48.575,0,87.242,39.422,87.263,87.226c0,0.013-0.001,0.026-0.001,0.038S425.277,264.155,425.277,264.168z"></path></g></g><g></g><g></g><g></g><g></g><g></g><g></g><g></g><g></g><g></g><g></g><g></g><g></g><g></g><g></g><g></g></svg>