<svg id="Capa_1" enable-background="new 0 0 512 512" viewBox="0 0 512 512" xmlns="http://www.w3.org/2000/svg"><path d="m131.815 209.692c-25.534 0-46.308 20.774-46.308 46.308s20.773 46.308 46.308 46.308 46.308-20.773 46.308-46.308-20.773-46.308-46.308-46.308zm0 62.616c-8.992 0-16.308-7.315-16.308-16.308s7.315-16.308 16.308-16.308 16.308 7.316 16.308 16.308-7.315 16.308-16.308 16.308z"></path><path d="m512 256c0-32.767-23.201-60.207-54.035-66.783-.098-.022-.19-.055-.288-.075l-298.887-62.192c-.074-.015-.147-.02-.221-.035-8.642-1.789-17.589-2.731-26.753-2.731-72.684 0-131.816 59.133-131.816 131.816s59.132 131.815 131.815 131.815c9.163 0 18.109-.942 26.75-2.73.075-.014.15-.019.225-.035l298.887-62.192c.098-.02.19-.053.288-.075 30.834-6.576 54.035-34.016 54.035-66.783zm-482 0c0-56.142 45.674-101.816 101.815-101.816s101.817 45.675 101.817 101.816-45.675 101.815-101.816 101.815-101.816-45.674-101.816-101.815zm233.632 0c0-31.281-10.96-60.047-29.232-82.675l161.817 33.671c-12.812 12.421-20.798 29.792-20.798 49.004s7.986 36.583 20.798 49.004l-161.818 33.671c18.272-22.628 29.233-51.393 29.233-82.675zm180.077 38.291c-21.113 0-38.29-17.177-38.29-38.291s17.177-38.291 38.29-38.291 38.291 17.178 38.291 38.291-17.178 38.291-38.291 38.291z"></path></svg>