<svg id="Capa_1" enable-background="new 0 0 512 512" viewBox="0 0 512 512" xmlns="http://www.w3.org/2000/svg"><path d="m256 0c-108.58 0-196.916 88.336-196.916 196.916v259.54c0 30.627 24.917 55.544 55.545 55.544 25.429 0 46.906-17.184 53.469-40.544h175.804c6.563 23.361 28.04 40.544 53.469 40.544 30.628 0 55.545-24.917 55.545-55.544v-259.54c0-108.58-88.336-196.916-196.916-196.916zm-85.827 212h171.654v34.864h-171.654zm1.324-30c7.084-40.236 42.267-70.912 84.503-70.912s77.419 30.675 84.503 70.912zm-1.324 94.864h171.654v34.864h-171.654zm0 129.728h171.654v34.864h-171.654zm171.654-30h-171.654v-34.864h171.654zm81.089 79.864c0 14.085-11.459 25.544-25.545 25.544-14.085 0-25.544-11.459-25.544-25.544v-259.54c0-63.867-51.96-115.827-115.827-115.827s-115.827 51.96-115.827 115.827v259.54c0 14.085-11.459 25.544-25.544 25.544-14.086 0-25.545-11.459-25.545-25.544v-259.54c0-92.038 74.878-166.916 166.916-166.916s166.916 74.878 166.916 166.916z"></path></svg>