<svg viewBox="0 0 512 512" xmlns="http://www.w3.org/2000/svg"><path d="m512 226.082031c-.15625-4.988281-2.03125-9.101562-5.992188-12.074219l-235.007812-176.5v-22.507812c0-8.285156-6.714844-15-15-15s-15 6.714844-15 15v22.507812l-235.007812 176.5c-3.957032 2.96875-5.835938 7.046876-5.992188 12.074219v29.917969c0 8.285156 6.714844 15 15 15s15-6.714844 15-15v-15h121v15c0 8.285156 6.714844 15 15 15s15-6.714844 15-15v-15h60v151h-15c-8.285156 0-15 6.714844-15 15v90c0 8.285156 6.714844 15 15 15h60c8.285156 0 15-6.714844 15-15v-90c0-8.285156-6.714844-15-15-15h-15v-151h60v15c0 8.285156 6.714844 15 15 15s15-6.714844 15-15v-15h121v15c0 8.285156 6.714844 15 15 15 8.28125 0 15-6.714844 15-15 0 0 0-29.910156 0-29.917969zm-241 255.917969h-30v-60h30zm-52.738281-389.894531-62.234375 118.894531h-96.078125zm-28.375 118.894531 51.113281-97.644531v97.644531zm81.113281-97.550781 51.058594 97.550781h-51.058594zm84.921875 97.550781-62.269531-118.960938 158.394531 118.960938zm0 0"></path></svg>