<svg viewBox="0 -31 512 512" xmlns="http://www.w3.org/2000/svg"><path d="m497 60h-407v-45c0-8.285156-6.714844-15-15-15h-60c-8.285156 0-15 6.714844-15 15s6.714844 15 15 15h45v90h-45c-8.285156 0-15 6.714844-15 15v180c0 8.285156 6.714844 15 15 15h45v105c0 8.285156 6.714844 15 15 15s15-6.714844 15-15v-45h31v15c0 8.285156 6.714844 15 15 15s15-6.714844 15-15v-15h30v15c0 8.285156 6.714844 15 15 15s15-6.714844 15-15v-15h30v15c0 8.285156 6.714844 15 15 15s15-6.714844 15-15v-15h30v15c0 8.285156 6.714844 15 15 15s15-6.714844 15-15v-15h166c8.285156 0 15-6.714844 15-15v-300c0-8.285156-6.714844-15-15-15zm-437 240h-30v-30h30zm0-60h-30v-30h30zm0-60h-30v-30h30zm422 180h-392v-270h392zm0 0"></path><path d="m346 330c58.445312 0 105.996094-47.097656 106-104.992188 0-.003906 0-.011718 0-.015624-.003906-57.890626-47.550781-104.988282-105.992188-104.992188-.003906 0-.011718 0-.015624 0-57.855469.003906-104.992188 47.097656-104.992188 105 0 57.863281 47.097656 105 105 105zm-57.605469-57.035156c-5.296875-6.347656-9.554687-13.582032-12.535156-21.441406 3.316406.585937 6.703125.902343 10.140625.902343 7.488281 0 14.757812-1.433593 21.5-4.152343.578125.957031 1.203125 1.878906 1.851562 2.789062-1.945312 10.84375-10.28125 19.492188-20.957031 21.902344zm84.101563 22.324218c.605468-3.363281.929687-6.800781.929687-10.289062 0-7.488281-1.433593-14.757812-4.152343-21.5.953124-.578125 1.878906-1.203125 2.789062-1.847656 10.992188 1.96875 19.738281 10.503906 22.003906 21.394531-6.40625 5.175781-13.679687 9.335937-21.570312 12.242187zm49.175781-63.441406c-.8125 8.789063-3.164063 17.144532-6.792969 24.800782-6.175781-9.167969-14.917968-16.464844-25.195312-20.851563.265625-1.089844.496094-2.195313.683594-3.3125 9.25-6.390625 21.828124-6.601563 31.304687-.636719zm-17.421875-54.953125c5.429688 6.394531 9.796875 13.691407 12.84375 21.625-3.453125-.617187-6.992188-.945312-10.59375-.945312-7.6875 0-15.117188 1.445312-21.972656 4.195312-.589844-.96875-1.21875-1.910156-1.875-2.832031 1.980468-11.058594 10.609375-19.84375 21.597656-22.042969zm-51.410156-26.574219c8.542968.753907 16.679687 2.914063 24.183594 6.238282-8.875 6.148437-15.945313 14.71875-20.230469 24.757812-1.09375-.269531-2.199219-.496094-3.324219-.683594-6.28125-9.050781-6.492188-21.066406-.628906-30.3125zm-21.839844 74.675782c0-8.269532 6.730469-14.996094 15-14.996094s15 6.726562 15 14.996094v.007812c0 8.269532-6.726562 14.996094-14.996094 14.996094-.003906 0-.003906 0-.007812 0-8.269532 0-14.992188-6.726562-14.996094-14.996094 0-.003906 0-.003906 0-.007812zm4.203125 43.6875c1.09375.269531 2.203125.496094 3.324219.683594 6.285156 9.046874 6.496094 21.058593.636718 30.308593-8.496093-.773437-16.582031-2.972656-24.027343-6.347656 8.796875-6.140625 15.808593-14.667969 20.066406-24.644531zm-15.726563-113.824219c-.585937 3.316406-.902343 6.703125-.902343 10.140625 0 7.488281 1.433593 14.757812 4.152343 21.5-.953124.578125-1.878906 1.203125-2.789062 1.847656-10.84375-1.941406-19.492188-10.277344-21.902344-20.953125 6.347656-5.292969 13.582032-9.554687 21.441406-12.535156zm-41.804687 39.277344c6.140625 8.796875 14.667969 15.808593 24.644531 20.066406-.269531 1.09375-.496094 2.203125-.683594 3.324219-9.046874 6.285156-21.058593 6.496094-30.308593.636718.773437-8.496093 2.972656-16.582031 6.347656-24.027343zm0 0"></path><path d="m136 210h60c8.285156 0 15-6.714844 15-15s-6.714844-15-15-15h-60c-8.285156 0-15 6.714844-15 15s6.714844 15 15 15zm0 0"></path><path d="m136 270h60c8.285156 0 15-6.714844 15-15s-6.714844-15-15-15h-60c-8.285156 0-15 6.714844-15 15s6.714844 15 15 15zm0 0"></path><path d="m136 330h60c8.285156 0 15-6.714844 15-15s-6.714844-15-15-15h-60c-8.285156 0-15 6.714844-15 15s6.714844 15 15 15zm0 0"></path><path d="m151 135c0 8.285156-6.714844 15-15 15s-15-6.714844-15-15 6.714844-15 15-15 15 6.714844 15 15zm0 0"></path><path d="m211 135c0 8.285156-6.714844 15-15 15s-15-6.714844-15-15 6.714844-15 15-15 15 6.714844 15 15zm0 0"></path></svg>