<svg xmlns="http://www.w3.org/2000/svg" xmlns:xlink="http://www.w3.org/1999/xlink" version="1.1" id="Capa_1" x="0px" y="0px" viewBox="0 0 511.983 511.983" style="enable-background:new 0 0 511.983 511.983;" xml:space="preserve"><path id="_x3C_Group_x3E__12_" d="M511.96,256.455c0.005-0.152,0.023-0.301,0.023-0.455c0-0.197-0.022-0.388-0.03-0.583  c-0.076-65.049-25.581-129.651-75.659-179.729C386.216,25.61,321.615,0.105,256.566,0.03C256.371,0.022,256.18,0,255.983,0  c-0.154,0-0.302,0.018-0.455,0.023c-50.825,0.153-101.876,15.836-146.443,47.476c-17.243-10.134-39.842-7.81-54.628,6.976  c-14.786,14.786-17.11,37.385-6.976,54.629C-24.871,211.012-13.8,346.842,75.67,436.312  c50.157,50.158,114.865,75.671,180.018,75.671c51.066,0,102.407-15.694,147.188-47.484c17.269,10.151,39.864,7.796,54.633-6.974  c14.786-14.786,17.11-37.384,6.976-54.628C496.124,358.332,511.807,307.28,511.96,256.455z M481.355,241H298.403  c-4.527-12.764-14.656-22.893-27.42-27.42V30.627c52.418,3.522,103.632,25.807,144.099,66.274  C455.549,137.368,477.833,188.582,481.355,241z M139.31,351.459c5.862-5.862,15.351-5.863,21.214,0  c5.848,5.848,5.848,15.365,0,21.213c-5.85,5.85-15.364,5.848-21.214,0C133.447,366.809,133.447,357.323,139.31,351.459z   M181.737,330.247c-12.175-12.175-29.647-15.894-45.066-11.171c-10.285-19.366-15.688-40.921-15.688-63.075  c0-69.369,52.594-126.676,120-134.162v91.742c-17.459,6.192-30,22.865-30,42.42c0,24.813,20.187,45,45,45  c19.555,0,36.228-12.742,42.42-30.2h91.742C382.659,338.205,325.352,391,255.983,391c-22.154,0-43.709-5.403-63.075-15.688  C197.63,359.894,193.912,342.422,181.737,330.247z M255.983,241c8.271,0,15,6.729,15,15s-6.729,15-15,15s-15-6.729-15-15  S247.711,241,255.983,241z M75.67,75.688c5.849-5.848,15.364-5.849,21.213,0c5.849,5.849,5.849,15.366,0.001,21.214  c-5.849,5.849-15.365,5.85-21.214,0C69.822,91.053,69.822,81.536,75.67,75.688z M96.883,415.099  c-78.352-78.352-88.56-196.979-26.312-286.65c16.335,6.057,34.927,2.264,47.527-10.335c12.827-12.828,16.263-31.534,10.334-47.525  c34.541-23.978,73.373-37.21,112.551-39.93v61.03c-83.977,7.604-150,78.386-150,164.311c0,28.649,7.375,56.491,21.41,81.208  c-11.449,17.204-9.923,41.052,5.705,56.678c15.361,15.362,39.184,17.29,56.67,5.7C199.487,413.623,227.331,421,255.983,421  c85.925,0,156.707-66.222,164.311-150.2h61.03c-2.72,39.178-15.952,78.21-39.93,112.751c-15.991-5.93-34.698-2.492-47.525,10.335  c-12.828,12.828-16.265,31.534-10.335,47.525C293.863,503.66,175.234,493.45,96.883,415.099z M436.295,436.313  c-5.85,5.85-15.364,5.849-21.214,0c-5.849-5.849-5.849-15.365,0-21.213c5.847-5.848,15.366-5.849,21.214,0  C442.144,420.947,442.144,430.464,436.295,436.313z"></path></svg>