<svg viewBox="-46 0 512 512" xmlns="http://www.w3.org/2000/svg"><path d="m210 0c-115.792969 0-210 94.207031-210 210 0 93.359375 61.519531 175.210938 150.441406 201.429688l46.140625 92.277343c2.542969 5.082031 7.734375 8.292969 13.417969 8.292969 5.679688 0 10.875-3.210938 13.414062-8.292969l46.140626-92.277343c88.925781-26.214844 150.445312-108.070313 150.445312-201.429688 0-115.792969-94.207031-210-210-210zm45.355469 384.238281c-4.195313 1.085938-7.710938 3.933594-9.648438 7.808594l-35.707031 71.414063-35.707031-71.414063c-1.9375-3.875-5.453125-6.722656-9.644531-7.808594-79.28125-20.578125-134.648438-92.222656-134.648438-174.238281 0-99.253906 80.746094-180 180-180s180 80.746094 180 180c0 82.015625-55.367188 153.664062-134.644531 174.238281zm0 0"></path><path d="m240.753906 219.539062c19.25-29.105468 16.070313-68.78125-9.542968-94.390624-29.242188-29.242188-76.824219-29.242188-106.0625 0-29.242188 29.242187-29.242188 76.824218 0 106.066406 14.621093 14.621094 33.824218 21.929687 53.03125 21.929687 14.433593 0 28.871093-4.132812 41.359374-12.390625l54.101563 54.097656c2.925781 2.929688 6.765625 4.394532 10.605469 4.394532 3.835937 0 7.675781-1.464844 10.605468-4.394532 5.855469-5.855468 5.859376-15.355468 0-21.210937zm-94.394531-9.539062c-17.542969-17.546875-17.542969-46.09375 0-63.640625 8.773437-8.769531 20.296875-13.160156 31.820313-13.160156 11.523437 0 23.046874 4.390625 31.820312 13.160156 17.542969 17.546875 17.542969 46.09375 0 63.640625s-46.09375 17.546875-63.640625 0zm0 0"></path></svg>