<svg version="1.1" id="Capa_1" xmlns="http://www.w3.org/2000/svg" xmlns:xlink="http://www.w3.org/1999/xlink" x="0px" y="0px" viewBox="0 0 512 512" style="enable-background:new 0 0 512 512;" xml:space="preserve"><g><g><path d="M496.984,33.176H15.016C6.723,33.176,0,39.899,0,48.192c0,8.293,6.723,15.016,15.016,15.016h20.159v257.38
			c0,87.251,70.985,158.236,158.237,158.236h125.175c87.251,0,158.236-70.985,158.236-158.236V63.209h20.16
			c8.293,0,15.016-6.723,15.016-15.016C512,39.899,505.278,33.176,496.984,33.176z M128.477,431.088
			c-22.251-13.126-40.211-32.777-51.231-56.304h51.231V431.088z M128.477,344.752H67.502c-1.5-7.829-2.294-15.904-2.294-24.164
			v-49.014h63.268V344.752z M128.477,241.541H65.208v-72.667h63.268V241.541z M128.477,138.842H65.208V63.209h63.268V138.842z
			 M240.984,448.791h-47.571c-12.094,0-23.802-1.686-34.903-4.83v-69.177h82.474V448.791z M240.984,344.752h-82.474v-73.178h82.474
			V344.752z M240.984,241.541h-82.474v-72.667h82.474V241.541z M240.984,138.842h-82.474v-0.001V63.209h82.474V138.842z
			 M358.79,442.327c-12.651,4.189-26.165,6.463-40.202,6.463h-47.572v-74.006h87.774V442.327z M358.79,344.752h-87.774v-73.178
			h87.774V344.752z M358.79,241.541L358.79,241.541h-87.774v-72.667h87.774V241.541z M358.79,138.842h-87.774v-0.001V63.209h87.774
			V138.842z M388.822,427.785v-53.001h45.931C424.622,396.413,408.627,414.766,388.822,427.785z M446.791,320.587
			c0,8.259-0.795,16.335-2.294,24.164h-55.675v-73.178h0.001h57.968V320.587z M446.792,241.541h-57.968v-72.667h57.968V241.541z
			 M446.792,138.841h-57.968V63.209h57.968V138.841z"></path></g></g><g></g><g></g><g></g><g></g><g></g><g></g><g></g><g></g><g></g><g></g><g></g><g></g><g></g><g></g><g></g></svg>