<svg viewBox="0 -71 512 512" xmlns="http://www.w3.org/2000/svg"><path d="m476.515625 157.464844v-102.140625c0-30.507813-24.816406-55.324219-55.320313-55.324219h-330.386718c-30.507813 0-55.324219 24.816406-55.324219 55.324219v102.140625c-21.191406 12.292968-35.484375 35.210937-35.484375 61.421875v112.890625c0 8.285156 6.714844 15 15 15h14.921875v8.871094c0 8.285156 6.71875 15 15 15 8.285156 0 15-6.714844 15-15v-8.871094h392.15625v8.871094c0 8.285156 6.714844 15 15 15 8.28125 0 15-6.714844 15-15v-8.871094h14.921875c8.285156 0 15-6.714844 15-15v-112.890625c0-26.210938-14.292969-49.128907-35.484375-61.421875zm-411.03125-102.140625c0-13.964844 11.359375-25.324219 25.324219-25.324219h330.382812c13.964844 0 25.324219 11.359375 25.324219 25.324219v.429687c-3.175781-.816406-6.507813-1.25-9.9375-1.25h-155.179687c-9.640626 0-18.492188 3.429688-25.398438 9.136719-6.90625-5.703125-15.761719-9.136719-25.398438-9.136719h-155.179687c-3.429687 0-6.761719.433594-9.9375 1.25zm381.03125 39.117187v43.515625c0 5.476563-4.457031 9.9375-9.9375 9.9375h-155.179687c-5.480469 0-9.9375-4.457031-9.9375-9.9375v-43.515625c0-5.480468 4.457031-9.9375 9.9375-9.9375h155.179687c5.480469 0 9.9375 4.457032 9.9375 9.9375zm-381.03125 0c0-5.480468 4.457031-9.9375 9.9375-9.9375h155.179687c5.480469 0 9.9375 4.457032 9.9375 9.9375v43.515625c0 5.476563-4.457031 9.9375-9.9375 9.9375h-155.179687c-5.480469 0-9.9375-4.457031-9.9375-9.9375zm416.515625 222.335938h-452v-31.820313h452zm0-61.820313h-452v-36.070312c0-22.589844 18.378906-40.972657 40.972656-40.972657h370.054688c22.589844 0 40.972656 18.382813 40.972656 40.972657zm0 0"></path></svg>