<svg viewBox="0 0 512 512" xmlns="http://www.w3.org/2000/svg"><path d="m467.90625 0h-423.8125c-24.3125 0-44.09375 19.78125-44.09375 44.09375v423.8125c0 24.3125 19.78125 44.09375 44.09375 44.09375h423.8125c24.3125 0 44.09375-19.78125 44.09375-44.09375v-423.8125c0-24.3125-19.78125-44.09375-44.09375-44.09375zm14.09375 467.90625c0 7.769531-6.324219 14.09375-14.09375 14.09375h-423.8125c-7.769531 0-14.09375-6.324219-14.09375-14.09375v-423.8125c0-7.769531 6.324219-14.09375 14.09375-14.09375h423.8125c7.769531 0 14.09375 6.324219 14.09375 14.09375zm0 0"></path><path d="m439.78125 213.113281h-18.15625c-19.226562-75.308593-86.976562-128.738281-165.625-128.738281s-146.398438 53.433594-165.625 128.738281h-18.15625c-8.28125 0-15 6.71875-15 15v55.773438c0 8.285156 6.71875 15 15 15h18.15625c19.226562 75.308593 86.976562 128.738281 165.625 128.738281s146.398438-53.429688 165.625-128.738281h18.15625c8.28125 0 15-6.714844 15-15v-55.773438c0-8.285156-6.71875-15-15-15zm-15 55.773438h-15.246094c-7.261718 0-13.484375 5.207031-14.765625 12.355469-12.070312 67.4375-70.429687 116.382812-138.769531 116.382812s-126.699219-48.945312-138.773438-116.382812c-1.277343-7.152344-7.5-12.355469-14.765624-12.355469h-15.242188v-25.773438h15.242188c7.265624 0 13.484374-5.207031 14.765624-12.355469 12.074219-67.4375 70.433594-116.382812 138.773438-116.382812s126.699219 48.945312 138.769531 116.382812c1.28125 7.148438 7.503907 12.355469 14.765625 12.355469h15.246094zm0 0"></path><path d="m190.164062 211.90625c-24.316406 0-44.097656 19.78125-44.097656 44.09375s19.78125 44.09375 44.097656 44.09375c24.3125 0 44.09375-19.78125 44.09375-44.09375s-19.78125-44.09375-44.09375-44.09375zm0 58.1875c-7.773437 0-14.097656-6.324219-14.097656-14.09375 0-7.773438 6.324219-14.097656 14.097656-14.097656 7.769532 0 14.09375 6.324218 14.09375 14.097656 0 7.769531-6.324218 14.09375-14.09375 14.09375zm0 0"></path><path d="m321.835938 211.90625c-24.3125 0-44.09375 19.78125-44.09375 44.09375s19.78125 44.09375 44.09375 44.09375c24.316406 0 44.097656-19.78125 44.097656-44.09375s-19.785156-44.09375-44.097656-44.09375zm0 58.1875c-7.769532 0-14.09375-6.324219-14.09375-14.09375 0-7.773438 6.324218-14.097656 14.09375-14.097656 7.773437 0 14.097656 6.324218 14.097656 14.097656 0 7.769531-6.324219 14.09375-14.097656 14.09375zm0 0"></path></svg>